G04 MADE WITH FRITZING*
G04 WWW.FRITZING.ORG*
G04 DOUBLE SIDED*
G04 HOLES PLATED*
G04 CONTOUR ON CENTER OF CONTOUR VECTOR*
%ASAXBY*%
%FSLAX23Y23*%
%MOIN*%
%OFA0B0*%
%SFA1.0B1.0*%
%ADD10C,0.010000*%
%ADD11R,0.001000X0.001000*%
%LNSILK0*%
G90*
G70*
G54D10*
X1165Y628D02*
X365Y628D01*
D02*
X365Y628D02*
X365Y728D01*
D02*
X365Y728D02*
X1165Y728D01*
D02*
X1165Y728D02*
X1165Y628D01*
G54D11*
X0Y1651D02*
X1614Y1651D01*
X0Y1650D02*
X1614Y1650D01*
X0Y1649D02*
X1614Y1649D01*
X0Y1648D02*
X1614Y1648D01*
X0Y1647D02*
X1614Y1647D01*
X0Y1646D02*
X1614Y1646D01*
X0Y1645D02*
X1614Y1645D01*
X0Y1644D02*
X1614Y1644D01*
X0Y1643D02*
X7Y1643D01*
X1607Y1643D02*
X1614Y1643D01*
X0Y1642D02*
X7Y1642D01*
X1607Y1642D02*
X1614Y1642D01*
X0Y1641D02*
X7Y1641D01*
X1607Y1641D02*
X1614Y1641D01*
X0Y1640D02*
X7Y1640D01*
X1607Y1640D02*
X1614Y1640D01*
X0Y1639D02*
X7Y1639D01*
X1607Y1639D02*
X1614Y1639D01*
X0Y1638D02*
X7Y1638D01*
X1607Y1638D02*
X1614Y1638D01*
X0Y1637D02*
X7Y1637D01*
X1607Y1637D02*
X1614Y1637D01*
X0Y1636D02*
X7Y1636D01*
X1607Y1636D02*
X1614Y1636D01*
X0Y1635D02*
X7Y1635D01*
X1607Y1635D02*
X1614Y1635D01*
X0Y1634D02*
X7Y1634D01*
X1607Y1634D02*
X1614Y1634D01*
X0Y1633D02*
X7Y1633D01*
X1607Y1633D02*
X1614Y1633D01*
X0Y1632D02*
X7Y1632D01*
X1607Y1632D02*
X1614Y1632D01*
X0Y1631D02*
X7Y1631D01*
X1607Y1631D02*
X1614Y1631D01*
X0Y1630D02*
X7Y1630D01*
X1607Y1630D02*
X1614Y1630D01*
X0Y1629D02*
X7Y1629D01*
X1607Y1629D02*
X1614Y1629D01*
X0Y1628D02*
X7Y1628D01*
X1607Y1628D02*
X1614Y1628D01*
X0Y1627D02*
X7Y1627D01*
X1607Y1627D02*
X1614Y1627D01*
X0Y1626D02*
X7Y1626D01*
X1607Y1626D02*
X1614Y1626D01*
X0Y1625D02*
X7Y1625D01*
X1607Y1625D02*
X1614Y1625D01*
X0Y1624D02*
X7Y1624D01*
X1607Y1624D02*
X1614Y1624D01*
X0Y1623D02*
X7Y1623D01*
X1607Y1623D02*
X1614Y1623D01*
X0Y1622D02*
X7Y1622D01*
X1607Y1622D02*
X1614Y1622D01*
X0Y1621D02*
X7Y1621D01*
X1607Y1621D02*
X1614Y1621D01*
X0Y1620D02*
X7Y1620D01*
X1607Y1620D02*
X1614Y1620D01*
X0Y1619D02*
X7Y1619D01*
X1607Y1619D02*
X1614Y1619D01*
X0Y1618D02*
X7Y1618D01*
X1607Y1618D02*
X1614Y1618D01*
X0Y1617D02*
X7Y1617D01*
X1607Y1617D02*
X1614Y1617D01*
X0Y1616D02*
X7Y1616D01*
X1607Y1616D02*
X1614Y1616D01*
X0Y1615D02*
X7Y1615D01*
X1607Y1615D02*
X1614Y1615D01*
X0Y1614D02*
X7Y1614D01*
X1607Y1614D02*
X1614Y1614D01*
X0Y1613D02*
X7Y1613D01*
X1607Y1613D02*
X1614Y1613D01*
X0Y1612D02*
X7Y1612D01*
X1607Y1612D02*
X1614Y1612D01*
X0Y1611D02*
X7Y1611D01*
X1607Y1611D02*
X1614Y1611D01*
X0Y1610D02*
X7Y1610D01*
X1607Y1610D02*
X1614Y1610D01*
X0Y1609D02*
X7Y1609D01*
X1607Y1609D02*
X1614Y1609D01*
X0Y1608D02*
X7Y1608D01*
X1607Y1608D02*
X1614Y1608D01*
X0Y1607D02*
X7Y1607D01*
X1607Y1607D02*
X1614Y1607D01*
X0Y1606D02*
X7Y1606D01*
X1607Y1606D02*
X1614Y1606D01*
X0Y1605D02*
X7Y1605D01*
X1607Y1605D02*
X1614Y1605D01*
X0Y1604D02*
X7Y1604D01*
X1607Y1604D02*
X1614Y1604D01*
X0Y1603D02*
X7Y1603D01*
X1607Y1603D02*
X1614Y1603D01*
X0Y1602D02*
X7Y1602D01*
X1607Y1602D02*
X1614Y1602D01*
X0Y1601D02*
X7Y1601D01*
X1607Y1601D02*
X1614Y1601D01*
X0Y1600D02*
X7Y1600D01*
X1607Y1600D02*
X1614Y1600D01*
X0Y1599D02*
X7Y1599D01*
X1607Y1599D02*
X1614Y1599D01*
X0Y1598D02*
X7Y1598D01*
X1607Y1598D02*
X1614Y1598D01*
X0Y1597D02*
X7Y1597D01*
X1607Y1597D02*
X1614Y1597D01*
X0Y1596D02*
X7Y1596D01*
X1607Y1596D02*
X1614Y1596D01*
X0Y1595D02*
X7Y1595D01*
X1607Y1595D02*
X1614Y1595D01*
X0Y1594D02*
X7Y1594D01*
X1607Y1594D02*
X1614Y1594D01*
X0Y1593D02*
X7Y1593D01*
X1607Y1593D02*
X1614Y1593D01*
X0Y1592D02*
X7Y1592D01*
X1607Y1592D02*
X1614Y1592D01*
X0Y1591D02*
X7Y1591D01*
X1607Y1591D02*
X1614Y1591D01*
X0Y1590D02*
X7Y1590D01*
X1607Y1590D02*
X1614Y1590D01*
X0Y1589D02*
X7Y1589D01*
X1607Y1589D02*
X1614Y1589D01*
X0Y1588D02*
X7Y1588D01*
X1607Y1588D02*
X1614Y1588D01*
X0Y1587D02*
X7Y1587D01*
X1607Y1587D02*
X1614Y1587D01*
X0Y1586D02*
X7Y1586D01*
X1607Y1586D02*
X1614Y1586D01*
X0Y1585D02*
X7Y1585D01*
X1607Y1585D02*
X1614Y1585D01*
X0Y1584D02*
X7Y1584D01*
X1607Y1584D02*
X1614Y1584D01*
X0Y1583D02*
X7Y1583D01*
X1607Y1583D02*
X1614Y1583D01*
X0Y1582D02*
X7Y1582D01*
X1607Y1582D02*
X1614Y1582D01*
X0Y1581D02*
X7Y1581D01*
X1607Y1581D02*
X1614Y1581D01*
X0Y1580D02*
X7Y1580D01*
X1607Y1580D02*
X1614Y1580D01*
X0Y1579D02*
X7Y1579D01*
X1607Y1579D02*
X1614Y1579D01*
X0Y1578D02*
X7Y1578D01*
X1607Y1578D02*
X1614Y1578D01*
X0Y1577D02*
X7Y1577D01*
X1607Y1577D02*
X1614Y1577D01*
X0Y1576D02*
X7Y1576D01*
X1607Y1576D02*
X1614Y1576D01*
X0Y1575D02*
X7Y1575D01*
X1607Y1575D02*
X1614Y1575D01*
X0Y1574D02*
X7Y1574D01*
X1607Y1574D02*
X1614Y1574D01*
X0Y1573D02*
X7Y1573D01*
X1607Y1573D02*
X1614Y1573D01*
X0Y1572D02*
X7Y1572D01*
X1607Y1572D02*
X1614Y1572D01*
X0Y1571D02*
X7Y1571D01*
X1607Y1571D02*
X1614Y1571D01*
X0Y1570D02*
X7Y1570D01*
X1607Y1570D02*
X1614Y1570D01*
X0Y1569D02*
X7Y1569D01*
X1607Y1569D02*
X1614Y1569D01*
X0Y1568D02*
X7Y1568D01*
X1607Y1568D02*
X1614Y1568D01*
X0Y1567D02*
X7Y1567D01*
X1607Y1567D02*
X1614Y1567D01*
X0Y1566D02*
X7Y1566D01*
X1607Y1566D02*
X1614Y1566D01*
X0Y1565D02*
X7Y1565D01*
X1607Y1565D02*
X1614Y1565D01*
X0Y1564D02*
X7Y1564D01*
X1607Y1564D02*
X1614Y1564D01*
X0Y1563D02*
X7Y1563D01*
X1607Y1563D02*
X1614Y1563D01*
X0Y1562D02*
X7Y1562D01*
X1607Y1562D02*
X1614Y1562D01*
X0Y1561D02*
X7Y1561D01*
X1607Y1561D02*
X1614Y1561D01*
X0Y1560D02*
X7Y1560D01*
X1607Y1560D02*
X1614Y1560D01*
X0Y1559D02*
X7Y1559D01*
X1607Y1559D02*
X1614Y1559D01*
X0Y1558D02*
X7Y1558D01*
X1607Y1558D02*
X1614Y1558D01*
X0Y1557D02*
X7Y1557D01*
X1607Y1557D02*
X1614Y1557D01*
X0Y1556D02*
X7Y1556D01*
X1607Y1556D02*
X1614Y1556D01*
X0Y1555D02*
X7Y1555D01*
X1607Y1555D02*
X1614Y1555D01*
X0Y1554D02*
X7Y1554D01*
X1607Y1554D02*
X1614Y1554D01*
X0Y1553D02*
X7Y1553D01*
X1607Y1553D02*
X1614Y1553D01*
X0Y1552D02*
X7Y1552D01*
X1607Y1552D02*
X1614Y1552D01*
X0Y1551D02*
X7Y1551D01*
X1607Y1551D02*
X1614Y1551D01*
X0Y1550D02*
X7Y1550D01*
X1607Y1550D02*
X1614Y1550D01*
X0Y1549D02*
X7Y1549D01*
X1607Y1549D02*
X1614Y1549D01*
X0Y1548D02*
X7Y1548D01*
X1607Y1548D02*
X1614Y1548D01*
X0Y1547D02*
X7Y1547D01*
X1607Y1547D02*
X1614Y1547D01*
X0Y1546D02*
X7Y1546D01*
X1607Y1546D02*
X1614Y1546D01*
X0Y1545D02*
X7Y1545D01*
X1607Y1545D02*
X1614Y1545D01*
X0Y1544D02*
X7Y1544D01*
X1607Y1544D02*
X1614Y1544D01*
X0Y1543D02*
X7Y1543D01*
X1607Y1543D02*
X1614Y1543D01*
X0Y1542D02*
X7Y1542D01*
X1607Y1542D02*
X1614Y1542D01*
X0Y1541D02*
X7Y1541D01*
X1607Y1541D02*
X1614Y1541D01*
X0Y1540D02*
X7Y1540D01*
X1607Y1540D02*
X1614Y1540D01*
X0Y1539D02*
X7Y1539D01*
X1607Y1539D02*
X1614Y1539D01*
X0Y1538D02*
X7Y1538D01*
X1607Y1538D02*
X1614Y1538D01*
X0Y1537D02*
X7Y1537D01*
X1607Y1537D02*
X1614Y1537D01*
X0Y1536D02*
X7Y1536D01*
X1607Y1536D02*
X1614Y1536D01*
X0Y1535D02*
X7Y1535D01*
X1607Y1535D02*
X1614Y1535D01*
X0Y1534D02*
X7Y1534D01*
X1607Y1534D02*
X1614Y1534D01*
X0Y1533D02*
X7Y1533D01*
X1607Y1533D02*
X1614Y1533D01*
X0Y1532D02*
X7Y1532D01*
X1607Y1532D02*
X1614Y1532D01*
X0Y1531D02*
X7Y1531D01*
X1607Y1531D02*
X1614Y1531D01*
X0Y1530D02*
X7Y1530D01*
X1607Y1530D02*
X1614Y1530D01*
X0Y1529D02*
X7Y1529D01*
X1607Y1529D02*
X1614Y1529D01*
X0Y1528D02*
X7Y1528D01*
X1607Y1528D02*
X1614Y1528D01*
X0Y1527D02*
X7Y1527D01*
X1607Y1527D02*
X1614Y1527D01*
X0Y1526D02*
X7Y1526D01*
X1607Y1526D02*
X1614Y1526D01*
X0Y1525D02*
X7Y1525D01*
X1607Y1525D02*
X1614Y1525D01*
X0Y1524D02*
X7Y1524D01*
X1607Y1524D02*
X1614Y1524D01*
X0Y1523D02*
X7Y1523D01*
X1607Y1523D02*
X1614Y1523D01*
X0Y1522D02*
X7Y1522D01*
X1607Y1522D02*
X1614Y1522D01*
X0Y1521D02*
X7Y1521D01*
X1607Y1521D02*
X1614Y1521D01*
X0Y1520D02*
X7Y1520D01*
X1607Y1520D02*
X1614Y1520D01*
X0Y1519D02*
X7Y1519D01*
X1607Y1519D02*
X1614Y1519D01*
X0Y1518D02*
X7Y1518D01*
X1607Y1518D02*
X1614Y1518D01*
X0Y1517D02*
X7Y1517D01*
X1607Y1517D02*
X1614Y1517D01*
X0Y1516D02*
X7Y1516D01*
X1607Y1516D02*
X1614Y1516D01*
X0Y1515D02*
X7Y1515D01*
X1607Y1515D02*
X1614Y1515D01*
X0Y1514D02*
X7Y1514D01*
X1607Y1514D02*
X1614Y1514D01*
X0Y1513D02*
X7Y1513D01*
X1607Y1513D02*
X1614Y1513D01*
X0Y1512D02*
X7Y1512D01*
X1607Y1512D02*
X1614Y1512D01*
X0Y1511D02*
X7Y1511D01*
X1607Y1511D02*
X1614Y1511D01*
X0Y1510D02*
X7Y1510D01*
X1607Y1510D02*
X1614Y1510D01*
X0Y1509D02*
X7Y1509D01*
X1607Y1509D02*
X1614Y1509D01*
X0Y1508D02*
X7Y1508D01*
X1607Y1508D02*
X1614Y1508D01*
X0Y1507D02*
X7Y1507D01*
X1607Y1507D02*
X1614Y1507D01*
X0Y1506D02*
X7Y1506D01*
X1607Y1506D02*
X1614Y1506D01*
X0Y1505D02*
X7Y1505D01*
X1607Y1505D02*
X1614Y1505D01*
X0Y1504D02*
X7Y1504D01*
X1607Y1504D02*
X1614Y1504D01*
X0Y1503D02*
X7Y1503D01*
X1607Y1503D02*
X1614Y1503D01*
X0Y1502D02*
X7Y1502D01*
X1607Y1502D02*
X1614Y1502D01*
X0Y1501D02*
X7Y1501D01*
X1607Y1501D02*
X1614Y1501D01*
X0Y1500D02*
X7Y1500D01*
X1607Y1500D02*
X1614Y1500D01*
X0Y1499D02*
X7Y1499D01*
X1607Y1499D02*
X1614Y1499D01*
X0Y1498D02*
X7Y1498D01*
X1607Y1498D02*
X1614Y1498D01*
X0Y1497D02*
X7Y1497D01*
X1607Y1497D02*
X1614Y1497D01*
X0Y1496D02*
X7Y1496D01*
X1607Y1496D02*
X1614Y1496D01*
X0Y1495D02*
X7Y1495D01*
X1607Y1495D02*
X1614Y1495D01*
X0Y1494D02*
X7Y1494D01*
X1607Y1494D02*
X1614Y1494D01*
X0Y1493D02*
X7Y1493D01*
X1607Y1493D02*
X1614Y1493D01*
X0Y1492D02*
X7Y1492D01*
X1607Y1492D02*
X1614Y1492D01*
X0Y1491D02*
X7Y1491D01*
X1607Y1491D02*
X1614Y1491D01*
X0Y1490D02*
X7Y1490D01*
X1607Y1490D02*
X1614Y1490D01*
X0Y1489D02*
X7Y1489D01*
X1607Y1489D02*
X1614Y1489D01*
X0Y1488D02*
X7Y1488D01*
X1607Y1488D02*
X1614Y1488D01*
X0Y1487D02*
X7Y1487D01*
X1607Y1487D02*
X1614Y1487D01*
X0Y1486D02*
X7Y1486D01*
X1607Y1486D02*
X1614Y1486D01*
X0Y1485D02*
X7Y1485D01*
X1607Y1485D02*
X1614Y1485D01*
X0Y1484D02*
X7Y1484D01*
X1607Y1484D02*
X1614Y1484D01*
X0Y1483D02*
X7Y1483D01*
X1607Y1483D02*
X1614Y1483D01*
X0Y1482D02*
X7Y1482D01*
X1607Y1482D02*
X1614Y1482D01*
X0Y1481D02*
X7Y1481D01*
X1607Y1481D02*
X1614Y1481D01*
X0Y1480D02*
X7Y1480D01*
X1607Y1480D02*
X1614Y1480D01*
X0Y1479D02*
X7Y1479D01*
X1607Y1479D02*
X1614Y1479D01*
X0Y1478D02*
X7Y1478D01*
X1607Y1478D02*
X1614Y1478D01*
X0Y1477D02*
X7Y1477D01*
X1607Y1477D02*
X1614Y1477D01*
X0Y1476D02*
X7Y1476D01*
X1607Y1476D02*
X1614Y1476D01*
X0Y1475D02*
X7Y1475D01*
X1607Y1475D02*
X1614Y1475D01*
X0Y1474D02*
X7Y1474D01*
X1607Y1474D02*
X1614Y1474D01*
X0Y1473D02*
X7Y1473D01*
X1607Y1473D02*
X1614Y1473D01*
X0Y1472D02*
X7Y1472D01*
X1607Y1472D02*
X1614Y1472D01*
X0Y1471D02*
X7Y1471D01*
X1607Y1471D02*
X1614Y1471D01*
X0Y1470D02*
X7Y1470D01*
X1607Y1470D02*
X1614Y1470D01*
X0Y1469D02*
X7Y1469D01*
X1607Y1469D02*
X1614Y1469D01*
X0Y1468D02*
X7Y1468D01*
X1607Y1468D02*
X1614Y1468D01*
X0Y1467D02*
X7Y1467D01*
X1607Y1467D02*
X1614Y1467D01*
X0Y1466D02*
X7Y1466D01*
X1607Y1466D02*
X1614Y1466D01*
X0Y1465D02*
X7Y1465D01*
X1607Y1465D02*
X1614Y1465D01*
X0Y1464D02*
X7Y1464D01*
X1607Y1464D02*
X1614Y1464D01*
X0Y1463D02*
X7Y1463D01*
X1607Y1463D02*
X1614Y1463D01*
X0Y1462D02*
X7Y1462D01*
X1607Y1462D02*
X1614Y1462D01*
X0Y1461D02*
X7Y1461D01*
X1607Y1461D02*
X1614Y1461D01*
X0Y1460D02*
X7Y1460D01*
X1607Y1460D02*
X1614Y1460D01*
X0Y1459D02*
X7Y1459D01*
X1607Y1459D02*
X1614Y1459D01*
X0Y1458D02*
X7Y1458D01*
X1607Y1458D02*
X1614Y1458D01*
X0Y1457D02*
X7Y1457D01*
X1607Y1457D02*
X1614Y1457D01*
X0Y1456D02*
X7Y1456D01*
X1607Y1456D02*
X1614Y1456D01*
X0Y1455D02*
X7Y1455D01*
X1607Y1455D02*
X1614Y1455D01*
X0Y1454D02*
X7Y1454D01*
X1607Y1454D02*
X1614Y1454D01*
X0Y1453D02*
X7Y1453D01*
X1607Y1453D02*
X1614Y1453D01*
X0Y1452D02*
X7Y1452D01*
X1607Y1452D02*
X1614Y1452D01*
X0Y1451D02*
X7Y1451D01*
X1607Y1451D02*
X1614Y1451D01*
X0Y1450D02*
X7Y1450D01*
X1607Y1450D02*
X1614Y1450D01*
X0Y1449D02*
X7Y1449D01*
X1607Y1449D02*
X1614Y1449D01*
X0Y1448D02*
X7Y1448D01*
X1607Y1448D02*
X1614Y1448D01*
X0Y1447D02*
X7Y1447D01*
X1607Y1447D02*
X1614Y1447D01*
X0Y1446D02*
X7Y1446D01*
X1607Y1446D02*
X1614Y1446D01*
X0Y1445D02*
X7Y1445D01*
X1607Y1445D02*
X1614Y1445D01*
X0Y1444D02*
X7Y1444D01*
X1607Y1444D02*
X1614Y1444D01*
X0Y1443D02*
X7Y1443D01*
X1607Y1443D02*
X1614Y1443D01*
X0Y1442D02*
X7Y1442D01*
X1607Y1442D02*
X1614Y1442D01*
X0Y1441D02*
X7Y1441D01*
X1607Y1441D02*
X1614Y1441D01*
X0Y1440D02*
X7Y1440D01*
X1607Y1440D02*
X1614Y1440D01*
X0Y1439D02*
X7Y1439D01*
X1607Y1439D02*
X1614Y1439D01*
X0Y1438D02*
X7Y1438D01*
X1607Y1438D02*
X1614Y1438D01*
X0Y1437D02*
X7Y1437D01*
X1607Y1437D02*
X1614Y1437D01*
X0Y1436D02*
X7Y1436D01*
X1607Y1436D02*
X1614Y1436D01*
X0Y1435D02*
X7Y1435D01*
X1607Y1435D02*
X1614Y1435D01*
X0Y1434D02*
X7Y1434D01*
X1607Y1434D02*
X1614Y1434D01*
X0Y1433D02*
X7Y1433D01*
X1607Y1433D02*
X1614Y1433D01*
X0Y1432D02*
X7Y1432D01*
X1607Y1432D02*
X1614Y1432D01*
X0Y1431D02*
X7Y1431D01*
X1607Y1431D02*
X1614Y1431D01*
X0Y1430D02*
X7Y1430D01*
X1607Y1430D02*
X1614Y1430D01*
X0Y1429D02*
X7Y1429D01*
X1607Y1429D02*
X1614Y1429D01*
X0Y1428D02*
X7Y1428D01*
X1607Y1428D02*
X1614Y1428D01*
X0Y1427D02*
X7Y1427D01*
X1607Y1427D02*
X1614Y1427D01*
X0Y1426D02*
X7Y1426D01*
X1607Y1426D02*
X1614Y1426D01*
X0Y1425D02*
X7Y1425D01*
X1607Y1425D02*
X1614Y1425D01*
X0Y1424D02*
X7Y1424D01*
X1607Y1424D02*
X1614Y1424D01*
X0Y1423D02*
X7Y1423D01*
X1607Y1423D02*
X1614Y1423D01*
X0Y1422D02*
X7Y1422D01*
X1607Y1422D02*
X1614Y1422D01*
X0Y1421D02*
X7Y1421D01*
X1607Y1421D02*
X1614Y1421D01*
X0Y1420D02*
X7Y1420D01*
X1607Y1420D02*
X1614Y1420D01*
X0Y1419D02*
X7Y1419D01*
X1607Y1419D02*
X1614Y1419D01*
X0Y1418D02*
X7Y1418D01*
X1607Y1418D02*
X1614Y1418D01*
X0Y1417D02*
X7Y1417D01*
X1607Y1417D02*
X1614Y1417D01*
X0Y1416D02*
X7Y1416D01*
X1607Y1416D02*
X1614Y1416D01*
X0Y1415D02*
X7Y1415D01*
X1607Y1415D02*
X1614Y1415D01*
X0Y1414D02*
X7Y1414D01*
X1607Y1414D02*
X1614Y1414D01*
X0Y1413D02*
X7Y1413D01*
X1607Y1413D02*
X1614Y1413D01*
X0Y1412D02*
X7Y1412D01*
X1607Y1412D02*
X1614Y1412D01*
X0Y1411D02*
X7Y1411D01*
X1607Y1411D02*
X1614Y1411D01*
X0Y1410D02*
X7Y1410D01*
X1607Y1410D02*
X1614Y1410D01*
X0Y1409D02*
X7Y1409D01*
X1607Y1409D02*
X1614Y1409D01*
X0Y1408D02*
X7Y1408D01*
X1607Y1408D02*
X1614Y1408D01*
X0Y1407D02*
X7Y1407D01*
X1607Y1407D02*
X1614Y1407D01*
X0Y1406D02*
X7Y1406D01*
X1607Y1406D02*
X1614Y1406D01*
X0Y1405D02*
X7Y1405D01*
X1607Y1405D02*
X1614Y1405D01*
X0Y1404D02*
X7Y1404D01*
X1607Y1404D02*
X1614Y1404D01*
X0Y1403D02*
X7Y1403D01*
X1607Y1403D02*
X1614Y1403D01*
X0Y1402D02*
X7Y1402D01*
X1607Y1402D02*
X1614Y1402D01*
X0Y1401D02*
X7Y1401D01*
X1607Y1401D02*
X1614Y1401D01*
X0Y1400D02*
X7Y1400D01*
X1607Y1400D02*
X1614Y1400D01*
X0Y1399D02*
X7Y1399D01*
X1607Y1399D02*
X1614Y1399D01*
X0Y1398D02*
X7Y1398D01*
X1607Y1398D02*
X1614Y1398D01*
X0Y1397D02*
X7Y1397D01*
X1607Y1397D02*
X1614Y1397D01*
X0Y1396D02*
X7Y1396D01*
X1607Y1396D02*
X1614Y1396D01*
X0Y1395D02*
X7Y1395D01*
X1607Y1395D02*
X1614Y1395D01*
X0Y1394D02*
X7Y1394D01*
X1607Y1394D02*
X1614Y1394D01*
X0Y1393D02*
X7Y1393D01*
X1607Y1393D02*
X1614Y1393D01*
X0Y1392D02*
X7Y1392D01*
X1607Y1392D02*
X1614Y1392D01*
X0Y1391D02*
X7Y1391D01*
X1607Y1391D02*
X1614Y1391D01*
X0Y1390D02*
X7Y1390D01*
X1607Y1390D02*
X1614Y1390D01*
X0Y1389D02*
X7Y1389D01*
X1607Y1389D02*
X1614Y1389D01*
X0Y1388D02*
X7Y1388D01*
X1607Y1388D02*
X1614Y1388D01*
X0Y1387D02*
X7Y1387D01*
X1607Y1387D02*
X1614Y1387D01*
X0Y1386D02*
X7Y1386D01*
X1607Y1386D02*
X1614Y1386D01*
X0Y1385D02*
X7Y1385D01*
X1607Y1385D02*
X1614Y1385D01*
X0Y1384D02*
X7Y1384D01*
X1607Y1384D02*
X1614Y1384D01*
X0Y1383D02*
X7Y1383D01*
X1607Y1383D02*
X1614Y1383D01*
X0Y1382D02*
X7Y1382D01*
X1607Y1382D02*
X1614Y1382D01*
X0Y1381D02*
X7Y1381D01*
X1607Y1381D02*
X1614Y1381D01*
X0Y1380D02*
X7Y1380D01*
X1607Y1380D02*
X1614Y1380D01*
X0Y1379D02*
X7Y1379D01*
X1607Y1379D02*
X1614Y1379D01*
X0Y1378D02*
X7Y1378D01*
X1607Y1378D02*
X1614Y1378D01*
X0Y1377D02*
X7Y1377D01*
X1607Y1377D02*
X1614Y1377D01*
X0Y1376D02*
X7Y1376D01*
X1607Y1376D02*
X1614Y1376D01*
X0Y1375D02*
X7Y1375D01*
X1607Y1375D02*
X1614Y1375D01*
X0Y1374D02*
X7Y1374D01*
X1607Y1374D02*
X1614Y1374D01*
X0Y1373D02*
X7Y1373D01*
X1607Y1373D02*
X1614Y1373D01*
X0Y1372D02*
X7Y1372D01*
X1607Y1372D02*
X1614Y1372D01*
X0Y1371D02*
X7Y1371D01*
X1607Y1371D02*
X1614Y1371D01*
X0Y1370D02*
X7Y1370D01*
X1607Y1370D02*
X1614Y1370D01*
X0Y1369D02*
X7Y1369D01*
X1607Y1369D02*
X1614Y1369D01*
X0Y1368D02*
X7Y1368D01*
X1607Y1368D02*
X1614Y1368D01*
X0Y1367D02*
X7Y1367D01*
X1607Y1367D02*
X1614Y1367D01*
X0Y1366D02*
X7Y1366D01*
X1607Y1366D02*
X1614Y1366D01*
X0Y1365D02*
X7Y1365D01*
X1607Y1365D02*
X1614Y1365D01*
X0Y1364D02*
X7Y1364D01*
X1607Y1364D02*
X1614Y1364D01*
X0Y1363D02*
X7Y1363D01*
X1607Y1363D02*
X1614Y1363D01*
X0Y1362D02*
X7Y1362D01*
X1607Y1362D02*
X1614Y1362D01*
X0Y1361D02*
X7Y1361D01*
X1607Y1361D02*
X1614Y1361D01*
X0Y1360D02*
X7Y1360D01*
X1607Y1360D02*
X1614Y1360D01*
X0Y1359D02*
X7Y1359D01*
X1607Y1359D02*
X1614Y1359D01*
X0Y1358D02*
X7Y1358D01*
X1607Y1358D02*
X1614Y1358D01*
X0Y1357D02*
X7Y1357D01*
X1607Y1357D02*
X1614Y1357D01*
X0Y1356D02*
X7Y1356D01*
X1607Y1356D02*
X1614Y1356D01*
X0Y1355D02*
X7Y1355D01*
X1607Y1355D02*
X1614Y1355D01*
X0Y1354D02*
X7Y1354D01*
X1607Y1354D02*
X1614Y1354D01*
X0Y1353D02*
X7Y1353D01*
X1607Y1353D02*
X1614Y1353D01*
X0Y1352D02*
X7Y1352D01*
X1607Y1352D02*
X1614Y1352D01*
X0Y1351D02*
X7Y1351D01*
X1607Y1351D02*
X1614Y1351D01*
X0Y1350D02*
X7Y1350D01*
X1607Y1350D02*
X1614Y1350D01*
X0Y1349D02*
X7Y1349D01*
X1607Y1349D02*
X1614Y1349D01*
X0Y1348D02*
X7Y1348D01*
X1607Y1348D02*
X1614Y1348D01*
X0Y1347D02*
X7Y1347D01*
X1607Y1347D02*
X1614Y1347D01*
X0Y1346D02*
X7Y1346D01*
X1607Y1346D02*
X1614Y1346D01*
X0Y1345D02*
X7Y1345D01*
X1607Y1345D02*
X1614Y1345D01*
X0Y1344D02*
X7Y1344D01*
X1607Y1344D02*
X1614Y1344D01*
X0Y1343D02*
X7Y1343D01*
X1607Y1343D02*
X1614Y1343D01*
X0Y1342D02*
X7Y1342D01*
X1607Y1342D02*
X1614Y1342D01*
X0Y1341D02*
X7Y1341D01*
X1607Y1341D02*
X1614Y1341D01*
X0Y1340D02*
X7Y1340D01*
X1607Y1340D02*
X1614Y1340D01*
X0Y1339D02*
X7Y1339D01*
X1607Y1339D02*
X1614Y1339D01*
X0Y1338D02*
X7Y1338D01*
X1607Y1338D02*
X1614Y1338D01*
X0Y1337D02*
X7Y1337D01*
X1607Y1337D02*
X1614Y1337D01*
X0Y1336D02*
X7Y1336D01*
X1607Y1336D02*
X1614Y1336D01*
X0Y1335D02*
X7Y1335D01*
X1607Y1335D02*
X1614Y1335D01*
X0Y1334D02*
X7Y1334D01*
X1607Y1334D02*
X1614Y1334D01*
X0Y1333D02*
X7Y1333D01*
X1607Y1333D02*
X1614Y1333D01*
X0Y1332D02*
X7Y1332D01*
X1607Y1332D02*
X1614Y1332D01*
X0Y1331D02*
X7Y1331D01*
X1607Y1331D02*
X1614Y1331D01*
X0Y1330D02*
X7Y1330D01*
X1607Y1330D02*
X1614Y1330D01*
X0Y1329D02*
X7Y1329D01*
X1607Y1329D02*
X1614Y1329D01*
X0Y1328D02*
X7Y1328D01*
X1607Y1328D02*
X1614Y1328D01*
X0Y1327D02*
X7Y1327D01*
X1607Y1327D02*
X1614Y1327D01*
X0Y1326D02*
X7Y1326D01*
X1607Y1326D02*
X1614Y1326D01*
X0Y1325D02*
X7Y1325D01*
X1607Y1325D02*
X1614Y1325D01*
X0Y1324D02*
X7Y1324D01*
X1607Y1324D02*
X1614Y1324D01*
X0Y1323D02*
X7Y1323D01*
X1607Y1323D02*
X1614Y1323D01*
X0Y1322D02*
X7Y1322D01*
X1607Y1322D02*
X1614Y1322D01*
X0Y1321D02*
X7Y1321D01*
X1607Y1321D02*
X1614Y1321D01*
X0Y1320D02*
X7Y1320D01*
X1607Y1320D02*
X1614Y1320D01*
X0Y1319D02*
X7Y1319D01*
X1607Y1319D02*
X1614Y1319D01*
X0Y1318D02*
X7Y1318D01*
X1607Y1318D02*
X1614Y1318D01*
X0Y1317D02*
X7Y1317D01*
X1607Y1317D02*
X1614Y1317D01*
X0Y1316D02*
X7Y1316D01*
X1607Y1316D02*
X1614Y1316D01*
X0Y1315D02*
X7Y1315D01*
X1607Y1315D02*
X1614Y1315D01*
X0Y1314D02*
X7Y1314D01*
X1607Y1314D02*
X1614Y1314D01*
X0Y1313D02*
X7Y1313D01*
X1607Y1313D02*
X1614Y1313D01*
X0Y1312D02*
X7Y1312D01*
X1607Y1312D02*
X1614Y1312D01*
X0Y1311D02*
X7Y1311D01*
X1607Y1311D02*
X1614Y1311D01*
X0Y1310D02*
X7Y1310D01*
X1607Y1310D02*
X1614Y1310D01*
X0Y1309D02*
X7Y1309D01*
X1607Y1309D02*
X1614Y1309D01*
X0Y1308D02*
X7Y1308D01*
X1607Y1308D02*
X1614Y1308D01*
X0Y1307D02*
X7Y1307D01*
X1607Y1307D02*
X1614Y1307D01*
X0Y1306D02*
X7Y1306D01*
X1607Y1306D02*
X1614Y1306D01*
X0Y1305D02*
X7Y1305D01*
X1607Y1305D02*
X1614Y1305D01*
X0Y1304D02*
X7Y1304D01*
X1607Y1304D02*
X1614Y1304D01*
X0Y1303D02*
X7Y1303D01*
X1607Y1303D02*
X1614Y1303D01*
X0Y1302D02*
X7Y1302D01*
X1607Y1302D02*
X1614Y1302D01*
X0Y1301D02*
X7Y1301D01*
X1607Y1301D02*
X1614Y1301D01*
X0Y1300D02*
X7Y1300D01*
X1607Y1300D02*
X1614Y1300D01*
X0Y1299D02*
X7Y1299D01*
X1607Y1299D02*
X1614Y1299D01*
X0Y1298D02*
X7Y1298D01*
X1607Y1298D02*
X1614Y1298D01*
X0Y1297D02*
X7Y1297D01*
X1607Y1297D02*
X1614Y1297D01*
X0Y1296D02*
X7Y1296D01*
X1607Y1296D02*
X1614Y1296D01*
X0Y1295D02*
X7Y1295D01*
X1607Y1295D02*
X1614Y1295D01*
X0Y1294D02*
X7Y1294D01*
X1607Y1294D02*
X1614Y1294D01*
X0Y1293D02*
X7Y1293D01*
X1607Y1293D02*
X1614Y1293D01*
X0Y1292D02*
X7Y1292D01*
X1607Y1292D02*
X1614Y1292D01*
X0Y1291D02*
X7Y1291D01*
X1607Y1291D02*
X1614Y1291D01*
X0Y1290D02*
X7Y1290D01*
X1607Y1290D02*
X1614Y1290D01*
X0Y1289D02*
X7Y1289D01*
X1607Y1289D02*
X1614Y1289D01*
X0Y1288D02*
X7Y1288D01*
X1607Y1288D02*
X1614Y1288D01*
X0Y1287D02*
X7Y1287D01*
X1607Y1287D02*
X1614Y1287D01*
X0Y1286D02*
X7Y1286D01*
X1607Y1286D02*
X1614Y1286D01*
X0Y1285D02*
X7Y1285D01*
X1607Y1285D02*
X1614Y1285D01*
X0Y1284D02*
X7Y1284D01*
X1607Y1284D02*
X1614Y1284D01*
X0Y1283D02*
X7Y1283D01*
X1607Y1283D02*
X1614Y1283D01*
X0Y1282D02*
X7Y1282D01*
X1607Y1282D02*
X1614Y1282D01*
X0Y1281D02*
X7Y1281D01*
X1607Y1281D02*
X1614Y1281D01*
X0Y1280D02*
X7Y1280D01*
X1607Y1280D02*
X1614Y1280D01*
X0Y1279D02*
X7Y1279D01*
X1607Y1279D02*
X1614Y1279D01*
X0Y1278D02*
X7Y1278D01*
X1607Y1278D02*
X1614Y1278D01*
X0Y1277D02*
X7Y1277D01*
X1607Y1277D02*
X1614Y1277D01*
X0Y1276D02*
X7Y1276D01*
X1607Y1276D02*
X1614Y1276D01*
X0Y1275D02*
X7Y1275D01*
X1607Y1275D02*
X1614Y1275D01*
X0Y1274D02*
X7Y1274D01*
X1607Y1274D02*
X1614Y1274D01*
X0Y1273D02*
X7Y1273D01*
X1607Y1273D02*
X1614Y1273D01*
X0Y1272D02*
X7Y1272D01*
X1607Y1272D02*
X1614Y1272D01*
X0Y1271D02*
X7Y1271D01*
X1607Y1271D02*
X1614Y1271D01*
X0Y1270D02*
X7Y1270D01*
X1607Y1270D02*
X1614Y1270D01*
X0Y1269D02*
X7Y1269D01*
X1607Y1269D02*
X1614Y1269D01*
X0Y1268D02*
X7Y1268D01*
X1607Y1268D02*
X1614Y1268D01*
X0Y1267D02*
X7Y1267D01*
X1607Y1267D02*
X1614Y1267D01*
X0Y1266D02*
X7Y1266D01*
X1607Y1266D02*
X1614Y1266D01*
X0Y1265D02*
X7Y1265D01*
X1607Y1265D02*
X1614Y1265D01*
X0Y1264D02*
X7Y1264D01*
X1607Y1264D02*
X1614Y1264D01*
X0Y1263D02*
X7Y1263D01*
X1607Y1263D02*
X1614Y1263D01*
X0Y1262D02*
X7Y1262D01*
X1607Y1262D02*
X1614Y1262D01*
X0Y1261D02*
X7Y1261D01*
X1607Y1261D02*
X1614Y1261D01*
X0Y1260D02*
X7Y1260D01*
X1607Y1260D02*
X1614Y1260D01*
X0Y1259D02*
X7Y1259D01*
X1607Y1259D02*
X1614Y1259D01*
X0Y1258D02*
X7Y1258D01*
X1607Y1258D02*
X1614Y1258D01*
X0Y1257D02*
X7Y1257D01*
X1607Y1257D02*
X1614Y1257D01*
X0Y1256D02*
X7Y1256D01*
X1607Y1256D02*
X1614Y1256D01*
X0Y1255D02*
X7Y1255D01*
X1607Y1255D02*
X1614Y1255D01*
X0Y1254D02*
X7Y1254D01*
X1607Y1254D02*
X1614Y1254D01*
X0Y1253D02*
X7Y1253D01*
X1607Y1253D02*
X1614Y1253D01*
X0Y1252D02*
X7Y1252D01*
X1607Y1252D02*
X1614Y1252D01*
X0Y1251D02*
X7Y1251D01*
X1607Y1251D02*
X1614Y1251D01*
X0Y1250D02*
X7Y1250D01*
X1607Y1250D02*
X1614Y1250D01*
X0Y1249D02*
X7Y1249D01*
X1607Y1249D02*
X1614Y1249D01*
X0Y1248D02*
X7Y1248D01*
X1607Y1248D02*
X1614Y1248D01*
X0Y1247D02*
X7Y1247D01*
X1607Y1247D02*
X1614Y1247D01*
X0Y1246D02*
X7Y1246D01*
X1607Y1246D02*
X1614Y1246D01*
X0Y1245D02*
X7Y1245D01*
X1607Y1245D02*
X1614Y1245D01*
X0Y1244D02*
X7Y1244D01*
X1607Y1244D02*
X1614Y1244D01*
X0Y1243D02*
X7Y1243D01*
X1607Y1243D02*
X1614Y1243D01*
X0Y1242D02*
X7Y1242D01*
X1607Y1242D02*
X1614Y1242D01*
X0Y1241D02*
X7Y1241D01*
X1607Y1241D02*
X1614Y1241D01*
X0Y1240D02*
X7Y1240D01*
X1607Y1240D02*
X1614Y1240D01*
X0Y1239D02*
X7Y1239D01*
X1607Y1239D02*
X1614Y1239D01*
X0Y1238D02*
X7Y1238D01*
X1607Y1238D02*
X1614Y1238D01*
X0Y1237D02*
X7Y1237D01*
X1607Y1237D02*
X1614Y1237D01*
X0Y1236D02*
X7Y1236D01*
X1607Y1236D02*
X1614Y1236D01*
X0Y1235D02*
X7Y1235D01*
X1607Y1235D02*
X1614Y1235D01*
X0Y1234D02*
X7Y1234D01*
X1607Y1234D02*
X1614Y1234D01*
X0Y1233D02*
X7Y1233D01*
X1607Y1233D02*
X1614Y1233D01*
X0Y1232D02*
X7Y1232D01*
X1607Y1232D02*
X1614Y1232D01*
X0Y1231D02*
X7Y1231D01*
X1607Y1231D02*
X1614Y1231D01*
X0Y1230D02*
X7Y1230D01*
X1607Y1230D02*
X1614Y1230D01*
X0Y1229D02*
X7Y1229D01*
X1607Y1229D02*
X1614Y1229D01*
X0Y1228D02*
X7Y1228D01*
X1607Y1228D02*
X1614Y1228D01*
X0Y1227D02*
X7Y1227D01*
X1607Y1227D02*
X1614Y1227D01*
X0Y1226D02*
X7Y1226D01*
X1607Y1226D02*
X1614Y1226D01*
X0Y1225D02*
X7Y1225D01*
X1607Y1225D02*
X1614Y1225D01*
X0Y1224D02*
X7Y1224D01*
X1607Y1224D02*
X1614Y1224D01*
X0Y1223D02*
X7Y1223D01*
X1607Y1223D02*
X1614Y1223D01*
X0Y1222D02*
X7Y1222D01*
X1607Y1222D02*
X1614Y1222D01*
X0Y1221D02*
X7Y1221D01*
X1607Y1221D02*
X1614Y1221D01*
X0Y1220D02*
X7Y1220D01*
X1607Y1220D02*
X1614Y1220D01*
X0Y1219D02*
X7Y1219D01*
X1607Y1219D02*
X1614Y1219D01*
X0Y1218D02*
X7Y1218D01*
X1607Y1218D02*
X1614Y1218D01*
X0Y1217D02*
X7Y1217D01*
X1607Y1217D02*
X1614Y1217D01*
X0Y1216D02*
X7Y1216D01*
X1607Y1216D02*
X1614Y1216D01*
X0Y1215D02*
X7Y1215D01*
X1607Y1215D02*
X1614Y1215D01*
X0Y1214D02*
X7Y1214D01*
X1607Y1214D02*
X1614Y1214D01*
X0Y1213D02*
X7Y1213D01*
X1607Y1213D02*
X1614Y1213D01*
X0Y1212D02*
X7Y1212D01*
X1607Y1212D02*
X1614Y1212D01*
X0Y1211D02*
X7Y1211D01*
X1607Y1211D02*
X1614Y1211D01*
X0Y1210D02*
X7Y1210D01*
X1607Y1210D02*
X1614Y1210D01*
X0Y1209D02*
X7Y1209D01*
X1607Y1209D02*
X1614Y1209D01*
X0Y1208D02*
X7Y1208D01*
X1607Y1208D02*
X1614Y1208D01*
X0Y1207D02*
X7Y1207D01*
X1607Y1207D02*
X1614Y1207D01*
X0Y1206D02*
X7Y1206D01*
X1607Y1206D02*
X1614Y1206D01*
X0Y1205D02*
X7Y1205D01*
X1607Y1205D02*
X1614Y1205D01*
X0Y1204D02*
X7Y1204D01*
X1607Y1204D02*
X1614Y1204D01*
X0Y1203D02*
X7Y1203D01*
X1607Y1203D02*
X1614Y1203D01*
X0Y1202D02*
X7Y1202D01*
X1607Y1202D02*
X1614Y1202D01*
X0Y1201D02*
X7Y1201D01*
X1607Y1201D02*
X1614Y1201D01*
X0Y1200D02*
X7Y1200D01*
X1607Y1200D02*
X1614Y1200D01*
X0Y1199D02*
X7Y1199D01*
X1607Y1199D02*
X1614Y1199D01*
X0Y1198D02*
X7Y1198D01*
X1607Y1198D02*
X1614Y1198D01*
X0Y1197D02*
X7Y1197D01*
X1607Y1197D02*
X1614Y1197D01*
X0Y1196D02*
X7Y1196D01*
X1607Y1196D02*
X1614Y1196D01*
X0Y1195D02*
X7Y1195D01*
X1607Y1195D02*
X1614Y1195D01*
X0Y1194D02*
X7Y1194D01*
X1607Y1194D02*
X1614Y1194D01*
X0Y1193D02*
X7Y1193D01*
X1607Y1193D02*
X1614Y1193D01*
X0Y1192D02*
X7Y1192D01*
X1607Y1192D02*
X1614Y1192D01*
X0Y1191D02*
X7Y1191D01*
X1607Y1191D02*
X1614Y1191D01*
X0Y1190D02*
X7Y1190D01*
X1607Y1190D02*
X1614Y1190D01*
X0Y1189D02*
X7Y1189D01*
X1607Y1189D02*
X1614Y1189D01*
X0Y1188D02*
X7Y1188D01*
X1607Y1188D02*
X1614Y1188D01*
X0Y1187D02*
X7Y1187D01*
X1607Y1187D02*
X1614Y1187D01*
X0Y1186D02*
X7Y1186D01*
X1607Y1186D02*
X1614Y1186D01*
X0Y1185D02*
X7Y1185D01*
X1607Y1185D02*
X1614Y1185D01*
X0Y1184D02*
X7Y1184D01*
X1607Y1184D02*
X1614Y1184D01*
X0Y1183D02*
X7Y1183D01*
X1607Y1183D02*
X1614Y1183D01*
X0Y1182D02*
X7Y1182D01*
X1607Y1182D02*
X1614Y1182D01*
X0Y1181D02*
X7Y1181D01*
X1607Y1181D02*
X1614Y1181D01*
X0Y1180D02*
X7Y1180D01*
X1607Y1180D02*
X1614Y1180D01*
X0Y1179D02*
X7Y1179D01*
X1607Y1179D02*
X1614Y1179D01*
X0Y1178D02*
X7Y1178D01*
X1607Y1178D02*
X1614Y1178D01*
X0Y1177D02*
X7Y1177D01*
X1607Y1177D02*
X1614Y1177D01*
X0Y1176D02*
X7Y1176D01*
X1607Y1176D02*
X1614Y1176D01*
X0Y1175D02*
X7Y1175D01*
X1607Y1175D02*
X1614Y1175D01*
X0Y1174D02*
X7Y1174D01*
X1607Y1174D02*
X1614Y1174D01*
X0Y1173D02*
X7Y1173D01*
X1607Y1173D02*
X1614Y1173D01*
X0Y1172D02*
X7Y1172D01*
X1607Y1172D02*
X1614Y1172D01*
X0Y1171D02*
X7Y1171D01*
X1607Y1171D02*
X1614Y1171D01*
X0Y1170D02*
X7Y1170D01*
X1607Y1170D02*
X1614Y1170D01*
X0Y1169D02*
X7Y1169D01*
X1607Y1169D02*
X1614Y1169D01*
X0Y1168D02*
X7Y1168D01*
X1607Y1168D02*
X1614Y1168D01*
X0Y1167D02*
X7Y1167D01*
X1607Y1167D02*
X1614Y1167D01*
X0Y1166D02*
X7Y1166D01*
X1607Y1166D02*
X1614Y1166D01*
X0Y1165D02*
X7Y1165D01*
X1607Y1165D02*
X1614Y1165D01*
X0Y1164D02*
X7Y1164D01*
X1607Y1164D02*
X1614Y1164D01*
X0Y1163D02*
X7Y1163D01*
X1607Y1163D02*
X1614Y1163D01*
X0Y1162D02*
X7Y1162D01*
X1607Y1162D02*
X1614Y1162D01*
X0Y1161D02*
X7Y1161D01*
X1607Y1161D02*
X1614Y1161D01*
X0Y1160D02*
X7Y1160D01*
X1607Y1160D02*
X1614Y1160D01*
X0Y1159D02*
X7Y1159D01*
X1607Y1159D02*
X1614Y1159D01*
X0Y1158D02*
X7Y1158D01*
X1607Y1158D02*
X1614Y1158D01*
X0Y1157D02*
X7Y1157D01*
X1607Y1157D02*
X1614Y1157D01*
X0Y1156D02*
X7Y1156D01*
X1607Y1156D02*
X1614Y1156D01*
X0Y1155D02*
X7Y1155D01*
X1607Y1155D02*
X1614Y1155D01*
X0Y1154D02*
X7Y1154D01*
X1607Y1154D02*
X1614Y1154D01*
X0Y1153D02*
X7Y1153D01*
X1607Y1153D02*
X1614Y1153D01*
X0Y1152D02*
X7Y1152D01*
X1607Y1152D02*
X1614Y1152D01*
X0Y1151D02*
X7Y1151D01*
X1607Y1151D02*
X1614Y1151D01*
X0Y1150D02*
X7Y1150D01*
X1607Y1150D02*
X1614Y1150D01*
X0Y1149D02*
X7Y1149D01*
X1607Y1149D02*
X1614Y1149D01*
X0Y1148D02*
X7Y1148D01*
X1607Y1148D02*
X1614Y1148D01*
X0Y1147D02*
X7Y1147D01*
X1607Y1147D02*
X1614Y1147D01*
X0Y1146D02*
X7Y1146D01*
X1607Y1146D02*
X1614Y1146D01*
X0Y1145D02*
X7Y1145D01*
X1607Y1145D02*
X1614Y1145D01*
X0Y1144D02*
X7Y1144D01*
X1607Y1144D02*
X1614Y1144D01*
X0Y1143D02*
X7Y1143D01*
X1607Y1143D02*
X1614Y1143D01*
X0Y1142D02*
X7Y1142D01*
X1607Y1142D02*
X1614Y1142D01*
X0Y1141D02*
X7Y1141D01*
X1607Y1141D02*
X1614Y1141D01*
X0Y1140D02*
X7Y1140D01*
X1607Y1140D02*
X1614Y1140D01*
X0Y1139D02*
X7Y1139D01*
X1607Y1139D02*
X1614Y1139D01*
X0Y1138D02*
X7Y1138D01*
X1607Y1138D02*
X1614Y1138D01*
X0Y1137D02*
X7Y1137D01*
X1607Y1137D02*
X1614Y1137D01*
X0Y1136D02*
X7Y1136D01*
X1607Y1136D02*
X1614Y1136D01*
X0Y1135D02*
X7Y1135D01*
X1607Y1135D02*
X1614Y1135D01*
X0Y1134D02*
X7Y1134D01*
X1607Y1134D02*
X1614Y1134D01*
X0Y1133D02*
X7Y1133D01*
X1607Y1133D02*
X1614Y1133D01*
X0Y1132D02*
X7Y1132D01*
X1607Y1132D02*
X1614Y1132D01*
X0Y1131D02*
X7Y1131D01*
X1607Y1131D02*
X1614Y1131D01*
X0Y1130D02*
X7Y1130D01*
X1607Y1130D02*
X1614Y1130D01*
X0Y1129D02*
X7Y1129D01*
X1607Y1129D02*
X1614Y1129D01*
X0Y1128D02*
X7Y1128D01*
X1607Y1128D02*
X1614Y1128D01*
X0Y1127D02*
X7Y1127D01*
X1607Y1127D02*
X1614Y1127D01*
X0Y1126D02*
X7Y1126D01*
X1607Y1126D02*
X1614Y1126D01*
X0Y1125D02*
X7Y1125D01*
X1607Y1125D02*
X1614Y1125D01*
X0Y1124D02*
X7Y1124D01*
X1607Y1124D02*
X1614Y1124D01*
X0Y1123D02*
X7Y1123D01*
X1607Y1123D02*
X1614Y1123D01*
X0Y1122D02*
X7Y1122D01*
X1607Y1122D02*
X1614Y1122D01*
X0Y1121D02*
X7Y1121D01*
X1607Y1121D02*
X1614Y1121D01*
X0Y1120D02*
X7Y1120D01*
X1607Y1120D02*
X1614Y1120D01*
X0Y1119D02*
X7Y1119D01*
X1607Y1119D02*
X1614Y1119D01*
X0Y1118D02*
X7Y1118D01*
X1607Y1118D02*
X1614Y1118D01*
X0Y1117D02*
X7Y1117D01*
X1607Y1117D02*
X1614Y1117D01*
X0Y1116D02*
X7Y1116D01*
X1607Y1116D02*
X1614Y1116D01*
X0Y1115D02*
X7Y1115D01*
X1607Y1115D02*
X1614Y1115D01*
X0Y1114D02*
X7Y1114D01*
X1607Y1114D02*
X1614Y1114D01*
X0Y1113D02*
X7Y1113D01*
X1607Y1113D02*
X1614Y1113D01*
X0Y1112D02*
X7Y1112D01*
X1607Y1112D02*
X1614Y1112D01*
X0Y1111D02*
X7Y1111D01*
X1607Y1111D02*
X1614Y1111D01*
X0Y1110D02*
X7Y1110D01*
X1607Y1110D02*
X1614Y1110D01*
X0Y1109D02*
X7Y1109D01*
X1607Y1109D02*
X1614Y1109D01*
X0Y1108D02*
X7Y1108D01*
X1607Y1108D02*
X1614Y1108D01*
X0Y1107D02*
X7Y1107D01*
X1607Y1107D02*
X1614Y1107D01*
X0Y1106D02*
X7Y1106D01*
X1607Y1106D02*
X1614Y1106D01*
X0Y1105D02*
X7Y1105D01*
X1607Y1105D02*
X1614Y1105D01*
X0Y1104D02*
X7Y1104D01*
X1607Y1104D02*
X1614Y1104D01*
X0Y1103D02*
X7Y1103D01*
X1607Y1103D02*
X1614Y1103D01*
X0Y1102D02*
X7Y1102D01*
X1607Y1102D02*
X1614Y1102D01*
X0Y1101D02*
X7Y1101D01*
X1607Y1101D02*
X1614Y1101D01*
X0Y1100D02*
X7Y1100D01*
X1607Y1100D02*
X1614Y1100D01*
X0Y1099D02*
X7Y1099D01*
X1607Y1099D02*
X1614Y1099D01*
X0Y1098D02*
X7Y1098D01*
X1607Y1098D02*
X1614Y1098D01*
X0Y1097D02*
X7Y1097D01*
X1607Y1097D02*
X1614Y1097D01*
X0Y1096D02*
X7Y1096D01*
X1607Y1096D02*
X1614Y1096D01*
X0Y1095D02*
X7Y1095D01*
X1607Y1095D02*
X1614Y1095D01*
X0Y1094D02*
X7Y1094D01*
X1607Y1094D02*
X1614Y1094D01*
X0Y1093D02*
X7Y1093D01*
X1607Y1093D02*
X1614Y1093D01*
X0Y1092D02*
X7Y1092D01*
X1607Y1092D02*
X1614Y1092D01*
X0Y1091D02*
X7Y1091D01*
X1607Y1091D02*
X1614Y1091D01*
X0Y1090D02*
X7Y1090D01*
X1607Y1090D02*
X1614Y1090D01*
X0Y1089D02*
X7Y1089D01*
X1607Y1089D02*
X1614Y1089D01*
X0Y1088D02*
X7Y1088D01*
X1607Y1088D02*
X1614Y1088D01*
X0Y1087D02*
X7Y1087D01*
X1607Y1087D02*
X1614Y1087D01*
X0Y1086D02*
X7Y1086D01*
X1607Y1086D02*
X1614Y1086D01*
X0Y1085D02*
X7Y1085D01*
X1607Y1085D02*
X1614Y1085D01*
X0Y1084D02*
X7Y1084D01*
X1607Y1084D02*
X1614Y1084D01*
X0Y1083D02*
X7Y1083D01*
X1607Y1083D02*
X1614Y1083D01*
X0Y1082D02*
X7Y1082D01*
X1607Y1082D02*
X1614Y1082D01*
X0Y1081D02*
X7Y1081D01*
X1607Y1081D02*
X1614Y1081D01*
X0Y1080D02*
X7Y1080D01*
X1607Y1080D02*
X1614Y1080D01*
X0Y1079D02*
X7Y1079D01*
X1607Y1079D02*
X1614Y1079D01*
X0Y1078D02*
X7Y1078D01*
X1607Y1078D02*
X1614Y1078D01*
X0Y1077D02*
X7Y1077D01*
X1607Y1077D02*
X1614Y1077D01*
X0Y1076D02*
X7Y1076D01*
X1607Y1076D02*
X1614Y1076D01*
X0Y1075D02*
X7Y1075D01*
X1607Y1075D02*
X1614Y1075D01*
X0Y1074D02*
X7Y1074D01*
X1607Y1074D02*
X1614Y1074D01*
X0Y1073D02*
X7Y1073D01*
X1607Y1073D02*
X1614Y1073D01*
X0Y1072D02*
X7Y1072D01*
X1607Y1072D02*
X1614Y1072D01*
X0Y1071D02*
X7Y1071D01*
X1607Y1071D02*
X1614Y1071D01*
X0Y1070D02*
X7Y1070D01*
X1607Y1070D02*
X1614Y1070D01*
X0Y1069D02*
X7Y1069D01*
X1607Y1069D02*
X1614Y1069D01*
X0Y1068D02*
X7Y1068D01*
X1607Y1068D02*
X1614Y1068D01*
X0Y1067D02*
X7Y1067D01*
X1607Y1067D02*
X1614Y1067D01*
X0Y1066D02*
X7Y1066D01*
X1607Y1066D02*
X1614Y1066D01*
X0Y1065D02*
X7Y1065D01*
X1607Y1065D02*
X1614Y1065D01*
X0Y1064D02*
X7Y1064D01*
X1607Y1064D02*
X1614Y1064D01*
X0Y1063D02*
X7Y1063D01*
X1607Y1063D02*
X1614Y1063D01*
X0Y1062D02*
X7Y1062D01*
X1607Y1062D02*
X1614Y1062D01*
X0Y1061D02*
X7Y1061D01*
X1607Y1061D02*
X1614Y1061D01*
X0Y1060D02*
X7Y1060D01*
X1607Y1060D02*
X1614Y1060D01*
X0Y1059D02*
X7Y1059D01*
X1607Y1059D02*
X1614Y1059D01*
X0Y1058D02*
X7Y1058D01*
X1607Y1058D02*
X1614Y1058D01*
X0Y1057D02*
X7Y1057D01*
X1607Y1057D02*
X1614Y1057D01*
X0Y1056D02*
X7Y1056D01*
X1607Y1056D02*
X1614Y1056D01*
X0Y1055D02*
X7Y1055D01*
X1607Y1055D02*
X1614Y1055D01*
X0Y1054D02*
X7Y1054D01*
X1607Y1054D02*
X1614Y1054D01*
X0Y1053D02*
X7Y1053D01*
X1607Y1053D02*
X1614Y1053D01*
X0Y1052D02*
X7Y1052D01*
X1607Y1052D02*
X1614Y1052D01*
X0Y1051D02*
X7Y1051D01*
X1607Y1051D02*
X1614Y1051D01*
X0Y1050D02*
X7Y1050D01*
X1607Y1050D02*
X1614Y1050D01*
X0Y1049D02*
X7Y1049D01*
X1607Y1049D02*
X1614Y1049D01*
X0Y1048D02*
X7Y1048D01*
X1607Y1048D02*
X1614Y1048D01*
X0Y1047D02*
X7Y1047D01*
X1607Y1047D02*
X1614Y1047D01*
X0Y1046D02*
X7Y1046D01*
X1607Y1046D02*
X1614Y1046D01*
X0Y1045D02*
X7Y1045D01*
X1607Y1045D02*
X1614Y1045D01*
X0Y1044D02*
X7Y1044D01*
X1607Y1044D02*
X1614Y1044D01*
X0Y1043D02*
X7Y1043D01*
X1607Y1043D02*
X1614Y1043D01*
X0Y1042D02*
X7Y1042D01*
X1607Y1042D02*
X1614Y1042D01*
X0Y1041D02*
X7Y1041D01*
X1607Y1041D02*
X1614Y1041D01*
X0Y1040D02*
X7Y1040D01*
X1607Y1040D02*
X1614Y1040D01*
X0Y1039D02*
X7Y1039D01*
X1607Y1039D02*
X1614Y1039D01*
X0Y1038D02*
X7Y1038D01*
X1607Y1038D02*
X1614Y1038D01*
X0Y1037D02*
X7Y1037D01*
X1607Y1037D02*
X1614Y1037D01*
X0Y1036D02*
X7Y1036D01*
X1607Y1036D02*
X1614Y1036D01*
X0Y1035D02*
X7Y1035D01*
X1607Y1035D02*
X1614Y1035D01*
X0Y1034D02*
X7Y1034D01*
X1607Y1034D02*
X1614Y1034D01*
X0Y1033D02*
X7Y1033D01*
X1607Y1033D02*
X1614Y1033D01*
X0Y1032D02*
X7Y1032D01*
X1607Y1032D02*
X1614Y1032D01*
X0Y1031D02*
X7Y1031D01*
X1607Y1031D02*
X1614Y1031D01*
X0Y1030D02*
X7Y1030D01*
X1607Y1030D02*
X1614Y1030D01*
X0Y1029D02*
X7Y1029D01*
X1607Y1029D02*
X1614Y1029D01*
X0Y1028D02*
X7Y1028D01*
X1607Y1028D02*
X1614Y1028D01*
X0Y1027D02*
X7Y1027D01*
X1607Y1027D02*
X1614Y1027D01*
X0Y1026D02*
X7Y1026D01*
X1607Y1026D02*
X1614Y1026D01*
X0Y1025D02*
X7Y1025D01*
X1607Y1025D02*
X1614Y1025D01*
X0Y1024D02*
X7Y1024D01*
X1607Y1024D02*
X1614Y1024D01*
X0Y1023D02*
X7Y1023D01*
X1607Y1023D02*
X1614Y1023D01*
X0Y1022D02*
X7Y1022D01*
X1607Y1022D02*
X1614Y1022D01*
X0Y1021D02*
X7Y1021D01*
X1607Y1021D02*
X1614Y1021D01*
X0Y1020D02*
X7Y1020D01*
X1607Y1020D02*
X1614Y1020D01*
X0Y1019D02*
X7Y1019D01*
X1607Y1019D02*
X1614Y1019D01*
X0Y1018D02*
X7Y1018D01*
X1607Y1018D02*
X1614Y1018D01*
X0Y1017D02*
X7Y1017D01*
X1607Y1017D02*
X1614Y1017D01*
X0Y1016D02*
X7Y1016D01*
X1607Y1016D02*
X1614Y1016D01*
X0Y1015D02*
X7Y1015D01*
X1607Y1015D02*
X1614Y1015D01*
X0Y1014D02*
X7Y1014D01*
X1607Y1014D02*
X1614Y1014D01*
X0Y1013D02*
X7Y1013D01*
X1607Y1013D02*
X1614Y1013D01*
X0Y1012D02*
X7Y1012D01*
X1607Y1012D02*
X1614Y1012D01*
X0Y1011D02*
X7Y1011D01*
X1607Y1011D02*
X1614Y1011D01*
X0Y1010D02*
X7Y1010D01*
X1607Y1010D02*
X1614Y1010D01*
X0Y1009D02*
X7Y1009D01*
X1607Y1009D02*
X1614Y1009D01*
X0Y1008D02*
X7Y1008D01*
X1607Y1008D02*
X1614Y1008D01*
X0Y1007D02*
X7Y1007D01*
X1607Y1007D02*
X1614Y1007D01*
X0Y1006D02*
X7Y1006D01*
X1607Y1006D02*
X1614Y1006D01*
X0Y1005D02*
X7Y1005D01*
X1607Y1005D02*
X1614Y1005D01*
X0Y1004D02*
X7Y1004D01*
X1607Y1004D02*
X1614Y1004D01*
X0Y1003D02*
X7Y1003D01*
X1607Y1003D02*
X1614Y1003D01*
X0Y1002D02*
X7Y1002D01*
X1607Y1002D02*
X1614Y1002D01*
X0Y1001D02*
X7Y1001D01*
X1607Y1001D02*
X1614Y1001D01*
X0Y1000D02*
X7Y1000D01*
X1607Y1000D02*
X1614Y1000D01*
X0Y999D02*
X7Y999D01*
X1607Y999D02*
X1614Y999D01*
X0Y998D02*
X7Y998D01*
X1607Y998D02*
X1614Y998D01*
X0Y997D02*
X7Y997D01*
X1607Y997D02*
X1614Y997D01*
X0Y996D02*
X7Y996D01*
X1607Y996D02*
X1614Y996D01*
X0Y995D02*
X7Y995D01*
X1607Y995D02*
X1614Y995D01*
X0Y994D02*
X7Y994D01*
X1607Y994D02*
X1614Y994D01*
X0Y993D02*
X7Y993D01*
X1607Y993D02*
X1614Y993D01*
X0Y992D02*
X7Y992D01*
X1607Y992D02*
X1614Y992D01*
X0Y991D02*
X7Y991D01*
X1607Y991D02*
X1614Y991D01*
X0Y990D02*
X7Y990D01*
X1607Y990D02*
X1614Y990D01*
X0Y989D02*
X7Y989D01*
X1607Y989D02*
X1614Y989D01*
X0Y988D02*
X7Y988D01*
X1607Y988D02*
X1614Y988D01*
X0Y987D02*
X7Y987D01*
X1607Y987D02*
X1614Y987D01*
X0Y986D02*
X7Y986D01*
X1607Y986D02*
X1614Y986D01*
X0Y985D02*
X7Y985D01*
X1607Y985D02*
X1614Y985D01*
X0Y984D02*
X7Y984D01*
X1607Y984D02*
X1614Y984D01*
X0Y983D02*
X7Y983D01*
X1607Y983D02*
X1614Y983D01*
X0Y982D02*
X7Y982D01*
X1607Y982D02*
X1614Y982D01*
X0Y981D02*
X7Y981D01*
X1607Y981D02*
X1614Y981D01*
X0Y980D02*
X7Y980D01*
X1607Y980D02*
X1614Y980D01*
X0Y979D02*
X7Y979D01*
X1607Y979D02*
X1614Y979D01*
X0Y978D02*
X7Y978D01*
X1607Y978D02*
X1614Y978D01*
X0Y977D02*
X7Y977D01*
X1607Y977D02*
X1614Y977D01*
X0Y976D02*
X7Y976D01*
X1607Y976D02*
X1614Y976D01*
X0Y975D02*
X7Y975D01*
X1607Y975D02*
X1614Y975D01*
X0Y974D02*
X7Y974D01*
X1607Y974D02*
X1614Y974D01*
X0Y973D02*
X7Y973D01*
X1607Y973D02*
X1614Y973D01*
X0Y972D02*
X7Y972D01*
X1607Y972D02*
X1614Y972D01*
X0Y971D02*
X7Y971D01*
X1607Y971D02*
X1614Y971D01*
X0Y970D02*
X7Y970D01*
X1607Y970D02*
X1614Y970D01*
X0Y969D02*
X7Y969D01*
X1607Y969D02*
X1614Y969D01*
X0Y968D02*
X7Y968D01*
X1607Y968D02*
X1614Y968D01*
X0Y967D02*
X7Y967D01*
X1607Y967D02*
X1614Y967D01*
X0Y966D02*
X7Y966D01*
X1607Y966D02*
X1614Y966D01*
X0Y965D02*
X7Y965D01*
X1607Y965D02*
X1614Y965D01*
X0Y964D02*
X7Y964D01*
X1607Y964D02*
X1614Y964D01*
X0Y963D02*
X7Y963D01*
X1607Y963D02*
X1614Y963D01*
X0Y962D02*
X7Y962D01*
X1607Y962D02*
X1614Y962D01*
X0Y961D02*
X7Y961D01*
X1607Y961D02*
X1614Y961D01*
X0Y960D02*
X7Y960D01*
X1607Y960D02*
X1614Y960D01*
X0Y959D02*
X7Y959D01*
X1607Y959D02*
X1614Y959D01*
X0Y958D02*
X7Y958D01*
X1607Y958D02*
X1614Y958D01*
X0Y957D02*
X7Y957D01*
X1607Y957D02*
X1614Y957D01*
X0Y956D02*
X7Y956D01*
X1607Y956D02*
X1614Y956D01*
X0Y955D02*
X7Y955D01*
X1607Y955D02*
X1614Y955D01*
X0Y954D02*
X7Y954D01*
X1607Y954D02*
X1614Y954D01*
X0Y953D02*
X7Y953D01*
X1607Y953D02*
X1614Y953D01*
X0Y952D02*
X7Y952D01*
X1607Y952D02*
X1614Y952D01*
X0Y951D02*
X7Y951D01*
X1607Y951D02*
X1614Y951D01*
X0Y950D02*
X7Y950D01*
X1607Y950D02*
X1614Y950D01*
X0Y949D02*
X7Y949D01*
X1607Y949D02*
X1614Y949D01*
X0Y948D02*
X7Y948D01*
X1607Y948D02*
X1614Y948D01*
X0Y947D02*
X7Y947D01*
X1607Y947D02*
X1614Y947D01*
X0Y946D02*
X7Y946D01*
X1607Y946D02*
X1614Y946D01*
X0Y945D02*
X7Y945D01*
X1607Y945D02*
X1614Y945D01*
X0Y944D02*
X7Y944D01*
X1607Y944D02*
X1614Y944D01*
X0Y943D02*
X7Y943D01*
X1607Y943D02*
X1614Y943D01*
X0Y942D02*
X7Y942D01*
X1607Y942D02*
X1614Y942D01*
X0Y941D02*
X7Y941D01*
X1607Y941D02*
X1614Y941D01*
X0Y940D02*
X7Y940D01*
X1607Y940D02*
X1614Y940D01*
X0Y939D02*
X7Y939D01*
X1607Y939D02*
X1614Y939D01*
X0Y938D02*
X7Y938D01*
X1607Y938D02*
X1614Y938D01*
X0Y937D02*
X7Y937D01*
X1607Y937D02*
X1614Y937D01*
X0Y936D02*
X7Y936D01*
X1607Y936D02*
X1614Y936D01*
X0Y935D02*
X7Y935D01*
X1607Y935D02*
X1614Y935D01*
X0Y934D02*
X7Y934D01*
X1607Y934D02*
X1614Y934D01*
X0Y933D02*
X7Y933D01*
X1607Y933D02*
X1614Y933D01*
X0Y932D02*
X7Y932D01*
X1607Y932D02*
X1614Y932D01*
X0Y931D02*
X7Y931D01*
X1607Y931D02*
X1614Y931D01*
X0Y930D02*
X7Y930D01*
X1607Y930D02*
X1614Y930D01*
X0Y929D02*
X7Y929D01*
X1607Y929D02*
X1614Y929D01*
X0Y928D02*
X7Y928D01*
X1607Y928D02*
X1614Y928D01*
X0Y927D02*
X7Y927D01*
X1607Y927D02*
X1614Y927D01*
X0Y926D02*
X7Y926D01*
X1607Y926D02*
X1614Y926D01*
X0Y925D02*
X7Y925D01*
X1607Y925D02*
X1614Y925D01*
X0Y924D02*
X7Y924D01*
X1607Y924D02*
X1614Y924D01*
X0Y923D02*
X7Y923D01*
X1607Y923D02*
X1614Y923D01*
X0Y922D02*
X7Y922D01*
X1607Y922D02*
X1614Y922D01*
X0Y921D02*
X7Y921D01*
X1607Y921D02*
X1614Y921D01*
X0Y920D02*
X7Y920D01*
X1607Y920D02*
X1614Y920D01*
X0Y919D02*
X7Y919D01*
X1607Y919D02*
X1614Y919D01*
X0Y918D02*
X7Y918D01*
X1607Y918D02*
X1614Y918D01*
X0Y917D02*
X7Y917D01*
X1607Y917D02*
X1614Y917D01*
X0Y916D02*
X7Y916D01*
X1607Y916D02*
X1614Y916D01*
X0Y915D02*
X7Y915D01*
X1607Y915D02*
X1614Y915D01*
X0Y914D02*
X7Y914D01*
X1607Y914D02*
X1614Y914D01*
X0Y913D02*
X7Y913D01*
X1607Y913D02*
X1614Y913D01*
X0Y912D02*
X7Y912D01*
X1607Y912D02*
X1614Y912D01*
X0Y911D02*
X7Y911D01*
X1607Y911D02*
X1614Y911D01*
X0Y910D02*
X7Y910D01*
X1607Y910D02*
X1614Y910D01*
X0Y909D02*
X7Y909D01*
X1607Y909D02*
X1614Y909D01*
X0Y908D02*
X7Y908D01*
X1607Y908D02*
X1614Y908D01*
X0Y907D02*
X7Y907D01*
X1607Y907D02*
X1614Y907D01*
X0Y906D02*
X7Y906D01*
X1607Y906D02*
X1614Y906D01*
X0Y905D02*
X7Y905D01*
X1607Y905D02*
X1614Y905D01*
X0Y904D02*
X7Y904D01*
X1607Y904D02*
X1614Y904D01*
X0Y903D02*
X7Y903D01*
X1607Y903D02*
X1614Y903D01*
X0Y902D02*
X7Y902D01*
X1607Y902D02*
X1614Y902D01*
X0Y901D02*
X7Y901D01*
X1607Y901D02*
X1614Y901D01*
X0Y900D02*
X7Y900D01*
X1607Y900D02*
X1614Y900D01*
X0Y899D02*
X7Y899D01*
X1607Y899D02*
X1614Y899D01*
X0Y898D02*
X7Y898D01*
X1607Y898D02*
X1614Y898D01*
X0Y897D02*
X7Y897D01*
X1607Y897D02*
X1614Y897D01*
X0Y896D02*
X7Y896D01*
X1607Y896D02*
X1614Y896D01*
X0Y895D02*
X7Y895D01*
X1607Y895D02*
X1614Y895D01*
X0Y894D02*
X7Y894D01*
X1607Y894D02*
X1614Y894D01*
X0Y893D02*
X7Y893D01*
X1607Y893D02*
X1614Y893D01*
X0Y892D02*
X7Y892D01*
X1607Y892D02*
X1614Y892D01*
X0Y891D02*
X7Y891D01*
X1607Y891D02*
X1614Y891D01*
X0Y890D02*
X7Y890D01*
X1607Y890D02*
X1614Y890D01*
X0Y889D02*
X7Y889D01*
X1607Y889D02*
X1614Y889D01*
X0Y888D02*
X7Y888D01*
X1607Y888D02*
X1614Y888D01*
X0Y887D02*
X7Y887D01*
X1607Y887D02*
X1614Y887D01*
X0Y886D02*
X7Y886D01*
X1607Y886D02*
X1614Y886D01*
X0Y885D02*
X7Y885D01*
X1607Y885D02*
X1614Y885D01*
X0Y884D02*
X7Y884D01*
X1607Y884D02*
X1614Y884D01*
X0Y883D02*
X7Y883D01*
X1607Y883D02*
X1614Y883D01*
X0Y882D02*
X7Y882D01*
X1607Y882D02*
X1614Y882D01*
X0Y881D02*
X7Y881D01*
X1607Y881D02*
X1614Y881D01*
X0Y880D02*
X7Y880D01*
X1607Y880D02*
X1614Y880D01*
X0Y879D02*
X7Y879D01*
X1607Y879D02*
X1614Y879D01*
X0Y878D02*
X7Y878D01*
X1607Y878D02*
X1614Y878D01*
X0Y877D02*
X7Y877D01*
X1607Y877D02*
X1614Y877D01*
X0Y876D02*
X7Y876D01*
X1607Y876D02*
X1614Y876D01*
X0Y875D02*
X7Y875D01*
X1607Y875D02*
X1614Y875D01*
X0Y874D02*
X7Y874D01*
X1607Y874D02*
X1614Y874D01*
X0Y873D02*
X7Y873D01*
X1607Y873D02*
X1614Y873D01*
X0Y872D02*
X7Y872D01*
X1607Y872D02*
X1614Y872D01*
X0Y871D02*
X7Y871D01*
X1607Y871D02*
X1614Y871D01*
X0Y870D02*
X7Y870D01*
X1607Y870D02*
X1614Y870D01*
X0Y869D02*
X7Y869D01*
X1607Y869D02*
X1614Y869D01*
X0Y868D02*
X7Y868D01*
X1607Y868D02*
X1614Y868D01*
X0Y867D02*
X7Y867D01*
X1607Y867D02*
X1614Y867D01*
X0Y866D02*
X7Y866D01*
X1607Y866D02*
X1614Y866D01*
X0Y865D02*
X7Y865D01*
X1607Y865D02*
X1614Y865D01*
X0Y864D02*
X7Y864D01*
X1607Y864D02*
X1614Y864D01*
X0Y863D02*
X7Y863D01*
X1607Y863D02*
X1614Y863D01*
X0Y862D02*
X7Y862D01*
X1607Y862D02*
X1614Y862D01*
X0Y861D02*
X7Y861D01*
X1607Y861D02*
X1614Y861D01*
X0Y860D02*
X7Y860D01*
X1607Y860D02*
X1614Y860D01*
X0Y859D02*
X7Y859D01*
X1607Y859D02*
X1614Y859D01*
X0Y858D02*
X7Y858D01*
X1607Y858D02*
X1614Y858D01*
X0Y857D02*
X7Y857D01*
X1607Y857D02*
X1614Y857D01*
X0Y856D02*
X7Y856D01*
X1607Y856D02*
X1614Y856D01*
X0Y855D02*
X7Y855D01*
X1607Y855D02*
X1614Y855D01*
X0Y854D02*
X7Y854D01*
X1607Y854D02*
X1614Y854D01*
X0Y853D02*
X7Y853D01*
X1607Y853D02*
X1614Y853D01*
X0Y852D02*
X7Y852D01*
X1607Y852D02*
X1614Y852D01*
X0Y851D02*
X7Y851D01*
X1607Y851D02*
X1614Y851D01*
X0Y850D02*
X7Y850D01*
X1607Y850D02*
X1614Y850D01*
X0Y849D02*
X7Y849D01*
X1607Y849D02*
X1614Y849D01*
X0Y848D02*
X7Y848D01*
X1607Y848D02*
X1614Y848D01*
X0Y847D02*
X7Y847D01*
X1607Y847D02*
X1614Y847D01*
X0Y846D02*
X7Y846D01*
X1607Y846D02*
X1614Y846D01*
X0Y845D02*
X7Y845D01*
X1607Y845D02*
X1614Y845D01*
X0Y844D02*
X7Y844D01*
X1607Y844D02*
X1614Y844D01*
X0Y843D02*
X7Y843D01*
X1607Y843D02*
X1614Y843D01*
X0Y842D02*
X7Y842D01*
X1607Y842D02*
X1614Y842D01*
X0Y841D02*
X7Y841D01*
X1211Y841D02*
X1215Y841D01*
X1237Y841D02*
X1260Y841D01*
X1607Y841D02*
X1614Y841D01*
X0Y840D02*
X7Y840D01*
X1211Y840D02*
X1216Y840D01*
X1236Y840D02*
X1261Y840D01*
X1607Y840D02*
X1614Y840D01*
X0Y839D02*
X7Y839D01*
X1210Y839D02*
X1216Y839D01*
X1235Y839D02*
X1262Y839D01*
X1607Y839D02*
X1614Y839D01*
X0Y838D02*
X7Y838D01*
X1210Y838D02*
X1216Y838D01*
X1235Y838D02*
X1263Y838D01*
X1607Y838D02*
X1614Y838D01*
X0Y837D02*
X7Y837D01*
X1210Y837D02*
X1216Y837D01*
X1234Y837D02*
X1263Y837D01*
X1607Y837D02*
X1614Y837D01*
X0Y836D02*
X7Y836D01*
X1210Y836D02*
X1216Y836D01*
X1234Y836D02*
X1263Y836D01*
X1607Y836D02*
X1614Y836D01*
X0Y835D02*
X7Y835D01*
X1210Y835D02*
X1216Y835D01*
X1234Y835D02*
X1263Y835D01*
X1607Y835D02*
X1614Y835D01*
X0Y834D02*
X7Y834D01*
X1210Y834D02*
X1216Y834D01*
X1234Y834D02*
X1240Y834D01*
X1257Y834D02*
X1263Y834D01*
X1607Y834D02*
X1614Y834D01*
X0Y833D02*
X7Y833D01*
X1210Y833D02*
X1216Y833D01*
X1234Y833D02*
X1240Y833D01*
X1257Y833D02*
X1263Y833D01*
X1607Y833D02*
X1614Y833D01*
X0Y832D02*
X7Y832D01*
X1210Y832D02*
X1216Y832D01*
X1234Y832D02*
X1240Y832D01*
X1257Y832D02*
X1263Y832D01*
X1607Y832D02*
X1614Y832D01*
X0Y831D02*
X7Y831D01*
X1210Y831D02*
X1216Y831D01*
X1234Y831D02*
X1240Y831D01*
X1257Y831D02*
X1263Y831D01*
X1607Y831D02*
X1614Y831D01*
X0Y830D02*
X7Y830D01*
X1210Y830D02*
X1216Y830D01*
X1234Y830D02*
X1240Y830D01*
X1257Y830D02*
X1263Y830D01*
X1607Y830D02*
X1614Y830D01*
X0Y829D02*
X7Y829D01*
X1210Y829D02*
X1216Y829D01*
X1234Y829D02*
X1240Y829D01*
X1257Y829D02*
X1263Y829D01*
X1607Y829D02*
X1614Y829D01*
X0Y828D02*
X7Y828D01*
X1210Y828D02*
X1216Y828D01*
X1234Y828D02*
X1240Y828D01*
X1257Y828D02*
X1263Y828D01*
X1607Y828D02*
X1614Y828D01*
X0Y827D02*
X7Y827D01*
X1210Y827D02*
X1216Y827D01*
X1234Y827D02*
X1240Y827D01*
X1257Y827D02*
X1263Y827D01*
X1607Y827D02*
X1614Y827D01*
X0Y826D02*
X7Y826D01*
X1210Y826D02*
X1216Y826D01*
X1234Y826D02*
X1240Y826D01*
X1257Y826D02*
X1263Y826D01*
X1607Y826D02*
X1614Y826D01*
X0Y825D02*
X7Y825D01*
X1210Y825D02*
X1216Y825D01*
X1234Y825D02*
X1240Y825D01*
X1257Y825D02*
X1263Y825D01*
X1607Y825D02*
X1614Y825D01*
X0Y824D02*
X7Y824D01*
X1210Y824D02*
X1216Y824D01*
X1234Y824D02*
X1240Y824D01*
X1257Y824D02*
X1263Y824D01*
X1607Y824D02*
X1614Y824D01*
X0Y823D02*
X7Y823D01*
X1210Y823D02*
X1216Y823D01*
X1234Y823D02*
X1240Y823D01*
X1257Y823D02*
X1263Y823D01*
X1607Y823D02*
X1614Y823D01*
X0Y822D02*
X7Y822D01*
X1210Y822D02*
X1216Y822D01*
X1234Y822D02*
X1240Y822D01*
X1257Y822D02*
X1263Y822D01*
X1607Y822D02*
X1614Y822D01*
X0Y821D02*
X7Y821D01*
X1210Y821D02*
X1216Y821D01*
X1234Y821D02*
X1240Y821D01*
X1257Y821D02*
X1263Y821D01*
X1607Y821D02*
X1614Y821D01*
X0Y820D02*
X7Y820D01*
X1210Y820D02*
X1216Y820D01*
X1234Y820D02*
X1240Y820D01*
X1257Y820D02*
X1263Y820D01*
X1607Y820D02*
X1614Y820D01*
X0Y819D02*
X7Y819D01*
X1210Y819D02*
X1216Y819D01*
X1234Y819D02*
X1240Y819D01*
X1257Y819D02*
X1263Y819D01*
X1607Y819D02*
X1614Y819D01*
X0Y818D02*
X7Y818D01*
X1210Y818D02*
X1216Y818D01*
X1234Y818D02*
X1240Y818D01*
X1257Y818D02*
X1263Y818D01*
X1607Y818D02*
X1614Y818D01*
X0Y817D02*
X7Y817D01*
X1210Y817D02*
X1216Y817D01*
X1234Y817D02*
X1240Y817D01*
X1257Y817D02*
X1263Y817D01*
X1607Y817D02*
X1614Y817D01*
X0Y816D02*
X7Y816D01*
X1210Y816D02*
X1216Y816D01*
X1234Y816D02*
X1240Y816D01*
X1257Y816D02*
X1263Y816D01*
X1607Y816D02*
X1614Y816D01*
X0Y815D02*
X7Y815D01*
X1210Y815D02*
X1216Y815D01*
X1234Y815D02*
X1240Y815D01*
X1257Y815D02*
X1263Y815D01*
X1607Y815D02*
X1614Y815D01*
X0Y814D02*
X7Y814D01*
X1210Y814D02*
X1240Y814D01*
X1257Y814D02*
X1263Y814D01*
X1607Y814D02*
X1614Y814D01*
X0Y813D02*
X7Y813D01*
X1210Y813D02*
X1240Y813D01*
X1257Y813D02*
X1263Y813D01*
X1607Y813D02*
X1614Y813D01*
X0Y812D02*
X7Y812D01*
X1210Y812D02*
X1239Y812D01*
X1257Y812D02*
X1263Y812D01*
X1607Y812D02*
X1614Y812D01*
X0Y811D02*
X7Y811D01*
X1210Y811D02*
X1239Y811D01*
X1257Y811D02*
X1263Y811D01*
X1607Y811D02*
X1614Y811D01*
X0Y810D02*
X7Y810D01*
X1210Y810D02*
X1238Y810D01*
X1257Y810D02*
X1263Y810D01*
X1607Y810D02*
X1614Y810D01*
X0Y809D02*
X7Y809D01*
X1210Y809D02*
X1237Y809D01*
X1258Y809D02*
X1263Y809D01*
X1607Y809D02*
X1614Y809D01*
X0Y808D02*
X7Y808D01*
X1210Y808D02*
X1236Y808D01*
X1259Y808D02*
X1262Y808D01*
X1607Y808D02*
X1614Y808D01*
X0Y807D02*
X7Y807D01*
X1607Y807D02*
X1614Y807D01*
X0Y806D02*
X7Y806D01*
X1607Y806D02*
X1614Y806D01*
X0Y805D02*
X7Y805D01*
X1607Y805D02*
X1614Y805D01*
X0Y804D02*
X7Y804D01*
X1607Y804D02*
X1614Y804D01*
X0Y803D02*
X7Y803D01*
X1607Y803D02*
X1614Y803D01*
X0Y802D02*
X7Y802D01*
X1607Y802D02*
X1614Y802D01*
X0Y801D02*
X7Y801D01*
X1607Y801D02*
X1614Y801D01*
X0Y800D02*
X7Y800D01*
X1607Y800D02*
X1614Y800D01*
X0Y799D02*
X7Y799D01*
X1607Y799D02*
X1614Y799D01*
X0Y798D02*
X7Y798D01*
X1607Y798D02*
X1614Y798D01*
X0Y797D02*
X7Y797D01*
X1607Y797D02*
X1614Y797D01*
X0Y796D02*
X7Y796D01*
X1607Y796D02*
X1614Y796D01*
X0Y795D02*
X7Y795D01*
X1607Y795D02*
X1614Y795D01*
X0Y794D02*
X7Y794D01*
X1607Y794D02*
X1614Y794D01*
X0Y793D02*
X7Y793D01*
X1607Y793D02*
X1614Y793D01*
X0Y792D02*
X7Y792D01*
X1607Y792D02*
X1614Y792D01*
X0Y791D02*
X7Y791D01*
X1607Y791D02*
X1614Y791D01*
X0Y790D02*
X7Y790D01*
X1607Y790D02*
X1614Y790D01*
X0Y789D02*
X7Y789D01*
X1607Y789D02*
X1614Y789D01*
X0Y788D02*
X7Y788D01*
X1218Y788D02*
X1262Y788D01*
X1607Y788D02*
X1614Y788D01*
X0Y787D02*
X7Y787D01*
X1215Y787D02*
X1263Y787D01*
X1607Y787D02*
X1614Y787D01*
X0Y786D02*
X7Y786D01*
X1214Y786D02*
X1263Y786D01*
X1607Y786D02*
X1614Y786D01*
X0Y785D02*
X7Y785D01*
X1213Y785D02*
X1263Y785D01*
X1607Y785D02*
X1614Y785D01*
X0Y784D02*
X7Y784D01*
X1212Y784D02*
X1263Y784D01*
X1607Y784D02*
X1614Y784D01*
X0Y783D02*
X7Y783D01*
X1212Y783D02*
X1263Y783D01*
X1607Y783D02*
X1614Y783D01*
X0Y782D02*
X7Y782D01*
X1211Y782D02*
X1262Y782D01*
X1607Y782D02*
X1614Y782D01*
X0Y781D02*
X7Y781D01*
X1211Y781D02*
X1218Y781D01*
X1607Y781D02*
X1614Y781D01*
X0Y780D02*
X7Y780D01*
X1210Y780D02*
X1217Y780D01*
X1607Y780D02*
X1614Y780D01*
X0Y779D02*
X7Y779D01*
X1210Y779D02*
X1216Y779D01*
X1607Y779D02*
X1614Y779D01*
X0Y778D02*
X7Y778D01*
X1210Y778D02*
X1216Y778D01*
X1607Y778D02*
X1614Y778D01*
X0Y777D02*
X7Y777D01*
X1210Y777D02*
X1216Y777D01*
X1607Y777D02*
X1614Y777D01*
X0Y776D02*
X7Y776D01*
X1210Y776D02*
X1216Y776D01*
X1607Y776D02*
X1614Y776D01*
X0Y775D02*
X7Y775D01*
X1210Y775D02*
X1216Y775D01*
X1607Y775D02*
X1614Y775D01*
X0Y774D02*
X7Y774D01*
X1210Y774D02*
X1216Y774D01*
X1607Y774D02*
X1614Y774D01*
X0Y773D02*
X7Y773D01*
X1210Y773D02*
X1216Y773D01*
X1607Y773D02*
X1614Y773D01*
X0Y772D02*
X7Y772D01*
X1210Y772D02*
X1216Y772D01*
X1607Y772D02*
X1614Y772D01*
X0Y771D02*
X7Y771D01*
X1210Y771D02*
X1216Y771D01*
X1607Y771D02*
X1614Y771D01*
X0Y770D02*
X7Y770D01*
X1210Y770D02*
X1217Y770D01*
X1607Y770D02*
X1614Y770D01*
X0Y769D02*
X7Y769D01*
X1210Y769D02*
X1217Y769D01*
X1607Y769D02*
X1614Y769D01*
X0Y768D02*
X7Y768D01*
X1211Y768D02*
X1219Y768D01*
X1607Y768D02*
X1614Y768D01*
X0Y767D02*
X7Y767D01*
X1211Y767D02*
X1233Y767D01*
X1607Y767D02*
X1614Y767D01*
X0Y766D02*
X7Y766D01*
X1212Y766D02*
X1233Y766D01*
X1607Y766D02*
X1614Y766D01*
X0Y765D02*
X7Y765D01*
X1212Y765D02*
X1234Y765D01*
X1607Y765D02*
X1614Y765D01*
X0Y764D02*
X7Y764D01*
X1213Y764D02*
X1234Y764D01*
X1607Y764D02*
X1614Y764D01*
X0Y763D02*
X7Y763D01*
X1214Y763D02*
X1234Y763D01*
X1607Y763D02*
X1614Y763D01*
X0Y762D02*
X7Y762D01*
X1216Y762D02*
X1233Y762D01*
X1607Y762D02*
X1614Y762D01*
X0Y761D02*
X7Y761D01*
X1219Y761D02*
X1231Y761D01*
X1607Y761D02*
X1614Y761D01*
X0Y760D02*
X7Y760D01*
X1607Y760D02*
X1614Y760D01*
X0Y759D02*
X7Y759D01*
X1607Y759D02*
X1614Y759D01*
X0Y758D02*
X7Y758D01*
X1607Y758D02*
X1614Y758D01*
X0Y757D02*
X7Y757D01*
X1607Y757D02*
X1614Y757D01*
X0Y756D02*
X7Y756D01*
X1607Y756D02*
X1614Y756D01*
X0Y755D02*
X7Y755D01*
X1607Y755D02*
X1614Y755D01*
X0Y754D02*
X7Y754D01*
X1607Y754D02*
X1614Y754D01*
X0Y753D02*
X7Y753D01*
X1607Y753D02*
X1614Y753D01*
X0Y752D02*
X7Y752D01*
X1607Y752D02*
X1614Y752D01*
X0Y751D02*
X7Y751D01*
X1607Y751D02*
X1614Y751D01*
X0Y750D02*
X7Y750D01*
X1607Y750D02*
X1614Y750D01*
X0Y749D02*
X7Y749D01*
X1607Y749D02*
X1614Y749D01*
X0Y748D02*
X7Y748D01*
X1607Y748D02*
X1614Y748D01*
X0Y747D02*
X7Y747D01*
X1607Y747D02*
X1614Y747D01*
X0Y746D02*
X7Y746D01*
X1607Y746D02*
X1614Y746D01*
X0Y745D02*
X7Y745D01*
X1607Y745D02*
X1614Y745D01*
X0Y744D02*
X7Y744D01*
X1607Y744D02*
X1614Y744D01*
X0Y743D02*
X7Y743D01*
X1607Y743D02*
X1614Y743D01*
X0Y742D02*
X7Y742D01*
X1607Y742D02*
X1614Y742D01*
X0Y741D02*
X7Y741D01*
X1607Y741D02*
X1614Y741D01*
X0Y740D02*
X7Y740D01*
X1607Y740D02*
X1614Y740D01*
X0Y739D02*
X7Y739D01*
X1607Y739D02*
X1614Y739D01*
X0Y738D02*
X7Y738D01*
X1607Y738D02*
X1614Y738D01*
X0Y737D02*
X7Y737D01*
X1607Y737D02*
X1614Y737D01*
X0Y736D02*
X7Y736D01*
X1607Y736D02*
X1614Y736D01*
X0Y735D02*
X7Y735D01*
X1607Y735D02*
X1614Y735D01*
X0Y734D02*
X7Y734D01*
X1607Y734D02*
X1614Y734D01*
X0Y733D02*
X7Y733D01*
X1607Y733D02*
X1614Y733D01*
X0Y732D02*
X7Y732D01*
X1607Y732D02*
X1614Y732D01*
X0Y731D02*
X7Y731D01*
X1607Y731D02*
X1614Y731D01*
X0Y730D02*
X7Y730D01*
X1607Y730D02*
X1614Y730D01*
X0Y729D02*
X7Y729D01*
X1607Y729D02*
X1614Y729D01*
X0Y728D02*
X7Y728D01*
X1607Y728D02*
X1614Y728D01*
X0Y727D02*
X7Y727D01*
X1607Y727D02*
X1614Y727D01*
X0Y726D02*
X7Y726D01*
X1607Y726D02*
X1614Y726D01*
X0Y725D02*
X7Y725D01*
X1607Y725D02*
X1614Y725D01*
X0Y724D02*
X7Y724D01*
X1607Y724D02*
X1614Y724D01*
X0Y723D02*
X7Y723D01*
X1607Y723D02*
X1614Y723D01*
X0Y722D02*
X7Y722D01*
X1607Y722D02*
X1614Y722D01*
X0Y721D02*
X7Y721D01*
X1607Y721D02*
X1614Y721D01*
X0Y720D02*
X7Y720D01*
X1607Y720D02*
X1614Y720D01*
X0Y719D02*
X7Y719D01*
X1607Y719D02*
X1614Y719D01*
X0Y718D02*
X7Y718D01*
X1607Y718D02*
X1614Y718D01*
X0Y717D02*
X7Y717D01*
X1607Y717D02*
X1614Y717D01*
X0Y716D02*
X7Y716D01*
X1607Y716D02*
X1614Y716D01*
X0Y715D02*
X7Y715D01*
X1607Y715D02*
X1614Y715D01*
X0Y714D02*
X7Y714D01*
X1607Y714D02*
X1614Y714D01*
X0Y713D02*
X7Y713D01*
X1607Y713D02*
X1614Y713D01*
X0Y712D02*
X7Y712D01*
X1607Y712D02*
X1614Y712D01*
X0Y711D02*
X7Y711D01*
X1607Y711D02*
X1614Y711D01*
X0Y710D02*
X7Y710D01*
X1607Y710D02*
X1614Y710D01*
X0Y709D02*
X7Y709D01*
X1607Y709D02*
X1614Y709D01*
X0Y708D02*
X7Y708D01*
X1607Y708D02*
X1614Y708D01*
X0Y707D02*
X7Y707D01*
X1607Y707D02*
X1614Y707D01*
X0Y706D02*
X7Y706D01*
X1607Y706D02*
X1614Y706D01*
X0Y705D02*
X7Y705D01*
X1607Y705D02*
X1614Y705D01*
X0Y704D02*
X7Y704D01*
X1607Y704D02*
X1614Y704D01*
X0Y703D02*
X7Y703D01*
X1607Y703D02*
X1614Y703D01*
X0Y702D02*
X7Y702D01*
X1607Y702D02*
X1614Y702D01*
X0Y701D02*
X7Y701D01*
X1607Y701D02*
X1614Y701D01*
X0Y700D02*
X7Y700D01*
X1607Y700D02*
X1614Y700D01*
X0Y699D02*
X7Y699D01*
X1607Y699D02*
X1614Y699D01*
X0Y698D02*
X7Y698D01*
X1607Y698D02*
X1614Y698D01*
X0Y697D02*
X7Y697D01*
X1607Y697D02*
X1614Y697D01*
X0Y696D02*
X7Y696D01*
X1607Y696D02*
X1614Y696D01*
X0Y695D02*
X7Y695D01*
X1607Y695D02*
X1614Y695D01*
X0Y694D02*
X7Y694D01*
X1607Y694D02*
X1614Y694D01*
X0Y693D02*
X7Y693D01*
X1607Y693D02*
X1614Y693D01*
X0Y692D02*
X7Y692D01*
X1607Y692D02*
X1614Y692D01*
X0Y691D02*
X7Y691D01*
X1607Y691D02*
X1614Y691D01*
X0Y690D02*
X7Y690D01*
X1607Y690D02*
X1614Y690D01*
X0Y689D02*
X7Y689D01*
X1607Y689D02*
X1614Y689D01*
X0Y688D02*
X7Y688D01*
X1607Y688D02*
X1614Y688D01*
X0Y687D02*
X7Y687D01*
X1607Y687D02*
X1614Y687D01*
X0Y686D02*
X7Y686D01*
X1607Y686D02*
X1614Y686D01*
X0Y685D02*
X7Y685D01*
X1607Y685D02*
X1614Y685D01*
X0Y684D02*
X7Y684D01*
X1607Y684D02*
X1614Y684D01*
X0Y683D02*
X7Y683D01*
X1607Y683D02*
X1614Y683D01*
X0Y682D02*
X7Y682D01*
X1607Y682D02*
X1614Y682D01*
X0Y681D02*
X7Y681D01*
X1607Y681D02*
X1614Y681D01*
X0Y680D02*
X7Y680D01*
X1607Y680D02*
X1614Y680D01*
X0Y679D02*
X7Y679D01*
X1607Y679D02*
X1614Y679D01*
X0Y678D02*
X7Y678D01*
X1607Y678D02*
X1614Y678D01*
X0Y677D02*
X7Y677D01*
X1607Y677D02*
X1614Y677D01*
X0Y676D02*
X7Y676D01*
X1607Y676D02*
X1614Y676D01*
X0Y675D02*
X7Y675D01*
X1607Y675D02*
X1614Y675D01*
X0Y674D02*
X7Y674D01*
X1607Y674D02*
X1614Y674D01*
X0Y673D02*
X7Y673D01*
X1607Y673D02*
X1614Y673D01*
X0Y672D02*
X7Y672D01*
X1607Y672D02*
X1614Y672D01*
X0Y671D02*
X7Y671D01*
X1607Y671D02*
X1614Y671D01*
X0Y670D02*
X7Y670D01*
X1607Y670D02*
X1614Y670D01*
X0Y669D02*
X7Y669D01*
X1607Y669D02*
X1614Y669D01*
X0Y668D02*
X7Y668D01*
X1607Y668D02*
X1614Y668D01*
X0Y667D02*
X7Y667D01*
X1607Y667D02*
X1614Y667D01*
X0Y666D02*
X7Y666D01*
X1162Y666D02*
X1162Y666D01*
X1607Y666D02*
X1614Y666D01*
X0Y665D02*
X7Y665D01*
X1161Y665D02*
X1163Y665D01*
X1607Y665D02*
X1614Y665D01*
X0Y664D02*
X7Y664D01*
X1160Y664D02*
X1164Y664D01*
X1607Y664D02*
X1614Y664D01*
X0Y663D02*
X7Y663D01*
X1159Y663D02*
X1165Y663D01*
X1607Y663D02*
X1614Y663D01*
X0Y662D02*
X7Y662D01*
X1158Y662D02*
X1164Y662D01*
X1607Y662D02*
X1614Y662D01*
X0Y661D02*
X7Y661D01*
X1157Y661D02*
X1163Y661D01*
X1607Y661D02*
X1614Y661D01*
X0Y660D02*
X7Y660D01*
X1156Y660D02*
X1162Y660D01*
X1607Y660D02*
X1614Y660D01*
X0Y659D02*
X7Y659D01*
X1155Y659D02*
X1161Y659D01*
X1607Y659D02*
X1614Y659D01*
X0Y658D02*
X7Y658D01*
X1154Y658D02*
X1160Y658D01*
X1607Y658D02*
X1614Y658D01*
X0Y657D02*
X7Y657D01*
X1153Y657D02*
X1159Y657D01*
X1607Y657D02*
X1614Y657D01*
X0Y656D02*
X7Y656D01*
X1152Y656D02*
X1158Y656D01*
X1607Y656D02*
X1614Y656D01*
X0Y655D02*
X7Y655D01*
X1151Y655D02*
X1157Y655D01*
X1607Y655D02*
X1614Y655D01*
X0Y654D02*
X7Y654D01*
X1150Y654D02*
X1156Y654D01*
X1607Y654D02*
X1614Y654D01*
X0Y653D02*
X7Y653D01*
X1149Y653D02*
X1155Y653D01*
X1607Y653D02*
X1614Y653D01*
X0Y652D02*
X7Y652D01*
X1149Y652D02*
X1154Y652D01*
X1607Y652D02*
X1614Y652D01*
X0Y651D02*
X7Y651D01*
X1148Y651D02*
X1153Y651D01*
X1607Y651D02*
X1614Y651D01*
X0Y650D02*
X7Y650D01*
X1147Y650D02*
X1152Y650D01*
X1607Y650D02*
X1614Y650D01*
X0Y649D02*
X7Y649D01*
X1146Y649D02*
X1151Y649D01*
X1607Y649D02*
X1614Y649D01*
X0Y648D02*
X7Y648D01*
X1145Y648D02*
X1150Y648D01*
X1607Y648D02*
X1614Y648D01*
X0Y647D02*
X7Y647D01*
X1144Y647D02*
X1149Y647D01*
X1607Y647D02*
X1614Y647D01*
X0Y646D02*
X7Y646D01*
X1143Y646D02*
X1148Y646D01*
X1607Y646D02*
X1614Y646D01*
X0Y645D02*
X7Y645D01*
X1142Y645D02*
X1147Y645D01*
X1607Y645D02*
X1614Y645D01*
X0Y644D02*
X7Y644D01*
X1140Y644D02*
X1146Y644D01*
X1607Y644D02*
X1614Y644D01*
X0Y643D02*
X7Y643D01*
X1139Y643D02*
X1145Y643D01*
X1607Y643D02*
X1614Y643D01*
X0Y642D02*
X7Y642D01*
X1138Y642D02*
X1144Y642D01*
X1607Y642D02*
X1614Y642D01*
X0Y641D02*
X7Y641D01*
X1137Y641D02*
X1143Y641D01*
X1607Y641D02*
X1614Y641D01*
X0Y640D02*
X7Y640D01*
X1136Y640D02*
X1142Y640D01*
X1607Y640D02*
X1614Y640D01*
X0Y639D02*
X7Y639D01*
X1135Y639D02*
X1141Y639D01*
X1607Y639D02*
X1614Y639D01*
X0Y638D02*
X7Y638D01*
X1134Y638D02*
X1140Y638D01*
X1607Y638D02*
X1614Y638D01*
X0Y637D02*
X7Y637D01*
X1133Y637D02*
X1139Y637D01*
X1607Y637D02*
X1614Y637D01*
X0Y636D02*
X7Y636D01*
X1132Y636D02*
X1138Y636D01*
X1607Y636D02*
X1614Y636D01*
X0Y635D02*
X7Y635D01*
X1131Y635D02*
X1137Y635D01*
X1607Y635D02*
X1614Y635D01*
X0Y634D02*
X7Y634D01*
X1130Y634D02*
X1136Y634D01*
X1607Y634D02*
X1614Y634D01*
X0Y633D02*
X7Y633D01*
X1129Y633D02*
X1135Y633D01*
X1607Y633D02*
X1614Y633D01*
X0Y632D02*
X7Y632D01*
X1128Y632D02*
X1134Y632D01*
X1607Y632D02*
X1614Y632D01*
X0Y631D02*
X7Y631D01*
X1128Y631D02*
X1133Y631D01*
X1607Y631D02*
X1614Y631D01*
X0Y630D02*
X7Y630D01*
X1129Y630D02*
X1132Y630D01*
X1607Y630D02*
X1614Y630D01*
X0Y629D02*
X7Y629D01*
X1130Y629D02*
X1131Y629D01*
X1607Y629D02*
X1614Y629D01*
X0Y628D02*
X7Y628D01*
X1607Y628D02*
X1614Y628D01*
X0Y627D02*
X7Y627D01*
X1607Y627D02*
X1614Y627D01*
X0Y626D02*
X7Y626D01*
X1607Y626D02*
X1614Y626D01*
X0Y625D02*
X7Y625D01*
X1607Y625D02*
X1614Y625D01*
X0Y624D02*
X7Y624D01*
X1607Y624D02*
X1614Y624D01*
X0Y623D02*
X7Y623D01*
X1607Y623D02*
X1614Y623D01*
X0Y622D02*
X7Y622D01*
X1607Y622D02*
X1614Y622D01*
X0Y621D02*
X7Y621D01*
X1607Y621D02*
X1614Y621D01*
X0Y620D02*
X7Y620D01*
X1607Y620D02*
X1614Y620D01*
X0Y619D02*
X7Y619D01*
X1607Y619D02*
X1614Y619D01*
X0Y618D02*
X7Y618D01*
X1607Y618D02*
X1614Y618D01*
X0Y617D02*
X7Y617D01*
X1607Y617D02*
X1614Y617D01*
X0Y616D02*
X7Y616D01*
X1607Y616D02*
X1614Y616D01*
X0Y615D02*
X7Y615D01*
X1607Y615D02*
X1614Y615D01*
X0Y614D02*
X7Y614D01*
X1607Y614D02*
X1614Y614D01*
X0Y613D02*
X7Y613D01*
X1607Y613D02*
X1614Y613D01*
X0Y612D02*
X7Y612D01*
X1607Y612D02*
X1614Y612D01*
X0Y611D02*
X7Y611D01*
X1607Y611D02*
X1614Y611D01*
X0Y610D02*
X7Y610D01*
X1607Y610D02*
X1614Y610D01*
X0Y609D02*
X7Y609D01*
X1607Y609D02*
X1614Y609D01*
X0Y608D02*
X7Y608D01*
X1607Y608D02*
X1614Y608D01*
X0Y607D02*
X7Y607D01*
X1607Y607D02*
X1614Y607D01*
X0Y606D02*
X7Y606D01*
X1607Y606D02*
X1614Y606D01*
X0Y605D02*
X7Y605D01*
X1607Y605D02*
X1614Y605D01*
X0Y604D02*
X7Y604D01*
X1607Y604D02*
X1614Y604D01*
X0Y603D02*
X7Y603D01*
X1607Y603D02*
X1614Y603D01*
X0Y602D02*
X7Y602D01*
X1607Y602D02*
X1614Y602D01*
X0Y601D02*
X7Y601D01*
X1607Y601D02*
X1614Y601D01*
X0Y600D02*
X7Y600D01*
X1607Y600D02*
X1614Y600D01*
X0Y599D02*
X7Y599D01*
X1607Y599D02*
X1614Y599D01*
X0Y598D02*
X7Y598D01*
X1607Y598D02*
X1614Y598D01*
X0Y597D02*
X7Y597D01*
X1607Y597D02*
X1614Y597D01*
X0Y596D02*
X7Y596D01*
X1607Y596D02*
X1614Y596D01*
X0Y595D02*
X7Y595D01*
X1607Y595D02*
X1614Y595D01*
X0Y594D02*
X7Y594D01*
X1607Y594D02*
X1614Y594D01*
X0Y593D02*
X7Y593D01*
X1607Y593D02*
X1614Y593D01*
X0Y592D02*
X7Y592D01*
X1607Y592D02*
X1614Y592D01*
X0Y591D02*
X7Y591D01*
X1607Y591D02*
X1614Y591D01*
X0Y590D02*
X7Y590D01*
X1607Y590D02*
X1614Y590D01*
X0Y589D02*
X7Y589D01*
X1607Y589D02*
X1614Y589D01*
X0Y588D02*
X7Y588D01*
X1607Y588D02*
X1614Y588D01*
X0Y587D02*
X7Y587D01*
X1607Y587D02*
X1614Y587D01*
X0Y586D02*
X7Y586D01*
X1607Y586D02*
X1614Y586D01*
X0Y585D02*
X7Y585D01*
X1607Y585D02*
X1614Y585D01*
X0Y584D02*
X7Y584D01*
X1607Y584D02*
X1614Y584D01*
X0Y583D02*
X7Y583D01*
X1607Y583D02*
X1614Y583D01*
X0Y582D02*
X7Y582D01*
X1607Y582D02*
X1614Y582D01*
X0Y581D02*
X7Y581D01*
X1607Y581D02*
X1614Y581D01*
X0Y580D02*
X7Y580D01*
X1607Y580D02*
X1614Y580D01*
X0Y579D02*
X7Y579D01*
X1607Y579D02*
X1614Y579D01*
X0Y578D02*
X7Y578D01*
X1607Y578D02*
X1614Y578D01*
X0Y577D02*
X7Y577D01*
X1607Y577D02*
X1614Y577D01*
X0Y576D02*
X7Y576D01*
X1607Y576D02*
X1614Y576D01*
X0Y575D02*
X7Y575D01*
X1607Y575D02*
X1614Y575D01*
X0Y574D02*
X7Y574D01*
X1607Y574D02*
X1614Y574D01*
X0Y573D02*
X7Y573D01*
X1607Y573D02*
X1614Y573D01*
X0Y572D02*
X7Y572D01*
X1607Y572D02*
X1614Y572D01*
X0Y571D02*
X7Y571D01*
X1607Y571D02*
X1614Y571D01*
X0Y570D02*
X7Y570D01*
X1607Y570D02*
X1614Y570D01*
X0Y569D02*
X7Y569D01*
X1607Y569D02*
X1614Y569D01*
X0Y568D02*
X7Y568D01*
X1607Y568D02*
X1614Y568D01*
X0Y567D02*
X7Y567D01*
X1607Y567D02*
X1614Y567D01*
X0Y566D02*
X7Y566D01*
X1607Y566D02*
X1614Y566D01*
X0Y565D02*
X7Y565D01*
X1607Y565D02*
X1614Y565D01*
X0Y564D02*
X7Y564D01*
X1607Y564D02*
X1614Y564D01*
X0Y563D02*
X7Y563D01*
X1607Y563D02*
X1614Y563D01*
X0Y562D02*
X7Y562D01*
X1607Y562D02*
X1614Y562D01*
X0Y561D02*
X7Y561D01*
X1607Y561D02*
X1614Y561D01*
X0Y560D02*
X7Y560D01*
X1607Y560D02*
X1614Y560D01*
X0Y559D02*
X7Y559D01*
X1607Y559D02*
X1614Y559D01*
X0Y558D02*
X7Y558D01*
X1607Y558D02*
X1614Y558D01*
X0Y557D02*
X7Y557D01*
X1607Y557D02*
X1614Y557D01*
X0Y556D02*
X7Y556D01*
X1607Y556D02*
X1614Y556D01*
X0Y555D02*
X7Y555D01*
X1607Y555D02*
X1614Y555D01*
X0Y554D02*
X7Y554D01*
X1607Y554D02*
X1614Y554D01*
X0Y553D02*
X7Y553D01*
X1607Y553D02*
X1614Y553D01*
X0Y552D02*
X7Y552D01*
X1607Y552D02*
X1614Y552D01*
X0Y551D02*
X7Y551D01*
X1607Y551D02*
X1614Y551D01*
X0Y550D02*
X7Y550D01*
X1607Y550D02*
X1614Y550D01*
X0Y549D02*
X7Y549D01*
X1607Y549D02*
X1614Y549D01*
X0Y548D02*
X7Y548D01*
X1607Y548D02*
X1614Y548D01*
X0Y547D02*
X7Y547D01*
X1607Y547D02*
X1614Y547D01*
X0Y546D02*
X7Y546D01*
X1607Y546D02*
X1614Y546D01*
X0Y545D02*
X7Y545D01*
X1607Y545D02*
X1614Y545D01*
X0Y544D02*
X7Y544D01*
X1607Y544D02*
X1614Y544D01*
X0Y543D02*
X7Y543D01*
X1607Y543D02*
X1614Y543D01*
X0Y542D02*
X7Y542D01*
X1607Y542D02*
X1614Y542D01*
X0Y541D02*
X7Y541D01*
X1607Y541D02*
X1614Y541D01*
X0Y540D02*
X7Y540D01*
X1607Y540D02*
X1614Y540D01*
X0Y539D02*
X7Y539D01*
X1607Y539D02*
X1614Y539D01*
X0Y538D02*
X7Y538D01*
X1607Y538D02*
X1614Y538D01*
X0Y537D02*
X7Y537D01*
X1607Y537D02*
X1614Y537D01*
X0Y536D02*
X7Y536D01*
X1607Y536D02*
X1614Y536D01*
X0Y535D02*
X7Y535D01*
X1607Y535D02*
X1614Y535D01*
X0Y534D02*
X7Y534D01*
X1607Y534D02*
X1614Y534D01*
X0Y533D02*
X7Y533D01*
X1607Y533D02*
X1614Y533D01*
X0Y532D02*
X7Y532D01*
X1607Y532D02*
X1614Y532D01*
X0Y531D02*
X7Y531D01*
X1607Y531D02*
X1614Y531D01*
X0Y530D02*
X7Y530D01*
X1607Y530D02*
X1614Y530D01*
X0Y529D02*
X7Y529D01*
X1607Y529D02*
X1614Y529D01*
X0Y528D02*
X7Y528D01*
X1607Y528D02*
X1614Y528D01*
X0Y527D02*
X7Y527D01*
X1607Y527D02*
X1614Y527D01*
X0Y526D02*
X7Y526D01*
X1607Y526D02*
X1614Y526D01*
X0Y525D02*
X7Y525D01*
X1607Y525D02*
X1614Y525D01*
X0Y524D02*
X7Y524D01*
X1607Y524D02*
X1614Y524D01*
X0Y523D02*
X7Y523D01*
X1607Y523D02*
X1614Y523D01*
X0Y522D02*
X7Y522D01*
X1607Y522D02*
X1614Y522D01*
X0Y521D02*
X7Y521D01*
X1607Y521D02*
X1614Y521D01*
X0Y520D02*
X7Y520D01*
X1607Y520D02*
X1614Y520D01*
X0Y519D02*
X7Y519D01*
X1607Y519D02*
X1614Y519D01*
X0Y518D02*
X7Y518D01*
X1607Y518D02*
X1614Y518D01*
X0Y517D02*
X7Y517D01*
X1607Y517D02*
X1614Y517D01*
X0Y516D02*
X7Y516D01*
X1607Y516D02*
X1614Y516D01*
X0Y515D02*
X7Y515D01*
X1607Y515D02*
X1614Y515D01*
X0Y514D02*
X7Y514D01*
X1607Y514D02*
X1614Y514D01*
X0Y513D02*
X7Y513D01*
X1607Y513D02*
X1614Y513D01*
X0Y512D02*
X7Y512D01*
X1607Y512D02*
X1614Y512D01*
X0Y511D02*
X7Y511D01*
X1607Y511D02*
X1614Y511D01*
X0Y510D02*
X7Y510D01*
X1607Y510D02*
X1614Y510D01*
X0Y509D02*
X7Y509D01*
X1607Y509D02*
X1614Y509D01*
X0Y508D02*
X7Y508D01*
X1607Y508D02*
X1614Y508D01*
X0Y507D02*
X7Y507D01*
X1607Y507D02*
X1614Y507D01*
X0Y506D02*
X7Y506D01*
X1607Y506D02*
X1614Y506D01*
X0Y505D02*
X7Y505D01*
X1607Y505D02*
X1614Y505D01*
X0Y504D02*
X7Y504D01*
X1607Y504D02*
X1614Y504D01*
X0Y503D02*
X7Y503D01*
X1607Y503D02*
X1614Y503D01*
X0Y502D02*
X7Y502D01*
X1607Y502D02*
X1614Y502D01*
X0Y501D02*
X7Y501D01*
X1607Y501D02*
X1614Y501D01*
X0Y500D02*
X7Y500D01*
X1607Y500D02*
X1614Y500D01*
X0Y499D02*
X7Y499D01*
X1607Y499D02*
X1614Y499D01*
X0Y498D02*
X7Y498D01*
X1607Y498D02*
X1614Y498D01*
X0Y497D02*
X7Y497D01*
X1607Y497D02*
X1614Y497D01*
X0Y496D02*
X7Y496D01*
X1607Y496D02*
X1614Y496D01*
X0Y495D02*
X7Y495D01*
X1607Y495D02*
X1614Y495D01*
X0Y494D02*
X7Y494D01*
X1607Y494D02*
X1614Y494D01*
X0Y493D02*
X7Y493D01*
X1607Y493D02*
X1614Y493D01*
X0Y492D02*
X7Y492D01*
X1607Y492D02*
X1614Y492D01*
X0Y491D02*
X7Y491D01*
X1607Y491D02*
X1614Y491D01*
X0Y490D02*
X7Y490D01*
X1607Y490D02*
X1614Y490D01*
X0Y489D02*
X7Y489D01*
X1607Y489D02*
X1614Y489D01*
X0Y488D02*
X7Y488D01*
X1607Y488D02*
X1614Y488D01*
X0Y487D02*
X7Y487D01*
X1607Y487D02*
X1614Y487D01*
X0Y486D02*
X7Y486D01*
X1607Y486D02*
X1614Y486D01*
X0Y485D02*
X7Y485D01*
X1607Y485D02*
X1614Y485D01*
X0Y484D02*
X7Y484D01*
X1607Y484D02*
X1614Y484D01*
X0Y483D02*
X7Y483D01*
X1607Y483D02*
X1614Y483D01*
X0Y482D02*
X7Y482D01*
X1607Y482D02*
X1614Y482D01*
X0Y481D02*
X7Y481D01*
X1607Y481D02*
X1614Y481D01*
X0Y480D02*
X7Y480D01*
X1607Y480D02*
X1614Y480D01*
X0Y479D02*
X7Y479D01*
X1607Y479D02*
X1614Y479D01*
X0Y478D02*
X7Y478D01*
X1607Y478D02*
X1614Y478D01*
X0Y477D02*
X7Y477D01*
X1607Y477D02*
X1614Y477D01*
X0Y476D02*
X7Y476D01*
X1607Y476D02*
X1614Y476D01*
X0Y475D02*
X7Y475D01*
X1607Y475D02*
X1614Y475D01*
X0Y474D02*
X7Y474D01*
X1607Y474D02*
X1614Y474D01*
X0Y473D02*
X7Y473D01*
X1607Y473D02*
X1614Y473D01*
X0Y472D02*
X7Y472D01*
X1607Y472D02*
X1614Y472D01*
X0Y471D02*
X7Y471D01*
X1607Y471D02*
X1614Y471D01*
X0Y470D02*
X7Y470D01*
X1607Y470D02*
X1614Y470D01*
X0Y469D02*
X7Y469D01*
X1607Y469D02*
X1614Y469D01*
X0Y468D02*
X7Y468D01*
X1607Y468D02*
X1614Y468D01*
X0Y467D02*
X7Y467D01*
X1607Y467D02*
X1614Y467D01*
X0Y466D02*
X7Y466D01*
X1607Y466D02*
X1614Y466D01*
X0Y465D02*
X7Y465D01*
X1607Y465D02*
X1614Y465D01*
X0Y464D02*
X7Y464D01*
X1607Y464D02*
X1614Y464D01*
X0Y463D02*
X7Y463D01*
X1607Y463D02*
X1614Y463D01*
X0Y462D02*
X7Y462D01*
X1607Y462D02*
X1614Y462D01*
X0Y461D02*
X7Y461D01*
X1607Y461D02*
X1614Y461D01*
X0Y460D02*
X7Y460D01*
X1607Y460D02*
X1614Y460D01*
X0Y459D02*
X7Y459D01*
X1607Y459D02*
X1614Y459D01*
X0Y458D02*
X7Y458D01*
X1607Y458D02*
X1614Y458D01*
X0Y457D02*
X7Y457D01*
X1607Y457D02*
X1614Y457D01*
X0Y456D02*
X7Y456D01*
X1607Y456D02*
X1614Y456D01*
X0Y455D02*
X7Y455D01*
X1607Y455D02*
X1614Y455D01*
X0Y454D02*
X7Y454D01*
X1607Y454D02*
X1614Y454D01*
X0Y453D02*
X7Y453D01*
X1607Y453D02*
X1614Y453D01*
X0Y452D02*
X7Y452D01*
X1607Y452D02*
X1614Y452D01*
X0Y451D02*
X7Y451D01*
X1607Y451D02*
X1614Y451D01*
X0Y450D02*
X7Y450D01*
X1607Y450D02*
X1614Y450D01*
X0Y449D02*
X7Y449D01*
X1607Y449D02*
X1614Y449D01*
X0Y448D02*
X7Y448D01*
X1607Y448D02*
X1614Y448D01*
X0Y447D02*
X7Y447D01*
X1607Y447D02*
X1614Y447D01*
X0Y446D02*
X7Y446D01*
X1607Y446D02*
X1614Y446D01*
X0Y445D02*
X7Y445D01*
X1607Y445D02*
X1614Y445D01*
X0Y444D02*
X7Y444D01*
X1607Y444D02*
X1614Y444D01*
X0Y443D02*
X7Y443D01*
X1607Y443D02*
X1614Y443D01*
X0Y442D02*
X7Y442D01*
X1607Y442D02*
X1614Y442D01*
X0Y441D02*
X7Y441D01*
X1607Y441D02*
X1614Y441D01*
X0Y440D02*
X7Y440D01*
X1607Y440D02*
X1614Y440D01*
X0Y439D02*
X7Y439D01*
X1607Y439D02*
X1614Y439D01*
X0Y438D02*
X7Y438D01*
X1607Y438D02*
X1614Y438D01*
X0Y437D02*
X7Y437D01*
X1607Y437D02*
X1614Y437D01*
X0Y436D02*
X7Y436D01*
X1607Y436D02*
X1614Y436D01*
X0Y435D02*
X7Y435D01*
X1607Y435D02*
X1614Y435D01*
X0Y434D02*
X7Y434D01*
X1607Y434D02*
X1614Y434D01*
X0Y433D02*
X7Y433D01*
X1607Y433D02*
X1614Y433D01*
X0Y432D02*
X7Y432D01*
X1607Y432D02*
X1614Y432D01*
X0Y431D02*
X7Y431D01*
X1607Y431D02*
X1614Y431D01*
X0Y430D02*
X7Y430D01*
X1607Y430D02*
X1614Y430D01*
X0Y429D02*
X7Y429D01*
X1607Y429D02*
X1614Y429D01*
X0Y428D02*
X7Y428D01*
X1607Y428D02*
X1614Y428D01*
X0Y427D02*
X7Y427D01*
X1607Y427D02*
X1614Y427D01*
X0Y426D02*
X7Y426D01*
X1607Y426D02*
X1614Y426D01*
X0Y425D02*
X7Y425D01*
X1607Y425D02*
X1614Y425D01*
X0Y424D02*
X7Y424D01*
X1607Y424D02*
X1614Y424D01*
X0Y423D02*
X7Y423D01*
X1607Y423D02*
X1614Y423D01*
X0Y422D02*
X7Y422D01*
X1607Y422D02*
X1614Y422D01*
X0Y421D02*
X7Y421D01*
X1607Y421D02*
X1614Y421D01*
X0Y420D02*
X7Y420D01*
X1607Y420D02*
X1614Y420D01*
X0Y419D02*
X7Y419D01*
X1607Y419D02*
X1614Y419D01*
X0Y418D02*
X7Y418D01*
X1607Y418D02*
X1614Y418D01*
X0Y417D02*
X7Y417D01*
X1607Y417D02*
X1614Y417D01*
X0Y416D02*
X7Y416D01*
X1607Y416D02*
X1614Y416D01*
X0Y415D02*
X7Y415D01*
X1607Y415D02*
X1614Y415D01*
X0Y414D02*
X7Y414D01*
X1607Y414D02*
X1614Y414D01*
X0Y413D02*
X7Y413D01*
X1607Y413D02*
X1614Y413D01*
X0Y412D02*
X7Y412D01*
X1607Y412D02*
X1614Y412D01*
X0Y411D02*
X7Y411D01*
X1607Y411D02*
X1614Y411D01*
X0Y410D02*
X7Y410D01*
X1607Y410D02*
X1614Y410D01*
X0Y409D02*
X7Y409D01*
X1607Y409D02*
X1614Y409D01*
X0Y408D02*
X7Y408D01*
X1607Y408D02*
X1614Y408D01*
X0Y407D02*
X7Y407D01*
X1607Y407D02*
X1614Y407D01*
X0Y406D02*
X7Y406D01*
X1607Y406D02*
X1614Y406D01*
X0Y405D02*
X7Y405D01*
X1607Y405D02*
X1614Y405D01*
X0Y404D02*
X7Y404D01*
X1607Y404D02*
X1614Y404D01*
X0Y403D02*
X7Y403D01*
X1607Y403D02*
X1614Y403D01*
X0Y402D02*
X7Y402D01*
X1607Y402D02*
X1614Y402D01*
X0Y401D02*
X7Y401D01*
X1607Y401D02*
X1614Y401D01*
X0Y400D02*
X7Y400D01*
X1607Y400D02*
X1614Y400D01*
X0Y399D02*
X7Y399D01*
X1607Y399D02*
X1614Y399D01*
X0Y398D02*
X7Y398D01*
X1607Y398D02*
X1614Y398D01*
X0Y397D02*
X7Y397D01*
X1607Y397D02*
X1614Y397D01*
X0Y396D02*
X7Y396D01*
X1607Y396D02*
X1614Y396D01*
X0Y395D02*
X7Y395D01*
X1607Y395D02*
X1614Y395D01*
X0Y394D02*
X7Y394D01*
X1607Y394D02*
X1614Y394D01*
X0Y393D02*
X7Y393D01*
X1607Y393D02*
X1614Y393D01*
X0Y392D02*
X7Y392D01*
X1607Y392D02*
X1614Y392D01*
X0Y391D02*
X7Y391D01*
X1607Y391D02*
X1614Y391D01*
X0Y390D02*
X7Y390D01*
X1607Y390D02*
X1614Y390D01*
X0Y389D02*
X7Y389D01*
X1607Y389D02*
X1614Y389D01*
X0Y388D02*
X7Y388D01*
X1607Y388D02*
X1614Y388D01*
X0Y387D02*
X7Y387D01*
X1607Y387D02*
X1614Y387D01*
X0Y386D02*
X7Y386D01*
X1607Y386D02*
X1614Y386D01*
X0Y385D02*
X7Y385D01*
X1607Y385D02*
X1614Y385D01*
X0Y384D02*
X7Y384D01*
X1607Y384D02*
X1614Y384D01*
X0Y383D02*
X7Y383D01*
X1607Y383D02*
X1614Y383D01*
X0Y382D02*
X7Y382D01*
X1607Y382D02*
X1614Y382D01*
X0Y381D02*
X7Y381D01*
X1607Y381D02*
X1614Y381D01*
X0Y380D02*
X7Y380D01*
X1607Y380D02*
X1614Y380D01*
X0Y379D02*
X7Y379D01*
X1607Y379D02*
X1614Y379D01*
X0Y378D02*
X7Y378D01*
X1607Y378D02*
X1614Y378D01*
X0Y377D02*
X7Y377D01*
X1607Y377D02*
X1614Y377D01*
X0Y376D02*
X7Y376D01*
X1607Y376D02*
X1614Y376D01*
X0Y375D02*
X7Y375D01*
X1607Y375D02*
X1614Y375D01*
X0Y374D02*
X7Y374D01*
X1607Y374D02*
X1614Y374D01*
X0Y373D02*
X7Y373D01*
X1607Y373D02*
X1614Y373D01*
X0Y372D02*
X7Y372D01*
X1607Y372D02*
X1614Y372D01*
X0Y371D02*
X7Y371D01*
X1607Y371D02*
X1614Y371D01*
X0Y370D02*
X7Y370D01*
X1607Y370D02*
X1614Y370D01*
X0Y369D02*
X7Y369D01*
X1607Y369D02*
X1614Y369D01*
X0Y368D02*
X7Y368D01*
X1607Y368D02*
X1614Y368D01*
X0Y367D02*
X7Y367D01*
X1607Y367D02*
X1614Y367D01*
X0Y366D02*
X7Y366D01*
X1607Y366D02*
X1614Y366D01*
X0Y365D02*
X7Y365D01*
X1607Y365D02*
X1614Y365D01*
X0Y364D02*
X7Y364D01*
X1607Y364D02*
X1614Y364D01*
X0Y363D02*
X7Y363D01*
X1607Y363D02*
X1614Y363D01*
X0Y362D02*
X7Y362D01*
X1607Y362D02*
X1614Y362D01*
X0Y361D02*
X7Y361D01*
X1607Y361D02*
X1614Y361D01*
X0Y360D02*
X7Y360D01*
X1607Y360D02*
X1614Y360D01*
X0Y359D02*
X7Y359D01*
X1607Y359D02*
X1614Y359D01*
X0Y358D02*
X7Y358D01*
X1607Y358D02*
X1614Y358D01*
X0Y357D02*
X7Y357D01*
X1607Y357D02*
X1614Y357D01*
X0Y356D02*
X7Y356D01*
X1607Y356D02*
X1614Y356D01*
X0Y355D02*
X7Y355D01*
X1607Y355D02*
X1614Y355D01*
X0Y354D02*
X7Y354D01*
X1607Y354D02*
X1614Y354D01*
X0Y353D02*
X7Y353D01*
X1607Y353D02*
X1614Y353D01*
X0Y352D02*
X7Y352D01*
X1607Y352D02*
X1614Y352D01*
X0Y351D02*
X7Y351D01*
X1607Y351D02*
X1614Y351D01*
X0Y350D02*
X7Y350D01*
X1607Y350D02*
X1614Y350D01*
X0Y349D02*
X7Y349D01*
X1607Y349D02*
X1614Y349D01*
X0Y348D02*
X7Y348D01*
X1607Y348D02*
X1614Y348D01*
X0Y347D02*
X7Y347D01*
X1607Y347D02*
X1614Y347D01*
X0Y346D02*
X7Y346D01*
X1607Y346D02*
X1614Y346D01*
X0Y345D02*
X7Y345D01*
X1607Y345D02*
X1614Y345D01*
X0Y344D02*
X7Y344D01*
X1607Y344D02*
X1614Y344D01*
X0Y343D02*
X7Y343D01*
X1607Y343D02*
X1614Y343D01*
X0Y342D02*
X7Y342D01*
X1607Y342D02*
X1614Y342D01*
X0Y341D02*
X7Y341D01*
X1607Y341D02*
X1614Y341D01*
X0Y340D02*
X7Y340D01*
X1607Y340D02*
X1614Y340D01*
X0Y339D02*
X7Y339D01*
X1607Y339D02*
X1614Y339D01*
X0Y338D02*
X7Y338D01*
X1607Y338D02*
X1614Y338D01*
X0Y337D02*
X7Y337D01*
X1607Y337D02*
X1614Y337D01*
X0Y336D02*
X7Y336D01*
X1607Y336D02*
X1614Y336D01*
X0Y335D02*
X7Y335D01*
X1607Y335D02*
X1614Y335D01*
X0Y334D02*
X7Y334D01*
X1607Y334D02*
X1614Y334D01*
X0Y333D02*
X7Y333D01*
X1607Y333D02*
X1614Y333D01*
X0Y332D02*
X7Y332D01*
X1607Y332D02*
X1614Y332D01*
X0Y331D02*
X7Y331D01*
X1607Y331D02*
X1614Y331D01*
X0Y330D02*
X7Y330D01*
X1607Y330D02*
X1614Y330D01*
X0Y329D02*
X7Y329D01*
X1607Y329D02*
X1614Y329D01*
X0Y328D02*
X7Y328D01*
X1607Y328D02*
X1614Y328D01*
X0Y327D02*
X7Y327D01*
X1607Y327D02*
X1614Y327D01*
X0Y326D02*
X7Y326D01*
X1607Y326D02*
X1614Y326D01*
X0Y325D02*
X7Y325D01*
X1607Y325D02*
X1614Y325D01*
X0Y324D02*
X7Y324D01*
X1607Y324D02*
X1614Y324D01*
X0Y323D02*
X7Y323D01*
X1607Y323D02*
X1614Y323D01*
X0Y322D02*
X7Y322D01*
X1607Y322D02*
X1614Y322D01*
X0Y321D02*
X7Y321D01*
X1607Y321D02*
X1614Y321D01*
X0Y320D02*
X7Y320D01*
X1607Y320D02*
X1614Y320D01*
X0Y319D02*
X7Y319D01*
X1607Y319D02*
X1614Y319D01*
X0Y318D02*
X7Y318D01*
X1607Y318D02*
X1614Y318D01*
X0Y317D02*
X7Y317D01*
X1607Y317D02*
X1614Y317D01*
X0Y316D02*
X7Y316D01*
X1607Y316D02*
X1614Y316D01*
X0Y315D02*
X7Y315D01*
X1607Y315D02*
X1614Y315D01*
X0Y314D02*
X7Y314D01*
X1607Y314D02*
X1614Y314D01*
X0Y313D02*
X7Y313D01*
X1607Y313D02*
X1614Y313D01*
X0Y312D02*
X7Y312D01*
X1607Y312D02*
X1614Y312D01*
X0Y311D02*
X7Y311D01*
X1607Y311D02*
X1614Y311D01*
X0Y310D02*
X7Y310D01*
X1607Y310D02*
X1614Y310D01*
X0Y309D02*
X7Y309D01*
X1607Y309D02*
X1614Y309D01*
X0Y308D02*
X7Y308D01*
X1607Y308D02*
X1614Y308D01*
X0Y307D02*
X7Y307D01*
X1607Y307D02*
X1614Y307D01*
X0Y306D02*
X7Y306D01*
X1607Y306D02*
X1614Y306D01*
X0Y305D02*
X7Y305D01*
X1607Y305D02*
X1614Y305D01*
X0Y304D02*
X7Y304D01*
X1607Y304D02*
X1614Y304D01*
X0Y303D02*
X7Y303D01*
X1607Y303D02*
X1614Y303D01*
X0Y302D02*
X7Y302D01*
X1607Y302D02*
X1614Y302D01*
X0Y301D02*
X7Y301D01*
X1607Y301D02*
X1614Y301D01*
X0Y300D02*
X7Y300D01*
X1607Y300D02*
X1614Y300D01*
X0Y299D02*
X7Y299D01*
X1607Y299D02*
X1614Y299D01*
X0Y298D02*
X7Y298D01*
X1607Y298D02*
X1614Y298D01*
X0Y297D02*
X7Y297D01*
X1607Y297D02*
X1614Y297D01*
X0Y296D02*
X7Y296D01*
X1607Y296D02*
X1614Y296D01*
X0Y295D02*
X7Y295D01*
X1607Y295D02*
X1614Y295D01*
X0Y294D02*
X7Y294D01*
X1607Y294D02*
X1614Y294D01*
X0Y293D02*
X7Y293D01*
X1607Y293D02*
X1614Y293D01*
X0Y292D02*
X7Y292D01*
X1607Y292D02*
X1614Y292D01*
X0Y291D02*
X7Y291D01*
X1607Y291D02*
X1614Y291D01*
X0Y290D02*
X7Y290D01*
X1607Y290D02*
X1614Y290D01*
X0Y289D02*
X7Y289D01*
X1607Y289D02*
X1614Y289D01*
X0Y288D02*
X7Y288D01*
X1607Y288D02*
X1614Y288D01*
X0Y287D02*
X7Y287D01*
X1607Y287D02*
X1614Y287D01*
X0Y286D02*
X7Y286D01*
X1607Y286D02*
X1614Y286D01*
X0Y285D02*
X7Y285D01*
X1607Y285D02*
X1614Y285D01*
X0Y284D02*
X7Y284D01*
X1607Y284D02*
X1614Y284D01*
X0Y283D02*
X7Y283D01*
X1607Y283D02*
X1614Y283D01*
X0Y282D02*
X7Y282D01*
X1607Y282D02*
X1614Y282D01*
X0Y281D02*
X7Y281D01*
X1607Y281D02*
X1614Y281D01*
X0Y280D02*
X7Y280D01*
X1607Y280D02*
X1614Y280D01*
X0Y279D02*
X7Y279D01*
X1607Y279D02*
X1614Y279D01*
X0Y278D02*
X7Y278D01*
X1607Y278D02*
X1614Y278D01*
X0Y277D02*
X7Y277D01*
X1607Y277D02*
X1614Y277D01*
X0Y276D02*
X7Y276D01*
X1607Y276D02*
X1614Y276D01*
X0Y275D02*
X7Y275D01*
X1607Y275D02*
X1614Y275D01*
X0Y274D02*
X7Y274D01*
X1607Y274D02*
X1614Y274D01*
X0Y273D02*
X7Y273D01*
X1607Y273D02*
X1614Y273D01*
X0Y272D02*
X7Y272D01*
X1607Y272D02*
X1614Y272D01*
X0Y271D02*
X7Y271D01*
X1607Y271D02*
X1614Y271D01*
X0Y270D02*
X7Y270D01*
X1607Y270D02*
X1614Y270D01*
X0Y269D02*
X7Y269D01*
X1607Y269D02*
X1614Y269D01*
X0Y268D02*
X7Y268D01*
X1607Y268D02*
X1614Y268D01*
X0Y267D02*
X7Y267D01*
X1607Y267D02*
X1614Y267D01*
X0Y266D02*
X7Y266D01*
X1607Y266D02*
X1614Y266D01*
X0Y265D02*
X7Y265D01*
X1607Y265D02*
X1614Y265D01*
X0Y264D02*
X7Y264D01*
X1607Y264D02*
X1614Y264D01*
X0Y263D02*
X7Y263D01*
X1607Y263D02*
X1614Y263D01*
X0Y262D02*
X7Y262D01*
X1607Y262D02*
X1614Y262D01*
X0Y261D02*
X7Y261D01*
X1607Y261D02*
X1614Y261D01*
X0Y260D02*
X7Y260D01*
X1607Y260D02*
X1614Y260D01*
X0Y259D02*
X7Y259D01*
X1607Y259D02*
X1614Y259D01*
X0Y258D02*
X7Y258D01*
X1607Y258D02*
X1614Y258D01*
X0Y257D02*
X7Y257D01*
X1607Y257D02*
X1614Y257D01*
X0Y256D02*
X7Y256D01*
X1607Y256D02*
X1614Y256D01*
X0Y255D02*
X7Y255D01*
X1607Y255D02*
X1614Y255D01*
X0Y254D02*
X7Y254D01*
X1607Y254D02*
X1614Y254D01*
X0Y253D02*
X7Y253D01*
X1607Y253D02*
X1614Y253D01*
X0Y252D02*
X7Y252D01*
X1607Y252D02*
X1614Y252D01*
X0Y251D02*
X7Y251D01*
X1607Y251D02*
X1614Y251D01*
X0Y250D02*
X7Y250D01*
X1607Y250D02*
X1614Y250D01*
X0Y249D02*
X7Y249D01*
X1607Y249D02*
X1614Y249D01*
X0Y248D02*
X7Y248D01*
X1607Y248D02*
X1614Y248D01*
X0Y247D02*
X7Y247D01*
X1607Y247D02*
X1614Y247D01*
X0Y246D02*
X7Y246D01*
X1607Y246D02*
X1614Y246D01*
X0Y245D02*
X7Y245D01*
X1607Y245D02*
X1614Y245D01*
X0Y244D02*
X7Y244D01*
X1607Y244D02*
X1614Y244D01*
X0Y243D02*
X7Y243D01*
X1607Y243D02*
X1614Y243D01*
X0Y242D02*
X7Y242D01*
X1607Y242D02*
X1614Y242D01*
X0Y241D02*
X7Y241D01*
X1607Y241D02*
X1614Y241D01*
X0Y240D02*
X7Y240D01*
X1607Y240D02*
X1614Y240D01*
X0Y239D02*
X7Y239D01*
X1607Y239D02*
X1614Y239D01*
X0Y238D02*
X7Y238D01*
X1607Y238D02*
X1614Y238D01*
X0Y237D02*
X7Y237D01*
X1607Y237D02*
X1614Y237D01*
X0Y236D02*
X7Y236D01*
X1607Y236D02*
X1614Y236D01*
X0Y235D02*
X7Y235D01*
X1607Y235D02*
X1614Y235D01*
X0Y234D02*
X7Y234D01*
X1607Y234D02*
X1614Y234D01*
X0Y233D02*
X7Y233D01*
X1607Y233D02*
X1614Y233D01*
X0Y232D02*
X7Y232D01*
X1607Y232D02*
X1614Y232D01*
X0Y231D02*
X7Y231D01*
X1607Y231D02*
X1614Y231D01*
X0Y230D02*
X7Y230D01*
X1607Y230D02*
X1614Y230D01*
X0Y229D02*
X7Y229D01*
X1607Y229D02*
X1614Y229D01*
X0Y228D02*
X7Y228D01*
X1607Y228D02*
X1614Y228D01*
X0Y227D02*
X7Y227D01*
X1607Y227D02*
X1614Y227D01*
X0Y226D02*
X7Y226D01*
X1607Y226D02*
X1614Y226D01*
X0Y225D02*
X7Y225D01*
X1607Y225D02*
X1614Y225D01*
X0Y224D02*
X7Y224D01*
X1607Y224D02*
X1614Y224D01*
X0Y223D02*
X7Y223D01*
X1607Y223D02*
X1614Y223D01*
X0Y222D02*
X7Y222D01*
X1607Y222D02*
X1614Y222D01*
X0Y221D02*
X7Y221D01*
X1607Y221D02*
X1614Y221D01*
X0Y220D02*
X7Y220D01*
X1607Y220D02*
X1614Y220D01*
X0Y219D02*
X7Y219D01*
X1607Y219D02*
X1614Y219D01*
X0Y218D02*
X7Y218D01*
X1607Y218D02*
X1614Y218D01*
X0Y217D02*
X7Y217D01*
X1607Y217D02*
X1614Y217D01*
X0Y216D02*
X7Y216D01*
X1607Y216D02*
X1614Y216D01*
X0Y215D02*
X7Y215D01*
X1607Y215D02*
X1614Y215D01*
X0Y214D02*
X7Y214D01*
X1607Y214D02*
X1614Y214D01*
X0Y213D02*
X7Y213D01*
X1607Y213D02*
X1614Y213D01*
X0Y212D02*
X7Y212D01*
X1607Y212D02*
X1614Y212D01*
X0Y211D02*
X7Y211D01*
X1607Y211D02*
X1614Y211D01*
X0Y210D02*
X7Y210D01*
X1607Y210D02*
X1614Y210D01*
X0Y209D02*
X7Y209D01*
X1607Y209D02*
X1614Y209D01*
X0Y208D02*
X7Y208D01*
X1607Y208D02*
X1614Y208D01*
X0Y207D02*
X7Y207D01*
X1607Y207D02*
X1614Y207D01*
X0Y206D02*
X7Y206D01*
X1607Y206D02*
X1614Y206D01*
X0Y205D02*
X7Y205D01*
X1607Y205D02*
X1614Y205D01*
X0Y204D02*
X7Y204D01*
X1607Y204D02*
X1614Y204D01*
X0Y203D02*
X7Y203D01*
X1607Y203D02*
X1614Y203D01*
X0Y202D02*
X7Y202D01*
X1607Y202D02*
X1614Y202D01*
X0Y201D02*
X7Y201D01*
X1607Y201D02*
X1614Y201D01*
X0Y200D02*
X7Y200D01*
X1607Y200D02*
X1614Y200D01*
X0Y199D02*
X7Y199D01*
X1607Y199D02*
X1614Y199D01*
X0Y198D02*
X7Y198D01*
X1607Y198D02*
X1614Y198D01*
X0Y197D02*
X7Y197D01*
X1607Y197D02*
X1614Y197D01*
X0Y196D02*
X7Y196D01*
X1607Y196D02*
X1614Y196D01*
X0Y195D02*
X7Y195D01*
X1607Y195D02*
X1614Y195D01*
X0Y194D02*
X7Y194D01*
X1607Y194D02*
X1614Y194D01*
X0Y193D02*
X7Y193D01*
X1607Y193D02*
X1614Y193D01*
X0Y192D02*
X7Y192D01*
X1607Y192D02*
X1614Y192D01*
X0Y191D02*
X7Y191D01*
X1607Y191D02*
X1614Y191D01*
X0Y190D02*
X7Y190D01*
X1607Y190D02*
X1614Y190D01*
X0Y189D02*
X7Y189D01*
X1607Y189D02*
X1614Y189D01*
X0Y188D02*
X7Y188D01*
X1607Y188D02*
X1614Y188D01*
X0Y187D02*
X7Y187D01*
X1607Y187D02*
X1614Y187D01*
X0Y186D02*
X7Y186D01*
X1607Y186D02*
X1614Y186D01*
X0Y185D02*
X7Y185D01*
X1607Y185D02*
X1614Y185D01*
X0Y184D02*
X7Y184D01*
X1607Y184D02*
X1614Y184D01*
X0Y183D02*
X7Y183D01*
X1607Y183D02*
X1614Y183D01*
X0Y182D02*
X7Y182D01*
X1607Y182D02*
X1614Y182D01*
X0Y181D02*
X7Y181D01*
X1607Y181D02*
X1614Y181D01*
X0Y180D02*
X7Y180D01*
X1607Y180D02*
X1614Y180D01*
X0Y179D02*
X7Y179D01*
X1607Y179D02*
X1614Y179D01*
X0Y178D02*
X7Y178D01*
X1607Y178D02*
X1614Y178D01*
X0Y177D02*
X7Y177D01*
X1607Y177D02*
X1614Y177D01*
X0Y176D02*
X7Y176D01*
X1607Y176D02*
X1614Y176D01*
X0Y175D02*
X7Y175D01*
X1607Y175D02*
X1614Y175D01*
X0Y174D02*
X7Y174D01*
X1607Y174D02*
X1614Y174D01*
X0Y173D02*
X7Y173D01*
X1607Y173D02*
X1614Y173D01*
X0Y172D02*
X7Y172D01*
X1607Y172D02*
X1614Y172D01*
X0Y171D02*
X7Y171D01*
X1607Y171D02*
X1614Y171D01*
X0Y170D02*
X7Y170D01*
X1607Y170D02*
X1614Y170D01*
X0Y169D02*
X7Y169D01*
X1607Y169D02*
X1614Y169D01*
X0Y168D02*
X7Y168D01*
X1607Y168D02*
X1614Y168D01*
X0Y167D02*
X7Y167D01*
X1607Y167D02*
X1614Y167D01*
X0Y166D02*
X7Y166D01*
X1607Y166D02*
X1614Y166D01*
X0Y165D02*
X7Y165D01*
X1607Y165D02*
X1614Y165D01*
X0Y164D02*
X7Y164D01*
X1607Y164D02*
X1614Y164D01*
X0Y163D02*
X7Y163D01*
X1607Y163D02*
X1614Y163D01*
X0Y162D02*
X7Y162D01*
X1607Y162D02*
X1614Y162D01*
X0Y161D02*
X7Y161D01*
X1607Y161D02*
X1614Y161D01*
X0Y160D02*
X7Y160D01*
X1607Y160D02*
X1614Y160D01*
X0Y159D02*
X7Y159D01*
X1607Y159D02*
X1614Y159D01*
X0Y158D02*
X7Y158D01*
X1607Y158D02*
X1614Y158D01*
X0Y157D02*
X7Y157D01*
X1607Y157D02*
X1614Y157D01*
X0Y156D02*
X7Y156D01*
X1607Y156D02*
X1614Y156D01*
X0Y155D02*
X7Y155D01*
X1607Y155D02*
X1614Y155D01*
X0Y154D02*
X7Y154D01*
X1607Y154D02*
X1614Y154D01*
X0Y153D02*
X7Y153D01*
X1607Y153D02*
X1614Y153D01*
X0Y152D02*
X7Y152D01*
X1607Y152D02*
X1614Y152D01*
X0Y151D02*
X7Y151D01*
X1607Y151D02*
X1614Y151D01*
X0Y150D02*
X7Y150D01*
X1607Y150D02*
X1614Y150D01*
X0Y149D02*
X7Y149D01*
X1607Y149D02*
X1614Y149D01*
X0Y148D02*
X7Y148D01*
X1607Y148D02*
X1614Y148D01*
X0Y147D02*
X7Y147D01*
X1607Y147D02*
X1614Y147D01*
X0Y146D02*
X7Y146D01*
X1607Y146D02*
X1614Y146D01*
X0Y145D02*
X7Y145D01*
X1607Y145D02*
X1614Y145D01*
X0Y144D02*
X7Y144D01*
X1607Y144D02*
X1614Y144D01*
X0Y143D02*
X7Y143D01*
X1607Y143D02*
X1614Y143D01*
X0Y142D02*
X7Y142D01*
X1607Y142D02*
X1614Y142D01*
X0Y141D02*
X7Y141D01*
X1607Y141D02*
X1614Y141D01*
X0Y140D02*
X7Y140D01*
X1607Y140D02*
X1614Y140D01*
X0Y139D02*
X7Y139D01*
X1607Y139D02*
X1614Y139D01*
X0Y138D02*
X7Y138D01*
X1607Y138D02*
X1614Y138D01*
X0Y137D02*
X7Y137D01*
X1607Y137D02*
X1614Y137D01*
X0Y136D02*
X7Y136D01*
X1607Y136D02*
X1614Y136D01*
X0Y135D02*
X7Y135D01*
X1607Y135D02*
X1614Y135D01*
X0Y134D02*
X7Y134D01*
X1607Y134D02*
X1614Y134D01*
X0Y133D02*
X7Y133D01*
X1607Y133D02*
X1614Y133D01*
X0Y132D02*
X7Y132D01*
X1607Y132D02*
X1614Y132D01*
X0Y131D02*
X7Y131D01*
X1607Y131D02*
X1614Y131D01*
X0Y130D02*
X7Y130D01*
X1607Y130D02*
X1614Y130D01*
X0Y129D02*
X7Y129D01*
X1607Y129D02*
X1614Y129D01*
X0Y128D02*
X7Y128D01*
X1607Y128D02*
X1614Y128D01*
X0Y127D02*
X7Y127D01*
X1607Y127D02*
X1614Y127D01*
X0Y126D02*
X7Y126D01*
X1607Y126D02*
X1614Y126D01*
X0Y125D02*
X7Y125D01*
X1607Y125D02*
X1614Y125D01*
X0Y124D02*
X7Y124D01*
X1607Y124D02*
X1614Y124D01*
X0Y123D02*
X7Y123D01*
X1607Y123D02*
X1614Y123D01*
X0Y122D02*
X7Y122D01*
X1607Y122D02*
X1614Y122D01*
X0Y121D02*
X7Y121D01*
X1607Y121D02*
X1614Y121D01*
X0Y120D02*
X7Y120D01*
X1607Y120D02*
X1614Y120D01*
X0Y119D02*
X7Y119D01*
X1607Y119D02*
X1614Y119D01*
X0Y118D02*
X7Y118D01*
X1607Y118D02*
X1614Y118D01*
X0Y117D02*
X7Y117D01*
X1607Y117D02*
X1614Y117D01*
X0Y116D02*
X7Y116D01*
X1607Y116D02*
X1614Y116D01*
X0Y115D02*
X7Y115D01*
X1607Y115D02*
X1614Y115D01*
X0Y114D02*
X7Y114D01*
X1607Y114D02*
X1614Y114D01*
X0Y113D02*
X7Y113D01*
X1607Y113D02*
X1614Y113D01*
X0Y112D02*
X7Y112D01*
X1607Y112D02*
X1614Y112D01*
X0Y111D02*
X7Y111D01*
X1607Y111D02*
X1614Y111D01*
X0Y110D02*
X7Y110D01*
X1607Y110D02*
X1614Y110D01*
X0Y109D02*
X7Y109D01*
X1607Y109D02*
X1614Y109D01*
X0Y108D02*
X7Y108D01*
X1607Y108D02*
X1614Y108D01*
X0Y107D02*
X7Y107D01*
X1607Y107D02*
X1614Y107D01*
X0Y106D02*
X7Y106D01*
X1607Y106D02*
X1614Y106D01*
X0Y105D02*
X7Y105D01*
X1607Y105D02*
X1614Y105D01*
X0Y104D02*
X7Y104D01*
X1607Y104D02*
X1614Y104D01*
X0Y103D02*
X7Y103D01*
X1607Y103D02*
X1614Y103D01*
X0Y102D02*
X7Y102D01*
X1607Y102D02*
X1614Y102D01*
X0Y101D02*
X7Y101D01*
X1607Y101D02*
X1614Y101D01*
X0Y100D02*
X7Y100D01*
X1607Y100D02*
X1614Y100D01*
X0Y99D02*
X7Y99D01*
X1607Y99D02*
X1614Y99D01*
X0Y98D02*
X7Y98D01*
X1607Y98D02*
X1614Y98D01*
X0Y97D02*
X7Y97D01*
X1607Y97D02*
X1614Y97D01*
X0Y96D02*
X7Y96D01*
X1607Y96D02*
X1614Y96D01*
X0Y95D02*
X7Y95D01*
X1607Y95D02*
X1614Y95D01*
X0Y94D02*
X7Y94D01*
X1607Y94D02*
X1614Y94D01*
X0Y93D02*
X7Y93D01*
X1607Y93D02*
X1614Y93D01*
X0Y92D02*
X7Y92D01*
X1607Y92D02*
X1614Y92D01*
X0Y91D02*
X7Y91D01*
X1607Y91D02*
X1614Y91D01*
X0Y90D02*
X7Y90D01*
X1607Y90D02*
X1614Y90D01*
X0Y89D02*
X7Y89D01*
X1607Y89D02*
X1614Y89D01*
X0Y88D02*
X7Y88D01*
X1607Y88D02*
X1614Y88D01*
X0Y87D02*
X7Y87D01*
X1607Y87D02*
X1614Y87D01*
X0Y86D02*
X7Y86D01*
X1607Y86D02*
X1614Y86D01*
X0Y85D02*
X7Y85D01*
X1607Y85D02*
X1614Y85D01*
X0Y84D02*
X7Y84D01*
X1607Y84D02*
X1614Y84D01*
X0Y83D02*
X7Y83D01*
X1607Y83D02*
X1614Y83D01*
X0Y82D02*
X7Y82D01*
X1607Y82D02*
X1614Y82D01*
X0Y81D02*
X7Y81D01*
X1607Y81D02*
X1614Y81D01*
X0Y80D02*
X7Y80D01*
X1607Y80D02*
X1614Y80D01*
X0Y79D02*
X7Y79D01*
X1607Y79D02*
X1614Y79D01*
X0Y78D02*
X7Y78D01*
X1607Y78D02*
X1614Y78D01*
X0Y77D02*
X7Y77D01*
X1607Y77D02*
X1614Y77D01*
X0Y76D02*
X7Y76D01*
X1607Y76D02*
X1614Y76D01*
X0Y75D02*
X7Y75D01*
X1607Y75D02*
X1614Y75D01*
X0Y74D02*
X7Y74D01*
X1607Y74D02*
X1614Y74D01*
X0Y73D02*
X7Y73D01*
X1607Y73D02*
X1614Y73D01*
X0Y72D02*
X7Y72D01*
X1607Y72D02*
X1614Y72D01*
X0Y71D02*
X7Y71D01*
X1607Y71D02*
X1614Y71D01*
X0Y70D02*
X7Y70D01*
X1607Y70D02*
X1614Y70D01*
X0Y69D02*
X7Y69D01*
X1607Y69D02*
X1614Y69D01*
X0Y68D02*
X7Y68D01*
X1607Y68D02*
X1614Y68D01*
X0Y67D02*
X7Y67D01*
X1607Y67D02*
X1614Y67D01*
X0Y66D02*
X7Y66D01*
X1607Y66D02*
X1614Y66D01*
X0Y65D02*
X7Y65D01*
X1607Y65D02*
X1614Y65D01*
X0Y64D02*
X7Y64D01*
X1607Y64D02*
X1614Y64D01*
X0Y63D02*
X7Y63D01*
X1607Y63D02*
X1614Y63D01*
X0Y62D02*
X7Y62D01*
X1607Y62D02*
X1614Y62D01*
X0Y61D02*
X7Y61D01*
X1607Y61D02*
X1614Y61D01*
X0Y60D02*
X7Y60D01*
X1607Y60D02*
X1614Y60D01*
X0Y59D02*
X7Y59D01*
X1607Y59D02*
X1614Y59D01*
X0Y58D02*
X7Y58D01*
X1607Y58D02*
X1614Y58D01*
X0Y57D02*
X7Y57D01*
X1607Y57D02*
X1614Y57D01*
X0Y56D02*
X7Y56D01*
X1607Y56D02*
X1614Y56D01*
X0Y55D02*
X7Y55D01*
X1607Y55D02*
X1614Y55D01*
X0Y54D02*
X7Y54D01*
X1607Y54D02*
X1614Y54D01*
X0Y53D02*
X7Y53D01*
X1607Y53D02*
X1614Y53D01*
X0Y52D02*
X7Y52D01*
X1607Y52D02*
X1614Y52D01*
X0Y51D02*
X7Y51D01*
X1607Y51D02*
X1614Y51D01*
X0Y50D02*
X7Y50D01*
X1607Y50D02*
X1614Y50D01*
X0Y49D02*
X7Y49D01*
X1607Y49D02*
X1614Y49D01*
X0Y48D02*
X7Y48D01*
X1607Y48D02*
X1614Y48D01*
X0Y47D02*
X7Y47D01*
X1607Y47D02*
X1614Y47D01*
X0Y46D02*
X7Y46D01*
X1607Y46D02*
X1614Y46D01*
X0Y45D02*
X7Y45D01*
X1607Y45D02*
X1614Y45D01*
X0Y44D02*
X7Y44D01*
X1607Y44D02*
X1614Y44D01*
X0Y43D02*
X7Y43D01*
X1607Y43D02*
X1614Y43D01*
X0Y42D02*
X7Y42D01*
X1607Y42D02*
X1614Y42D01*
X0Y41D02*
X7Y41D01*
X1607Y41D02*
X1614Y41D01*
X0Y40D02*
X7Y40D01*
X1607Y40D02*
X1614Y40D01*
X0Y39D02*
X7Y39D01*
X1607Y39D02*
X1614Y39D01*
X0Y38D02*
X7Y38D01*
X1607Y38D02*
X1614Y38D01*
X0Y37D02*
X7Y37D01*
X1607Y37D02*
X1614Y37D01*
X0Y36D02*
X7Y36D01*
X1607Y36D02*
X1614Y36D01*
X0Y35D02*
X7Y35D01*
X1607Y35D02*
X1614Y35D01*
X0Y34D02*
X7Y34D01*
X1607Y34D02*
X1614Y34D01*
X0Y33D02*
X7Y33D01*
X1607Y33D02*
X1614Y33D01*
X0Y32D02*
X7Y32D01*
X1607Y32D02*
X1614Y32D01*
X0Y31D02*
X7Y31D01*
X1607Y31D02*
X1614Y31D01*
X0Y30D02*
X7Y30D01*
X1607Y30D02*
X1614Y30D01*
X0Y29D02*
X7Y29D01*
X1607Y29D02*
X1614Y29D01*
X0Y28D02*
X7Y28D01*
X1607Y28D02*
X1614Y28D01*
X0Y27D02*
X7Y27D01*
X1607Y27D02*
X1614Y27D01*
X0Y26D02*
X7Y26D01*
X1607Y26D02*
X1614Y26D01*
X0Y25D02*
X7Y25D01*
X1607Y25D02*
X1614Y25D01*
X0Y24D02*
X7Y24D01*
X1607Y24D02*
X1614Y24D01*
X0Y23D02*
X7Y23D01*
X1607Y23D02*
X1614Y23D01*
X0Y22D02*
X7Y22D01*
X1607Y22D02*
X1614Y22D01*
X0Y21D02*
X7Y21D01*
X1607Y21D02*
X1614Y21D01*
X0Y20D02*
X7Y20D01*
X1607Y20D02*
X1614Y20D01*
X0Y19D02*
X7Y19D01*
X1607Y19D02*
X1614Y19D01*
X0Y18D02*
X7Y18D01*
X1607Y18D02*
X1614Y18D01*
X0Y17D02*
X7Y17D01*
X1607Y17D02*
X1614Y17D01*
X0Y16D02*
X7Y16D01*
X1607Y16D02*
X1614Y16D01*
X0Y15D02*
X7Y15D01*
X1607Y15D02*
X1614Y15D01*
X0Y14D02*
X7Y14D01*
X1607Y14D02*
X1614Y14D01*
X0Y13D02*
X7Y13D01*
X1607Y13D02*
X1614Y13D01*
X0Y12D02*
X7Y12D01*
X1607Y12D02*
X1614Y12D01*
X0Y11D02*
X7Y11D01*
X1607Y11D02*
X1614Y11D01*
X0Y10D02*
X7Y10D01*
X1607Y10D02*
X1614Y10D01*
X0Y9D02*
X1614Y9D01*
X0Y8D02*
X1614Y8D01*
X0Y7D02*
X1614Y7D01*
X0Y6D02*
X1614Y6D01*
X0Y5D02*
X1614Y5D01*
X0Y4D02*
X1614Y4D01*
X0Y3D02*
X1614Y3D01*
X0Y2D02*
X1614Y2D01*
D02*
G04 End of Silk0*
M02*