G04 MADE WITH FRITZING*
G04 WWW.FRITZING.ORG*
G04 DOUBLE SIDED*
G04 HOLES PLATED*
G04 CONTOUR ON CENTER OF CONTOUR VECTOR*
%ASAXBY*%
%FSLAX23Y23*%
%MOIN*%
%OFA0B0*%
%SFA1.0B1.0*%
%ADD10C,0.078000*%
%ADD11C,0.094488*%
%ADD12C,0.075361*%
%ADD13C,0.024000*%
%ADD14R,0.001000X0.001000*%
%LNCOPPER0*%
G90*
G70*
G54D10*
X1115Y678D03*
X1015Y678D03*
X915Y678D03*
X815Y678D03*
X715Y678D03*
X615Y678D03*
X515Y678D03*
X415Y678D03*
X1115Y678D03*
X1015Y678D03*
X915Y678D03*
X815Y678D03*
X715Y678D03*
X615Y678D03*
X515Y678D03*
X415Y678D03*
G54D11*
X915Y978D03*
X215Y478D03*
X415Y878D03*
X1115Y1078D03*
G54D12*
X315Y1378D03*
X415Y1378D03*
X515Y1378D03*
X615Y1378D03*
X715Y1378D03*
X815Y1378D03*
X915Y1378D03*
X1015Y1378D03*
X1115Y1378D03*
X1215Y1378D03*
X1315Y1378D03*
X1415Y1378D03*
X1515Y1378D03*
X1515Y1478D03*
X1415Y1478D03*
X1315Y1478D03*
X1215Y1478D03*
X1115Y1478D03*
X1015Y1478D03*
X915Y1478D03*
X815Y1478D03*
X715Y1478D03*
X615Y1478D03*
X515Y1478D03*
X415Y1478D03*
X315Y1478D03*
G54D13*
X415Y852D02*
X415Y709D01*
D02*
X615Y478D02*
X615Y648D01*
D02*
X242Y478D02*
X615Y478D01*
D02*
X915Y952D02*
X915Y709D01*
D02*
X1115Y1052D02*
X1115Y709D01*
G54D14*
X1582Y1499D02*
X1609Y1499D01*
X1582Y1498D02*
X1605Y1498D01*
X1581Y1497D02*
X1603Y1497D01*
X1581Y1496D02*
X1602Y1496D01*
X1580Y1495D02*
X1601Y1495D01*
X1580Y1494D02*
X1600Y1494D01*
X1579Y1493D02*
X1598Y1493D01*
X1579Y1492D02*
X1598Y1492D01*
X1579Y1491D02*
X1597Y1491D01*
X1578Y1490D02*
X1596Y1490D01*
X1578Y1489D02*
X1595Y1489D01*
X1578Y1488D02*
X1595Y1488D01*
X1578Y1487D02*
X1594Y1487D01*
X1577Y1486D02*
X1594Y1486D01*
X1577Y1485D02*
X1594Y1485D01*
X1577Y1484D02*
X1594Y1484D01*
X1577Y1483D02*
X1593Y1483D01*
X1577Y1482D02*
X1593Y1482D01*
X1577Y1481D02*
X1593Y1481D01*
X1577Y1480D02*
X1593Y1480D01*
X1577Y1479D02*
X1593Y1479D01*
X1577Y1478D02*
X1593Y1478D01*
X1577Y1477D02*
X1593Y1477D01*
X1577Y1476D02*
X1593Y1476D01*
X1577Y1475D02*
X1593Y1475D01*
X1577Y1474D02*
X1594Y1474D01*
X1577Y1473D02*
X1594Y1473D01*
X1577Y1472D02*
X1594Y1472D01*
X1578Y1471D02*
X1595Y1471D01*
X1578Y1470D02*
X1595Y1470D01*
X1578Y1469D02*
X1596Y1469D01*
X1578Y1468D02*
X1596Y1468D01*
X1579Y1467D02*
X1597Y1467D01*
X1579Y1466D02*
X1598Y1466D01*
X1580Y1465D02*
X1599Y1465D01*
X1580Y1464D02*
X1600Y1464D01*
X1580Y1463D02*
X1601Y1463D01*
X1581Y1462D02*
X1602Y1462D01*
X1581Y1461D02*
X1604Y1461D01*
X1582Y1460D02*
X1606Y1460D01*
X1583Y1459D02*
X1612Y1459D01*
X1582Y1399D02*
X1608Y1399D01*
X1582Y1398D02*
X1605Y1398D01*
X1581Y1397D02*
X1603Y1397D01*
X1581Y1396D02*
X1602Y1396D01*
X1580Y1395D02*
X1601Y1395D01*
X1580Y1394D02*
X1599Y1394D01*
X1579Y1393D02*
X1598Y1393D01*
X1579Y1392D02*
X1598Y1392D01*
X1579Y1391D02*
X1597Y1391D01*
X1578Y1390D02*
X1596Y1390D01*
X1578Y1389D02*
X1595Y1389D01*
X1578Y1388D02*
X1595Y1388D01*
X1578Y1387D02*
X1594Y1387D01*
X1577Y1386D02*
X1594Y1386D01*
X1577Y1385D02*
X1594Y1385D01*
X1577Y1384D02*
X1593Y1384D01*
X1577Y1383D02*
X1593Y1383D01*
X1577Y1382D02*
X1593Y1382D01*
X1577Y1381D02*
X1593Y1381D01*
X1577Y1380D02*
X1593Y1380D01*
X1577Y1379D02*
X1593Y1379D01*
X1577Y1378D02*
X1593Y1378D01*
X1577Y1377D02*
X1593Y1377D01*
X1577Y1376D02*
X1593Y1376D01*
X1577Y1375D02*
X1593Y1375D01*
X1577Y1374D02*
X1594Y1374D01*
X1577Y1373D02*
X1594Y1373D01*
X1577Y1372D02*
X1594Y1372D01*
X1578Y1371D02*
X1595Y1371D01*
X1578Y1370D02*
X1595Y1370D01*
X1578Y1369D02*
X1596Y1369D01*
X1578Y1368D02*
X1596Y1368D01*
X1579Y1367D02*
X1597Y1367D01*
X1579Y1366D02*
X1598Y1366D01*
X1580Y1365D02*
X1599Y1365D01*
X1580Y1364D02*
X1600Y1364D01*
X1581Y1363D02*
X1601Y1363D01*
X1581Y1362D02*
X1602Y1362D01*
X1582Y1361D02*
X1604Y1361D01*
X1582Y1360D02*
X1607Y1360D01*
X1583Y1359D02*
X1612Y1359D01*
D02*
G04 End of Copper0*
M02*