G04 MADE WITH FRITZING*
G04 WWW.FRITZING.ORG*
G04 DOUBLE SIDED*
G04 HOLES PLATED*
G04 CONTOUR ON CENTER OF CONTOUR VECTOR*
%ASAXBY*%
%FSLAX23Y23*%
%MOIN*%
%OFA0B0*%
%SFA1.0B1.0*%
%ADD10C,0.078000*%
%ADD11C,0.094488*%
%ADD12C,0.075361*%
%ADD13C,0.024000*%
%ADD14R,0.001000X0.001000*%
%LNCOPPER1*%
G90*
G70*
G54D10*
X1115Y678D03*
X1015Y678D03*
X915Y678D03*
X815Y678D03*
X715Y678D03*
X615Y678D03*
X515Y678D03*
X415Y678D03*
X1115Y678D03*
X1015Y678D03*
X915Y678D03*
X815Y678D03*
X715Y678D03*
X615Y678D03*
X515Y678D03*
X415Y678D03*
G54D11*
X915Y978D03*
X215Y478D03*
X415Y878D03*
X1115Y1078D03*
G54D12*
X315Y1378D03*
X415Y1378D03*
X515Y1378D03*
X615Y1378D03*
X715Y1378D03*
X815Y1378D03*
X915Y1378D03*
X1015Y1378D03*
X1115Y1378D03*
X1215Y1378D03*
X1315Y1378D03*
X1415Y1378D03*
X1515Y1378D03*
X1515Y1478D03*
X1415Y1478D03*
X1315Y1478D03*
X1215Y1478D03*
X1115Y1478D03*
X1015Y1478D03*
X915Y1478D03*
X815Y1478D03*
X715Y1478D03*
X615Y1478D03*
X515Y1478D03*
X415Y1478D03*
X315Y1478D03*
G54D13*
X215Y1580D02*
X514Y1580D01*
D02*
X514Y1580D02*
X515Y1510D01*
D02*
X215Y505D02*
X215Y1580D01*
D02*
X515Y1078D02*
X515Y1347D01*
D02*
X1088Y1078D02*
X815Y1078D01*
D02*
X815Y1078D02*
X515Y1078D01*
D02*
X415Y978D02*
X415Y1347D01*
D02*
X888Y978D02*
X715Y978D01*
D02*
X715Y978D02*
X415Y978D01*
D02*
X315Y878D02*
X315Y1347D01*
D02*
X388Y878D02*
X315Y878D01*
G54D14*
X1582Y1499D02*
X1609Y1499D01*
X1582Y1498D02*
X1605Y1498D01*
X1581Y1497D02*
X1603Y1497D01*
X1581Y1496D02*
X1602Y1496D01*
X1580Y1495D02*
X1601Y1495D01*
X1580Y1494D02*
X1600Y1494D01*
X1579Y1493D02*
X1598Y1493D01*
X1579Y1492D02*
X1598Y1492D01*
X1579Y1491D02*
X1597Y1491D01*
X1578Y1490D02*
X1596Y1490D01*
X1578Y1489D02*
X1595Y1489D01*
X1578Y1488D02*
X1595Y1488D01*
X1578Y1487D02*
X1594Y1487D01*
X1577Y1486D02*
X1594Y1486D01*
X1577Y1485D02*
X1594Y1485D01*
X1577Y1484D02*
X1594Y1484D01*
X1577Y1483D02*
X1593Y1483D01*
X1577Y1482D02*
X1593Y1482D01*
X1577Y1481D02*
X1593Y1481D01*
X1577Y1480D02*
X1593Y1480D01*
X1577Y1479D02*
X1593Y1479D01*
X1577Y1478D02*
X1593Y1478D01*
X1577Y1477D02*
X1593Y1477D01*
X1577Y1476D02*
X1593Y1476D01*
X1577Y1475D02*
X1593Y1475D01*
X1577Y1474D02*
X1594Y1474D01*
X1577Y1473D02*
X1594Y1473D01*
X1577Y1472D02*
X1594Y1472D01*
X1578Y1471D02*
X1595Y1471D01*
X1578Y1470D02*
X1595Y1470D01*
X1578Y1469D02*
X1596Y1469D01*
X1578Y1468D02*
X1596Y1468D01*
X1579Y1467D02*
X1597Y1467D01*
X1579Y1466D02*
X1598Y1466D01*
X1580Y1465D02*
X1599Y1465D01*
X1580Y1464D02*
X1600Y1464D01*
X1580Y1463D02*
X1601Y1463D01*
X1581Y1462D02*
X1602Y1462D01*
X1581Y1461D02*
X1604Y1461D01*
X1582Y1460D02*
X1606Y1460D01*
X1583Y1459D02*
X1612Y1459D01*
X1582Y1399D02*
X1608Y1399D01*
X1582Y1398D02*
X1605Y1398D01*
X1581Y1397D02*
X1603Y1397D01*
X1581Y1396D02*
X1602Y1396D01*
X1580Y1395D02*
X1601Y1395D01*
X1580Y1394D02*
X1599Y1394D01*
X1579Y1393D02*
X1598Y1393D01*
X1579Y1392D02*
X1598Y1392D01*
X1579Y1391D02*
X1597Y1391D01*
X1578Y1390D02*
X1596Y1390D01*
X1578Y1389D02*
X1595Y1389D01*
X1578Y1388D02*
X1595Y1388D01*
X1578Y1387D02*
X1594Y1387D01*
X1577Y1386D02*
X1594Y1386D01*
X1577Y1385D02*
X1594Y1385D01*
X1577Y1384D02*
X1593Y1384D01*
X1577Y1383D02*
X1593Y1383D01*
X1577Y1382D02*
X1593Y1382D01*
X1577Y1381D02*
X1593Y1381D01*
X1577Y1380D02*
X1593Y1380D01*
X1577Y1379D02*
X1593Y1379D01*
X1577Y1378D02*
X1593Y1378D01*
X1577Y1377D02*
X1593Y1377D01*
X1577Y1376D02*
X1593Y1376D01*
X1577Y1375D02*
X1593Y1375D01*
X1577Y1374D02*
X1594Y1374D01*
X1577Y1373D02*
X1594Y1373D01*
X1577Y1372D02*
X1594Y1372D01*
X1578Y1371D02*
X1595Y1371D01*
X1578Y1370D02*
X1595Y1370D01*
X1578Y1369D02*
X1596Y1369D01*
X1578Y1368D02*
X1596Y1368D01*
X1579Y1367D02*
X1597Y1367D01*
X1579Y1366D02*
X1598Y1366D01*
X1580Y1365D02*
X1599Y1365D01*
X1580Y1364D02*
X1600Y1364D01*
X1581Y1363D02*
X1601Y1363D01*
X1581Y1362D02*
X1602Y1362D01*
X1582Y1361D02*
X1604Y1361D01*
X1582Y1360D02*
X1607Y1360D01*
X1583Y1359D02*
X1612Y1359D01*
X603Y915D02*
X612Y915D01*
X600Y914D02*
X615Y914D01*
X598Y913D02*
X617Y913D01*
X596Y912D02*
X619Y912D01*
X594Y911D02*
X621Y911D01*
X592Y910D02*
X623Y910D01*
X590Y909D02*
X625Y909D01*
X588Y908D02*
X627Y908D01*
X586Y907D02*
X603Y907D01*
X612Y907D02*
X629Y907D01*
X584Y906D02*
X601Y906D01*
X614Y906D02*
X631Y906D01*
X583Y905D02*
X599Y905D01*
X616Y905D02*
X633Y905D01*
X581Y904D02*
X597Y904D01*
X618Y904D02*
X634Y904D01*
X580Y903D02*
X595Y903D01*
X620Y903D02*
X635Y903D01*
X580Y902D02*
X593Y902D01*
X622Y902D02*
X636Y902D01*
X579Y901D02*
X591Y901D01*
X624Y901D02*
X636Y901D01*
X578Y900D02*
X589Y900D01*
X626Y900D02*
X637Y900D01*
X578Y899D02*
X587Y899D01*
X628Y899D02*
X637Y899D01*
X578Y898D02*
X585Y898D01*
X630Y898D02*
X637Y898D01*
X577Y897D02*
X585Y897D01*
X630Y897D02*
X638Y897D01*
X577Y896D02*
X584Y896D01*
X631Y896D02*
X638Y896D01*
X577Y895D02*
X584Y895D01*
X631Y895D02*
X638Y895D01*
X577Y894D02*
X584Y894D01*
X631Y894D02*
X638Y894D01*
X577Y893D02*
X584Y893D01*
X631Y893D02*
X638Y893D01*
X577Y892D02*
X638Y892D01*
X577Y891D02*
X638Y891D01*
X577Y890D02*
X638Y890D01*
X577Y889D02*
X638Y889D01*
X577Y888D02*
X638Y888D01*
X577Y887D02*
X638Y887D01*
X577Y886D02*
X638Y886D01*
X577Y885D02*
X638Y885D01*
X577Y884D02*
X584Y884D01*
X631Y884D02*
X638Y884D01*
X577Y883D02*
X584Y883D01*
X631Y883D02*
X638Y883D01*
X577Y882D02*
X584Y882D01*
X631Y882D02*
X638Y882D01*
X577Y881D02*
X584Y881D01*
X631Y881D02*
X638Y881D01*
X577Y880D02*
X584Y880D01*
X631Y880D02*
X638Y880D01*
X578Y879D02*
X584Y879D01*
X631Y879D02*
X637Y879D01*
X578Y878D02*
X583Y878D01*
X632Y878D02*
X637Y878D01*
X580Y877D02*
X582Y877D01*
X633Y877D02*
X635Y877D01*
X580Y859D02*
X637Y859D01*
X579Y858D02*
X638Y858D01*
X578Y857D02*
X638Y857D01*
X577Y856D02*
X638Y856D01*
X577Y855D02*
X638Y855D01*
X577Y854D02*
X638Y854D01*
X578Y853D02*
X638Y853D01*
X579Y852D02*
X638Y852D01*
X624Y851D02*
X638Y851D01*
X622Y850D02*
X638Y850D01*
X620Y849D02*
X638Y849D01*
X617Y848D02*
X636Y848D01*
X615Y847D02*
X634Y847D01*
X613Y846D02*
X632Y846D01*
X610Y845D02*
X629Y845D01*
X608Y844D02*
X627Y844D01*
X606Y843D02*
X625Y843D01*
X604Y842D02*
X622Y842D01*
X601Y841D02*
X620Y841D01*
X599Y840D02*
X618Y840D01*
X597Y839D02*
X616Y839D01*
X594Y838D02*
X613Y838D01*
X592Y837D02*
X611Y837D01*
X590Y836D02*
X609Y836D01*
X588Y835D02*
X607Y835D01*
X585Y834D02*
X604Y834D01*
X583Y833D02*
X602Y833D01*
X581Y832D02*
X600Y832D01*
X578Y831D02*
X597Y831D01*
X577Y830D02*
X595Y830D01*
X577Y829D02*
X593Y829D01*
X577Y828D02*
X592Y828D01*
X577Y827D02*
X636Y827D01*
X577Y826D02*
X637Y826D01*
X577Y825D02*
X637Y825D01*
X577Y824D02*
X638Y824D01*
X577Y823D02*
X637Y823D01*
X577Y822D02*
X637Y822D01*
X577Y821D02*
X636Y821D01*
X579Y802D02*
X582Y802D01*
X611Y802D02*
X629Y802D01*
X578Y801D02*
X583Y801D01*
X611Y801D02*
X631Y801D01*
X578Y800D02*
X584Y800D01*
X611Y800D02*
X633Y800D01*
X577Y799D02*
X584Y799D01*
X611Y799D02*
X634Y799D01*
X577Y798D02*
X584Y798D01*
X611Y798D02*
X635Y798D01*
X577Y797D02*
X584Y797D01*
X611Y797D02*
X636Y797D01*
X577Y796D02*
X584Y796D01*
X611Y796D02*
X636Y796D01*
X577Y795D02*
X584Y795D01*
X611Y795D02*
X637Y795D01*
X577Y794D02*
X584Y794D01*
X611Y794D02*
X618Y794D01*
X629Y794D02*
X637Y794D01*
X577Y793D02*
X584Y793D01*
X611Y793D02*
X618Y793D01*
X630Y793D02*
X637Y793D01*
X577Y792D02*
X584Y792D01*
X611Y792D02*
X618Y792D01*
X630Y792D02*
X638Y792D01*
X577Y791D02*
X584Y791D01*
X611Y791D02*
X618Y791D01*
X631Y791D02*
X638Y791D01*
X577Y790D02*
X584Y790D01*
X611Y790D02*
X618Y790D01*
X631Y790D02*
X638Y790D01*
X577Y789D02*
X584Y789D01*
X611Y789D02*
X618Y789D01*
X631Y789D02*
X638Y789D01*
X577Y788D02*
X584Y788D01*
X611Y788D02*
X618Y788D01*
X631Y788D02*
X638Y788D01*
X577Y787D02*
X584Y787D01*
X611Y787D02*
X618Y787D01*
X631Y787D02*
X638Y787D01*
X577Y786D02*
X584Y786D01*
X611Y786D02*
X617Y786D01*
X631Y786D02*
X638Y786D01*
X577Y785D02*
X585Y785D01*
X611Y785D02*
X617Y785D01*
X631Y785D02*
X638Y785D01*
X578Y784D02*
X586Y784D01*
X612Y784D02*
X616Y784D01*
X631Y784D02*
X638Y784D01*
X578Y783D02*
X587Y783D01*
X614Y783D02*
X614Y783D01*
X631Y783D02*
X638Y783D01*
X578Y782D02*
X588Y782D01*
X631Y782D02*
X638Y782D01*
X579Y781D02*
X589Y781D01*
X631Y781D02*
X638Y781D01*
X579Y780D02*
X590Y780D01*
X631Y780D02*
X638Y780D01*
X580Y779D02*
X592Y779D01*
X631Y779D02*
X638Y779D01*
X581Y778D02*
X593Y778D01*
X631Y778D02*
X638Y778D01*
X582Y777D02*
X594Y777D01*
X631Y777D02*
X638Y777D01*
X584Y776D02*
X596Y776D01*
X631Y776D02*
X638Y776D01*
X585Y775D02*
X597Y775D01*
X631Y775D02*
X638Y775D01*
X586Y774D02*
X598Y774D01*
X630Y774D02*
X638Y774D01*
X587Y773D02*
X599Y773D01*
X630Y773D02*
X637Y773D01*
X589Y772D02*
X601Y772D01*
X629Y772D02*
X637Y772D01*
X590Y771D02*
X637Y771D01*
X591Y770D02*
X636Y770D01*
X593Y769D02*
X636Y769D01*
X594Y768D02*
X635Y768D01*
X595Y767D02*
X634Y767D01*
X597Y766D02*
X633Y766D01*
X598Y765D02*
X632Y765D01*
X601Y764D02*
X630Y764D01*
X290Y713D02*
X305Y713D01*
X288Y712D02*
X308Y712D01*
X287Y711D02*
X312Y711D01*
X287Y710D02*
X315Y710D01*
X287Y709D02*
X318Y709D01*
X288Y708D02*
X322Y708D01*
X304Y707D02*
X325Y707D01*
X308Y706D02*
X329Y706D01*
X311Y705D02*
X332Y705D01*
X315Y704D02*
X335Y704D01*
X318Y703D02*
X339Y703D01*
X321Y702D02*
X342Y702D01*
X325Y701D02*
X346Y701D01*
X328Y700D02*
X347Y700D01*
X332Y699D02*
X347Y699D01*
X332Y698D02*
X347Y698D01*
X329Y697D02*
X347Y697D01*
X325Y696D02*
X346Y696D01*
X322Y695D02*
X343Y695D01*
X318Y694D02*
X339Y694D01*
X315Y693D02*
X336Y693D01*
X312Y692D02*
X333Y692D01*
X308Y691D02*
X329Y691D01*
X305Y690D02*
X326Y690D01*
X289Y689D02*
X322Y689D01*
X288Y688D02*
X319Y688D01*
X287Y687D02*
X315Y687D01*
X287Y686D02*
X312Y686D01*
X288Y685D02*
X309Y685D01*
X290Y684D02*
X305Y684D01*
X292Y670D02*
X313Y670D01*
X321Y670D02*
X343Y670D01*
X290Y669D02*
X316Y669D01*
X319Y669D02*
X345Y669D01*
X289Y668D02*
X346Y668D01*
X288Y667D02*
X347Y667D01*
X287Y666D02*
X347Y666D01*
X287Y665D02*
X347Y665D01*
X287Y664D02*
X294Y664D01*
X312Y664D02*
X322Y664D01*
X341Y664D02*
X348Y664D01*
X287Y663D02*
X294Y663D01*
X313Y663D02*
X321Y663D01*
X341Y663D02*
X348Y663D01*
X287Y662D02*
X294Y662D01*
X314Y662D02*
X321Y662D01*
X341Y662D02*
X348Y662D01*
X287Y661D02*
X294Y661D01*
X314Y661D02*
X321Y661D01*
X341Y661D02*
X348Y661D01*
X287Y660D02*
X294Y660D01*
X314Y660D02*
X321Y660D01*
X341Y660D02*
X348Y660D01*
X287Y659D02*
X294Y659D01*
X314Y659D02*
X321Y659D01*
X341Y659D02*
X348Y659D01*
X287Y658D02*
X294Y658D01*
X314Y658D02*
X321Y658D01*
X341Y658D02*
X348Y658D01*
X287Y657D02*
X294Y657D01*
X314Y657D02*
X321Y657D01*
X341Y657D02*
X348Y657D01*
X287Y656D02*
X294Y656D01*
X314Y656D02*
X321Y656D01*
X341Y656D02*
X348Y656D01*
X287Y655D02*
X294Y655D01*
X314Y655D02*
X321Y655D01*
X341Y655D02*
X348Y655D01*
X287Y654D02*
X294Y654D01*
X314Y654D02*
X321Y654D01*
X341Y654D02*
X348Y654D01*
X287Y653D02*
X294Y653D01*
X314Y653D02*
X321Y653D01*
X341Y653D02*
X348Y653D01*
X287Y652D02*
X294Y652D01*
X314Y652D02*
X321Y652D01*
X341Y652D02*
X348Y652D01*
X287Y651D02*
X294Y651D01*
X314Y651D02*
X321Y651D01*
X341Y651D02*
X348Y651D01*
X287Y650D02*
X294Y650D01*
X314Y650D02*
X321Y650D01*
X341Y650D02*
X348Y650D01*
X287Y649D02*
X294Y649D01*
X314Y649D02*
X320Y649D01*
X341Y649D02*
X348Y649D01*
X287Y648D02*
X294Y648D01*
X315Y648D02*
X320Y648D01*
X341Y648D02*
X348Y648D01*
X287Y647D02*
X294Y647D01*
X341Y647D02*
X348Y647D01*
X287Y646D02*
X294Y646D01*
X341Y646D02*
X348Y646D01*
X287Y645D02*
X294Y645D01*
X341Y645D02*
X348Y645D01*
X287Y644D02*
X294Y644D01*
X341Y644D02*
X347Y644D01*
X288Y643D02*
X294Y643D01*
X341Y643D02*
X347Y643D01*
X289Y642D02*
X293Y642D01*
X342Y642D02*
X346Y642D01*
X326Y619D02*
X335Y619D01*
X325Y618D02*
X337Y618D01*
X324Y617D02*
X337Y617D01*
X324Y616D02*
X338Y616D01*
X324Y615D02*
X338Y615D01*
X324Y614D02*
X338Y614D01*
X324Y613D02*
X338Y613D01*
X324Y612D02*
X338Y612D01*
X324Y611D02*
X338Y611D01*
X324Y610D02*
X337Y610D01*
X324Y609D02*
X337Y609D01*
X326Y608D02*
X336Y608D01*
X1122Y589D02*
X1124Y589D01*
X1120Y588D02*
X1125Y588D01*
X1120Y587D02*
X1126Y587D01*
X1119Y586D02*
X1126Y586D01*
X292Y585D02*
X313Y585D01*
X321Y585D02*
X343Y585D01*
X1119Y585D02*
X1126Y585D01*
X290Y584D02*
X316Y584D01*
X319Y584D02*
X345Y584D01*
X1119Y584D02*
X1126Y584D01*
X289Y583D02*
X346Y583D01*
X920Y583D02*
X925Y583D01*
X1119Y583D02*
X1126Y583D01*
X288Y582D02*
X347Y582D01*
X917Y582D02*
X926Y582D01*
X1119Y582D02*
X1126Y582D01*
X287Y581D02*
X347Y581D01*
X913Y581D02*
X926Y581D01*
X1119Y581D02*
X1126Y581D01*
X287Y580D02*
X347Y580D01*
X910Y580D02*
X926Y580D01*
X1119Y580D02*
X1126Y580D01*
X287Y579D02*
X294Y579D01*
X312Y579D02*
X322Y579D01*
X341Y579D02*
X348Y579D01*
X907Y579D02*
X926Y579D01*
X1119Y579D02*
X1126Y579D01*
X287Y578D02*
X294Y578D01*
X313Y578D02*
X321Y578D01*
X341Y578D02*
X348Y578D01*
X903Y578D02*
X926Y578D01*
X1119Y578D02*
X1126Y578D01*
X287Y577D02*
X294Y577D01*
X314Y577D02*
X321Y577D01*
X341Y577D02*
X348Y577D01*
X900Y577D02*
X925Y577D01*
X1119Y577D02*
X1126Y577D01*
X287Y576D02*
X294Y576D01*
X314Y576D02*
X321Y576D01*
X341Y576D02*
X348Y576D01*
X896Y576D02*
X923Y576D01*
X1119Y576D02*
X1126Y576D01*
X287Y575D02*
X294Y575D01*
X314Y575D02*
X321Y575D01*
X341Y575D02*
X348Y575D01*
X893Y575D02*
X920Y575D01*
X1119Y575D02*
X1126Y575D01*
X287Y574D02*
X294Y574D01*
X314Y574D02*
X321Y574D01*
X341Y574D02*
X348Y574D01*
X889Y574D02*
X917Y574D01*
X1119Y574D02*
X1126Y574D01*
X287Y573D02*
X294Y573D01*
X314Y573D02*
X321Y573D01*
X341Y573D02*
X348Y573D01*
X886Y573D02*
X913Y573D01*
X1119Y573D02*
X1126Y573D01*
X287Y572D02*
X294Y572D01*
X314Y572D02*
X321Y572D01*
X341Y572D02*
X348Y572D01*
X883Y572D02*
X913Y572D01*
X1119Y572D02*
X1126Y572D01*
X287Y571D02*
X294Y571D01*
X314Y571D02*
X321Y571D01*
X341Y571D02*
X348Y571D01*
X879Y571D02*
X913Y571D01*
X1119Y571D02*
X1126Y571D01*
X287Y570D02*
X294Y570D01*
X314Y570D02*
X321Y570D01*
X341Y570D02*
X348Y570D01*
X876Y570D02*
X903Y570D01*
X906Y570D02*
X913Y570D01*
X1119Y570D02*
X1126Y570D01*
X287Y569D02*
X294Y569D01*
X314Y569D02*
X321Y569D01*
X341Y569D02*
X348Y569D01*
X872Y569D02*
X900Y569D01*
X906Y569D02*
X913Y569D01*
X1119Y569D02*
X1126Y569D01*
X287Y568D02*
X294Y568D01*
X314Y568D02*
X321Y568D01*
X341Y568D02*
X348Y568D01*
X869Y568D02*
X896Y568D01*
X906Y568D02*
X913Y568D01*
X1119Y568D02*
X1126Y568D01*
X287Y567D02*
X294Y567D01*
X314Y567D02*
X321Y567D01*
X341Y567D02*
X348Y567D01*
X867Y567D02*
X893Y567D01*
X906Y567D02*
X913Y567D01*
X1119Y567D02*
X1126Y567D01*
X287Y566D02*
X294Y566D01*
X314Y566D02*
X321Y566D01*
X341Y566D02*
X348Y566D01*
X867Y566D02*
X890Y566D01*
X906Y566D02*
X913Y566D01*
X1119Y566D02*
X1126Y566D01*
X287Y565D02*
X294Y565D01*
X314Y565D02*
X321Y565D01*
X341Y565D02*
X348Y565D01*
X866Y565D02*
X886Y565D01*
X906Y565D02*
X913Y565D01*
X1119Y565D02*
X1126Y565D01*
X287Y564D02*
X294Y564D01*
X314Y564D02*
X320Y564D01*
X341Y564D02*
X348Y564D01*
X866Y564D02*
X884Y564D01*
X906Y564D02*
X913Y564D01*
X1119Y564D02*
X1126Y564D01*
X287Y563D02*
X294Y563D01*
X315Y563D02*
X320Y563D01*
X341Y563D02*
X348Y563D01*
X866Y563D02*
X887Y563D01*
X906Y563D02*
X913Y563D01*
X1119Y563D02*
X1126Y563D01*
X287Y562D02*
X294Y562D01*
X341Y562D02*
X348Y562D01*
X867Y562D02*
X891Y562D01*
X906Y562D02*
X913Y562D01*
X1119Y562D02*
X1126Y562D01*
X287Y561D02*
X294Y561D01*
X341Y561D02*
X348Y561D01*
X868Y561D02*
X894Y561D01*
X906Y561D02*
X913Y561D01*
X1119Y561D02*
X1126Y561D01*
X287Y560D02*
X294Y560D01*
X341Y560D02*
X348Y560D01*
X870Y560D02*
X897Y560D01*
X906Y560D02*
X913Y560D01*
X1119Y560D02*
X1126Y560D01*
X287Y559D02*
X294Y559D01*
X341Y559D02*
X347Y559D01*
X874Y559D02*
X901Y559D01*
X906Y559D02*
X913Y559D01*
X1119Y559D02*
X1126Y559D01*
X288Y558D02*
X294Y558D01*
X341Y558D02*
X347Y558D01*
X877Y558D02*
X904Y558D01*
X906Y558D02*
X913Y558D01*
X1069Y558D02*
X1126Y558D01*
X289Y557D02*
X293Y557D01*
X342Y557D02*
X346Y557D01*
X880Y557D02*
X913Y557D01*
X1067Y557D02*
X1126Y557D01*
X884Y556D02*
X913Y556D01*
X1066Y556D02*
X1126Y556D01*
X887Y555D02*
X914Y555D01*
X1066Y555D02*
X1126Y555D01*
X891Y554D02*
X918Y554D01*
X1066Y554D02*
X1126Y554D01*
X894Y553D02*
X921Y553D01*
X1066Y553D02*
X1126Y553D01*
X897Y552D02*
X924Y552D01*
X1067Y552D02*
X1126Y552D01*
X901Y551D02*
X925Y551D01*
X1068Y551D02*
X1126Y551D01*
X904Y550D02*
X926Y550D01*
X908Y549D02*
X926Y549D01*
X911Y548D02*
X926Y548D01*
X914Y547D02*
X926Y547D01*
X918Y546D02*
X925Y546D01*
X921Y545D02*
X924Y545D01*
X1068Y532D02*
X1071Y532D01*
X1121Y532D02*
X1124Y532D01*
X1067Y531D02*
X1072Y531D01*
X1120Y531D02*
X1126Y531D01*
X1066Y530D02*
X1073Y530D01*
X1120Y530D02*
X1126Y530D01*
X1066Y529D02*
X1073Y529D01*
X1119Y529D02*
X1126Y529D01*
X1066Y528D02*
X1073Y528D01*
X1119Y528D02*
X1126Y528D01*
X895Y527D02*
X898Y527D01*
X1066Y527D02*
X1073Y527D01*
X1119Y527D02*
X1126Y527D01*
X891Y526D02*
X902Y526D01*
X1066Y526D02*
X1073Y526D01*
X1119Y526D02*
X1126Y526D01*
X888Y525D02*
X904Y525D01*
X1066Y525D02*
X1073Y525D01*
X1119Y525D02*
X1126Y525D01*
X886Y524D02*
X906Y524D01*
X1066Y524D02*
X1073Y524D01*
X1119Y524D02*
X1126Y524D01*
X884Y523D02*
X908Y523D01*
X1066Y523D02*
X1073Y523D01*
X1119Y523D02*
X1126Y523D01*
X882Y522D02*
X910Y522D01*
X1066Y522D02*
X1073Y522D01*
X1119Y522D02*
X1126Y522D01*
X880Y521D02*
X912Y521D01*
X1066Y521D02*
X1073Y521D01*
X1119Y521D02*
X1126Y521D01*
X878Y520D02*
X914Y520D01*
X1066Y520D02*
X1073Y520D01*
X1119Y520D02*
X1126Y520D01*
X876Y519D02*
X894Y519D01*
X898Y519D02*
X916Y519D01*
X1066Y519D02*
X1073Y519D01*
X1119Y519D02*
X1126Y519D01*
X874Y518D02*
X891Y518D01*
X901Y518D02*
X918Y518D01*
X1066Y518D02*
X1073Y518D01*
X1119Y518D02*
X1126Y518D01*
X872Y517D02*
X889Y517D01*
X903Y517D02*
X920Y517D01*
X1066Y517D02*
X1073Y517D01*
X1119Y517D02*
X1126Y517D01*
X871Y516D02*
X887Y516D01*
X905Y516D02*
X922Y516D01*
X1066Y516D02*
X1073Y516D01*
X1119Y516D02*
X1126Y516D01*
X870Y515D02*
X885Y515D01*
X907Y515D02*
X923Y515D01*
X1066Y515D02*
X1073Y515D01*
X1119Y515D02*
X1126Y515D01*
X869Y514D02*
X883Y514D01*
X909Y514D02*
X924Y514D01*
X1066Y514D02*
X1073Y514D01*
X1119Y514D02*
X1126Y514D01*
X868Y513D02*
X881Y513D01*
X911Y513D02*
X925Y513D01*
X1066Y513D02*
X1073Y513D01*
X1119Y513D02*
X1126Y513D01*
X868Y512D02*
X879Y512D01*
X913Y512D02*
X925Y512D01*
X1066Y512D02*
X1073Y512D01*
X1119Y512D02*
X1126Y512D01*
X867Y511D02*
X877Y511D01*
X915Y511D02*
X925Y511D01*
X1066Y511D02*
X1074Y511D01*
X1118Y511D02*
X1126Y511D01*
X867Y510D02*
X875Y510D01*
X917Y510D02*
X926Y510D01*
X1067Y510D02*
X1076Y510D01*
X1116Y510D02*
X1126Y510D01*
X866Y509D02*
X874Y509D01*
X919Y509D02*
X926Y509D01*
X1067Y509D02*
X1078Y509D01*
X1114Y509D02*
X1125Y509D01*
X866Y508D02*
X873Y508D01*
X919Y508D02*
X926Y508D01*
X1068Y508D02*
X1080Y508D01*
X1112Y508D02*
X1125Y508D01*
X866Y507D02*
X873Y507D01*
X919Y507D02*
X926Y507D01*
X1068Y507D02*
X1082Y507D01*
X1110Y507D02*
X1124Y507D01*
X866Y506D02*
X873Y506D01*
X919Y506D02*
X926Y506D01*
X1069Y506D02*
X1084Y506D01*
X1108Y506D02*
X1123Y506D01*
X866Y505D02*
X873Y505D01*
X919Y505D02*
X926Y505D01*
X1070Y505D02*
X1086Y505D01*
X1106Y505D02*
X1122Y505D01*
X866Y504D02*
X873Y504D01*
X919Y504D02*
X926Y504D01*
X1071Y504D02*
X1088Y504D01*
X1104Y504D02*
X1121Y504D01*
X866Y503D02*
X926Y503D01*
X1073Y503D02*
X1090Y503D01*
X1102Y503D02*
X1119Y503D01*
X866Y502D02*
X926Y502D01*
X1075Y502D02*
X1093Y502D01*
X1100Y502D02*
X1117Y502D01*
X866Y501D02*
X926Y501D01*
X1077Y501D02*
X1115Y501D01*
X866Y500D02*
X926Y500D01*
X1079Y500D02*
X1113Y500D01*
X866Y499D02*
X926Y499D01*
X1081Y499D02*
X1111Y499D01*
X866Y498D02*
X926Y498D01*
X1083Y498D02*
X1109Y498D01*
X866Y497D02*
X926Y497D01*
X1085Y497D02*
X1107Y497D01*
X866Y496D02*
X926Y496D01*
X1087Y496D02*
X1105Y496D01*
X866Y495D02*
X873Y495D01*
X919Y495D02*
X926Y495D01*
X1090Y495D02*
X1103Y495D01*
X866Y494D02*
X873Y494D01*
X919Y494D02*
X926Y494D01*
X1093Y494D02*
X1100Y494D01*
X866Y493D02*
X873Y493D01*
X919Y493D02*
X926Y493D01*
X866Y492D02*
X873Y492D01*
X919Y492D02*
X926Y492D01*
X866Y491D02*
X873Y491D01*
X920Y491D02*
X926Y491D01*
X867Y490D02*
X872Y490D01*
X920Y490D02*
X926Y490D01*
X867Y489D02*
X872Y489D01*
X921Y489D02*
X925Y489D01*
X1076Y476D02*
X1076Y476D01*
X1118Y476D02*
X1118Y476D01*
X1072Y475D02*
X1078Y475D01*
X1114Y475D02*
X1121Y475D01*
X1070Y474D02*
X1079Y474D01*
X1113Y474D02*
X1123Y474D01*
X1069Y473D02*
X1079Y473D01*
X1111Y473D02*
X1124Y473D01*
X1068Y472D02*
X1080Y472D01*
X1110Y472D02*
X1125Y472D01*
X1068Y471D02*
X1079Y471D01*
X1109Y471D02*
X1125Y471D01*
X874Y470D02*
X877Y470D01*
X916Y470D02*
X920Y470D01*
X1067Y470D02*
X1079Y470D01*
X1108Y470D02*
X1126Y470D01*
X871Y469D02*
X879Y469D01*
X914Y469D02*
X922Y469D01*
X1067Y469D02*
X1078Y469D01*
X1106Y469D02*
X1126Y469D01*
X870Y468D02*
X879Y468D01*
X912Y468D02*
X924Y468D01*
X1066Y468D02*
X1075Y468D01*
X1105Y468D02*
X1126Y468D01*
X869Y467D02*
X880Y467D01*
X911Y467D02*
X924Y467D01*
X1066Y467D02*
X1074Y467D01*
X1104Y467D02*
X1116Y467D01*
X1119Y467D02*
X1126Y467D01*
X868Y466D02*
X880Y466D01*
X910Y466D02*
X925Y466D01*
X1066Y466D02*
X1073Y466D01*
X1102Y466D02*
X1115Y466D01*
X1119Y466D02*
X1126Y466D01*
X867Y465D02*
X879Y465D01*
X908Y465D02*
X926Y465D01*
X1066Y465D02*
X1073Y465D01*
X1101Y465D02*
X1113Y465D01*
X1119Y465D02*
X1126Y465D01*
X867Y464D02*
X879Y464D01*
X907Y464D02*
X926Y464D01*
X1066Y464D02*
X1073Y464D01*
X1100Y464D02*
X1112Y464D01*
X1119Y464D02*
X1126Y464D01*
X867Y463D02*
X877Y463D01*
X906Y463D02*
X926Y463D01*
X1066Y463D02*
X1073Y463D01*
X1099Y463D02*
X1111Y463D01*
X1119Y463D02*
X1126Y463D01*
X866Y462D02*
X874Y462D01*
X905Y462D02*
X917Y462D01*
X919Y462D02*
X926Y462D01*
X1066Y462D02*
X1073Y462D01*
X1097Y462D02*
X1109Y462D01*
X1119Y462D02*
X1126Y462D01*
X866Y461D02*
X873Y461D01*
X903Y461D02*
X915Y461D01*
X919Y461D02*
X926Y461D01*
X1066Y461D02*
X1073Y461D01*
X1096Y461D02*
X1108Y461D01*
X1119Y461D02*
X1126Y461D01*
X866Y460D02*
X873Y460D01*
X902Y460D02*
X914Y460D01*
X919Y460D02*
X926Y460D01*
X1066Y460D02*
X1073Y460D01*
X1095Y460D02*
X1107Y460D01*
X1119Y460D02*
X1126Y460D01*
X866Y459D02*
X873Y459D01*
X901Y459D02*
X913Y459D01*
X919Y459D02*
X926Y459D01*
X1066Y459D02*
X1073Y459D01*
X1093Y459D02*
X1106Y459D01*
X1119Y459D02*
X1126Y459D01*
X866Y458D02*
X873Y458D01*
X899Y458D02*
X912Y458D01*
X919Y458D02*
X926Y458D01*
X1066Y458D02*
X1073Y458D01*
X1092Y458D02*
X1104Y458D01*
X1119Y458D02*
X1126Y458D01*
X866Y457D02*
X873Y457D01*
X898Y457D02*
X910Y457D01*
X919Y457D02*
X926Y457D01*
X1066Y457D02*
X1073Y457D01*
X1091Y457D02*
X1103Y457D01*
X1119Y457D02*
X1126Y457D01*
X866Y456D02*
X873Y456D01*
X897Y456D02*
X909Y456D01*
X919Y456D02*
X926Y456D01*
X1066Y456D02*
X1073Y456D01*
X1090Y456D02*
X1102Y456D01*
X1119Y456D02*
X1126Y456D01*
X866Y455D02*
X873Y455D01*
X896Y455D02*
X908Y455D01*
X919Y455D02*
X926Y455D01*
X1066Y455D02*
X1073Y455D01*
X1088Y455D02*
X1100Y455D01*
X1119Y455D02*
X1126Y455D01*
X866Y454D02*
X873Y454D01*
X894Y454D02*
X906Y454D01*
X919Y454D02*
X926Y454D01*
X1066Y454D02*
X1073Y454D01*
X1087Y454D02*
X1099Y454D01*
X1119Y454D02*
X1126Y454D01*
X866Y453D02*
X873Y453D01*
X893Y453D02*
X905Y453D01*
X919Y453D02*
X926Y453D01*
X1066Y453D02*
X1073Y453D01*
X1086Y453D02*
X1098Y453D01*
X1119Y453D02*
X1126Y453D01*
X866Y452D02*
X873Y452D01*
X892Y452D02*
X904Y452D01*
X919Y452D02*
X926Y452D01*
X1066Y452D02*
X1073Y452D01*
X1084Y452D02*
X1097Y452D01*
X1119Y452D02*
X1126Y452D01*
X866Y451D02*
X873Y451D01*
X890Y451D02*
X903Y451D01*
X919Y451D02*
X926Y451D01*
X1066Y451D02*
X1073Y451D01*
X1083Y451D02*
X1095Y451D01*
X1119Y451D02*
X1126Y451D01*
X866Y450D02*
X873Y450D01*
X889Y450D02*
X901Y450D01*
X919Y450D02*
X926Y450D01*
X1066Y450D02*
X1073Y450D01*
X1082Y450D02*
X1094Y450D01*
X1119Y450D02*
X1126Y450D01*
X866Y449D02*
X873Y449D01*
X888Y449D02*
X900Y449D01*
X919Y449D02*
X926Y449D01*
X1066Y449D02*
X1073Y449D01*
X1081Y449D02*
X1093Y449D01*
X1119Y449D02*
X1126Y449D01*
X866Y448D02*
X873Y448D01*
X887Y448D02*
X899Y448D01*
X919Y448D02*
X926Y448D01*
X1066Y448D02*
X1073Y448D01*
X1079Y448D02*
X1091Y448D01*
X1119Y448D02*
X1126Y448D01*
X866Y447D02*
X873Y447D01*
X885Y447D02*
X897Y447D01*
X919Y447D02*
X926Y447D01*
X1066Y447D02*
X1073Y447D01*
X1078Y447D02*
X1090Y447D01*
X1119Y447D02*
X1126Y447D01*
X866Y446D02*
X873Y446D01*
X884Y446D02*
X896Y446D01*
X919Y446D02*
X926Y446D01*
X1066Y446D02*
X1073Y446D01*
X1077Y446D02*
X1089Y446D01*
X1119Y446D02*
X1126Y446D01*
X866Y445D02*
X873Y445D01*
X883Y445D02*
X895Y445D01*
X919Y445D02*
X926Y445D01*
X1066Y445D02*
X1073Y445D01*
X1075Y445D02*
X1088Y445D01*
X1118Y445D02*
X1126Y445D01*
X866Y444D02*
X873Y444D01*
X881Y444D02*
X894Y444D01*
X919Y444D02*
X926Y444D01*
X1066Y444D02*
X1086Y444D01*
X1114Y444D02*
X1126Y444D01*
X866Y443D02*
X873Y443D01*
X880Y443D02*
X892Y443D01*
X919Y443D02*
X926Y443D01*
X1066Y443D02*
X1085Y443D01*
X1113Y443D02*
X1125Y443D01*
X866Y442D02*
X873Y442D01*
X879Y442D02*
X891Y442D01*
X919Y442D02*
X926Y442D01*
X1067Y442D02*
X1084Y442D01*
X1113Y442D02*
X1125Y442D01*
X866Y441D02*
X873Y441D01*
X878Y441D02*
X890Y441D01*
X919Y441D02*
X926Y441D01*
X1067Y441D02*
X1082Y441D01*
X1113Y441D02*
X1124Y441D01*
X866Y440D02*
X873Y440D01*
X876Y440D02*
X888Y440D01*
X919Y440D02*
X926Y440D01*
X1068Y440D02*
X1081Y440D01*
X1113Y440D02*
X1123Y440D01*
X866Y439D02*
X887Y439D01*
X916Y439D02*
X926Y439D01*
X1069Y439D02*
X1080Y439D01*
X1113Y439D02*
X1122Y439D01*
X866Y438D02*
X886Y438D01*
X914Y438D02*
X926Y438D01*
X1071Y438D02*
X1078Y438D01*
X1114Y438D02*
X1120Y438D01*
X867Y437D02*
X885Y437D01*
X913Y437D02*
X925Y437D01*
X1073Y437D02*
X1075Y437D01*
X1116Y437D02*
X1117Y437D01*
X867Y436D02*
X883Y436D01*
X913Y436D02*
X925Y436D01*
X868Y435D02*
X882Y435D01*
X913Y435D02*
X924Y435D01*
X869Y434D02*
X881Y434D01*
X913Y434D02*
X923Y434D01*
X870Y433D02*
X879Y433D01*
X914Y433D02*
X921Y433D01*
X871Y432D02*
X877Y432D01*
X915Y432D02*
X920Y432D01*
D02*
G04 End of Copper1*
M02*