; NON-PLATED HOLES START AT T1
; THROUGH (PLATED) HOLES START AT T100
M48
INCH
T100C0.040639
T101C0.038000
T102C0.031496
%
T100
X010150Y013785
X004150Y014784
X013150Y013785
X007150Y013785
X012150Y014784
X011150Y013785
X012150Y013785
X003150Y014784
X015150Y014784
X004150Y013785
X007150Y014784
X006150Y013785
X005150Y014784
X011150Y014784
X005150Y013785
X014150Y013785
X008150Y014784
X013150Y014784
X008150Y013785
X003150Y013785
X015150Y013785
X009150Y013785
X010150Y014784
X009150Y014784
X014150Y014784
X006150Y014784
T101
X004150Y006784
X009150Y006784
X011150Y006784
X010150Y006784
X007150Y006784
X006150Y006784
X005150Y006784
X008150Y006784
T102
X002150Y004784
X010150Y009784
X011150Y010784
X004150Y008784
T00
M30
