G04 MADE WITH FRITZING*
G04 WWW.FRITZING.ORG*
G04 DOUBLE SIDED*
G04 HOLES PLATED*
G04 CONTOUR ON CENTER OF CONTOUR VECTOR*
%ASAXBY*%
%FSLAX23Y23*%
%MOIN*%
%OFA0B0*%
%SFA1.0B1.0*%
%ADD10C,0.078000*%
%ADD11C,0.094488*%
%ADD12C,0.075361*%
%ADD13C,0.024000*%
%ADD14R,0.001000X0.001000*%
%LNCOPPER1*%
G90*
G70*
G54D10*
X1115Y678D03*
X1015Y678D03*
X915Y678D03*
X815Y678D03*
X715Y678D03*
X615Y678D03*
X515Y678D03*
X415Y678D03*
X1115Y678D03*
X1015Y678D03*
X915Y678D03*
X815Y678D03*
X715Y678D03*
X615Y678D03*
X515Y678D03*
X415Y678D03*
G54D11*
X1015Y978D03*
X215Y478D03*
X415Y878D03*
X1115Y1078D03*
G54D12*
X315Y1379D03*
X415Y1379D03*
X515Y1379D03*
X615Y1379D03*
X715Y1379D03*
X815Y1379D03*
X915Y1379D03*
X1015Y1379D03*
X1115Y1379D03*
X1215Y1379D03*
X1315Y1379D03*
X1415Y1379D03*
X1515Y1379D03*
X1515Y1478D03*
X1415Y1478D03*
X1315Y1478D03*
X1215Y1478D03*
X1115Y1478D03*
X1015Y1478D03*
X915Y1478D03*
X815Y1478D03*
X715Y1478D03*
X615Y1478D03*
X515Y1478D03*
X415Y1478D03*
X315Y1478D03*
G54D13*
X514Y1580D02*
X515Y1510D01*
D02*
X215Y1580D02*
X514Y1580D01*
D02*
X215Y505D02*
X215Y1580D01*
D02*
X515Y1078D02*
X515Y1347D01*
D02*
X1088Y1078D02*
X815Y1078D01*
D02*
X815Y1078D02*
X515Y1078D01*
D02*
X415Y978D02*
X415Y1347D01*
D02*
X988Y978D02*
X715Y978D01*
D02*
X715Y978D02*
X415Y978D01*
D02*
X315Y878D02*
X315Y1347D01*
D02*
X388Y878D02*
X315Y878D01*
G54D14*
X607Y916D02*
X609Y916D01*
X603Y915D02*
X613Y915D01*
X600Y914D02*
X616Y914D01*
X598Y913D02*
X618Y913D01*
X596Y912D02*
X620Y912D01*
X594Y911D02*
X622Y911D01*
X592Y910D02*
X624Y910D01*
X590Y909D02*
X626Y909D01*
X588Y908D02*
X606Y908D01*
X609Y908D02*
X628Y908D01*
X586Y907D02*
X603Y907D01*
X613Y907D02*
X630Y907D01*
X584Y906D02*
X601Y906D01*
X615Y906D02*
X632Y906D01*
X583Y905D02*
X599Y905D01*
X617Y905D02*
X633Y905D01*
X581Y904D02*
X597Y904D01*
X619Y904D02*
X634Y904D01*
X580Y903D02*
X595Y903D01*
X621Y903D02*
X635Y903D01*
X580Y902D02*
X593Y902D01*
X623Y902D02*
X636Y902D01*
X579Y901D02*
X591Y901D01*
X625Y901D02*
X637Y901D01*
X579Y900D02*
X589Y900D01*
X627Y900D02*
X637Y900D01*
X578Y899D02*
X587Y899D01*
X629Y899D02*
X637Y899D01*
X578Y898D02*
X585Y898D01*
X630Y898D02*
X638Y898D01*
X578Y897D02*
X585Y897D01*
X631Y897D02*
X638Y897D01*
X578Y896D02*
X585Y896D01*
X631Y896D02*
X638Y896D01*
X578Y895D02*
X584Y895D01*
X631Y895D02*
X638Y895D01*
X578Y894D02*
X584Y894D01*
X631Y894D02*
X638Y894D01*
X578Y893D02*
X585Y893D01*
X631Y893D02*
X638Y893D01*
X578Y892D02*
X638Y892D01*
X578Y891D02*
X638Y891D01*
X578Y890D02*
X638Y890D01*
X578Y889D02*
X638Y889D01*
X578Y888D02*
X638Y888D01*
X578Y887D02*
X638Y887D01*
X578Y886D02*
X638Y886D01*
X578Y885D02*
X638Y885D01*
X578Y884D02*
X584Y884D01*
X631Y884D02*
X638Y884D01*
X578Y883D02*
X584Y883D01*
X631Y883D02*
X638Y883D01*
X578Y882D02*
X584Y882D01*
X631Y882D02*
X638Y882D01*
X578Y881D02*
X584Y881D01*
X631Y881D02*
X638Y881D01*
X578Y880D02*
X584Y880D01*
X631Y880D02*
X638Y880D01*
X578Y879D02*
X584Y879D01*
X631Y879D02*
X637Y879D01*
X579Y878D02*
X583Y878D01*
X632Y878D02*
X637Y878D01*
X581Y877D02*
X581Y877D01*
X634Y877D02*
X635Y877D01*
X580Y859D02*
X638Y859D01*
X579Y858D02*
X638Y858D01*
X578Y857D02*
X638Y857D01*
X578Y856D02*
X638Y856D01*
X578Y855D02*
X638Y855D01*
X578Y854D02*
X638Y854D01*
X578Y853D02*
X638Y853D01*
X580Y852D02*
X638Y852D01*
X624Y851D02*
X638Y851D01*
X622Y850D02*
X638Y850D01*
X619Y849D02*
X638Y849D01*
X617Y848D02*
X636Y848D01*
X615Y847D02*
X634Y847D01*
X612Y846D02*
X631Y846D01*
X610Y845D02*
X629Y845D01*
X608Y844D02*
X627Y844D01*
X606Y843D02*
X625Y843D01*
X603Y842D02*
X622Y842D01*
X601Y841D02*
X620Y841D01*
X599Y840D02*
X618Y840D01*
X597Y839D02*
X615Y839D01*
X594Y838D02*
X613Y838D01*
X592Y837D02*
X611Y837D01*
X590Y836D02*
X609Y836D01*
X587Y835D02*
X606Y835D01*
X585Y834D02*
X604Y834D01*
X583Y833D02*
X602Y833D01*
X581Y832D02*
X599Y832D01*
X578Y831D02*
X597Y831D01*
X578Y830D02*
X595Y830D01*
X578Y829D02*
X593Y829D01*
X578Y828D02*
X635Y828D01*
X578Y827D02*
X637Y827D01*
X578Y826D02*
X637Y826D01*
X578Y825D02*
X638Y825D01*
X578Y824D02*
X638Y824D01*
X578Y823D02*
X638Y823D01*
X578Y822D02*
X637Y822D01*
X578Y821D02*
X636Y821D01*
X579Y802D02*
X583Y802D01*
X611Y802D02*
X630Y802D01*
X578Y801D02*
X584Y801D01*
X611Y801D02*
X632Y801D01*
X578Y800D02*
X584Y800D01*
X611Y800D02*
X633Y800D01*
X578Y799D02*
X584Y799D01*
X611Y799D02*
X635Y799D01*
X578Y798D02*
X584Y798D01*
X611Y798D02*
X635Y798D01*
X578Y797D02*
X584Y797D01*
X611Y797D02*
X636Y797D01*
X578Y796D02*
X584Y796D01*
X611Y796D02*
X637Y796D01*
X578Y795D02*
X584Y795D01*
X611Y795D02*
X637Y795D01*
X578Y794D02*
X584Y794D01*
X611Y794D02*
X618Y794D01*
X629Y794D02*
X637Y794D01*
X578Y793D02*
X584Y793D01*
X611Y793D02*
X618Y793D01*
X630Y793D02*
X638Y793D01*
X578Y792D02*
X584Y792D01*
X611Y792D02*
X618Y792D01*
X631Y792D02*
X638Y792D01*
X578Y791D02*
X584Y791D01*
X611Y791D02*
X618Y791D01*
X631Y791D02*
X638Y791D01*
X578Y790D02*
X584Y790D01*
X611Y790D02*
X618Y790D01*
X631Y790D02*
X638Y790D01*
X578Y789D02*
X584Y789D01*
X611Y789D02*
X618Y789D01*
X631Y789D02*
X638Y789D01*
X578Y788D02*
X584Y788D01*
X611Y788D02*
X618Y788D01*
X631Y788D02*
X638Y788D01*
X578Y787D02*
X585Y787D01*
X611Y787D02*
X618Y787D01*
X631Y787D02*
X638Y787D01*
X578Y786D02*
X585Y786D01*
X611Y786D02*
X618Y786D01*
X631Y786D02*
X638Y786D01*
X578Y785D02*
X585Y785D01*
X612Y785D02*
X617Y785D01*
X631Y785D02*
X638Y785D01*
X578Y784D02*
X586Y784D01*
X612Y784D02*
X616Y784D01*
X631Y784D02*
X638Y784D01*
X578Y783D02*
X587Y783D01*
X631Y783D02*
X638Y783D01*
X579Y782D02*
X588Y782D01*
X631Y782D02*
X638Y782D01*
X579Y781D02*
X590Y781D01*
X631Y781D02*
X638Y781D01*
X580Y780D02*
X591Y780D01*
X631Y780D02*
X638Y780D01*
X581Y779D02*
X592Y779D01*
X631Y779D02*
X638Y779D01*
X582Y778D02*
X594Y778D01*
X631Y778D02*
X638Y778D01*
X583Y777D02*
X595Y777D01*
X631Y777D02*
X638Y777D01*
X584Y776D02*
X596Y776D01*
X631Y776D02*
X638Y776D01*
X585Y775D02*
X597Y775D01*
X631Y775D02*
X638Y775D01*
X587Y774D02*
X599Y774D01*
X631Y774D02*
X638Y774D01*
X588Y773D02*
X600Y773D01*
X630Y773D02*
X638Y773D01*
X589Y772D02*
X602Y772D01*
X629Y772D02*
X637Y772D01*
X591Y771D02*
X637Y771D01*
X592Y770D02*
X637Y770D01*
X593Y769D02*
X636Y769D01*
X594Y768D02*
X635Y768D01*
X596Y767D02*
X634Y767D01*
X597Y766D02*
X633Y766D01*
X599Y765D02*
X632Y765D01*
X602Y764D02*
X629Y764D01*
X290Y713D02*
X305Y713D01*
X288Y712D02*
X309Y712D01*
X287Y711D02*
X312Y711D01*
X287Y710D02*
X316Y710D01*
X288Y709D02*
X319Y709D01*
X289Y708D02*
X322Y708D01*
X305Y707D02*
X326Y707D01*
X308Y706D02*
X329Y706D01*
X312Y705D02*
X333Y705D01*
X315Y704D02*
X336Y704D01*
X319Y703D02*
X340Y703D01*
X322Y702D02*
X343Y702D01*
X325Y701D02*
X346Y701D01*
X329Y700D02*
X347Y700D01*
X332Y699D02*
X348Y699D01*
X332Y698D02*
X348Y698D01*
X328Y697D02*
X347Y697D01*
X325Y696D02*
X346Y696D01*
X321Y695D02*
X343Y695D01*
X318Y694D02*
X339Y694D01*
X315Y693D02*
X336Y693D01*
X311Y692D02*
X332Y692D01*
X308Y691D02*
X329Y691D01*
X304Y690D02*
X325Y690D01*
X289Y689D02*
X322Y689D01*
X288Y688D02*
X318Y688D01*
X287Y687D02*
X315Y687D01*
X287Y686D02*
X312Y686D01*
X288Y685D02*
X308Y685D01*
X290Y684D02*
X305Y684D01*
X291Y670D02*
X314Y670D01*
X321Y670D02*
X344Y670D01*
X290Y669D02*
X316Y669D01*
X319Y669D02*
X345Y669D01*
X289Y668D02*
X346Y668D01*
X288Y667D02*
X347Y667D01*
X287Y666D02*
X347Y666D01*
X287Y665D02*
X348Y665D01*
X287Y664D02*
X294Y664D01*
X313Y664D02*
X322Y664D01*
X341Y664D02*
X348Y664D01*
X287Y663D02*
X294Y663D01*
X314Y663D02*
X321Y663D01*
X341Y663D02*
X348Y663D01*
X287Y662D02*
X294Y662D01*
X314Y662D02*
X321Y662D01*
X341Y662D02*
X348Y662D01*
X287Y661D02*
X294Y661D01*
X314Y661D02*
X321Y661D01*
X341Y661D02*
X348Y661D01*
X287Y660D02*
X294Y660D01*
X314Y660D02*
X321Y660D01*
X341Y660D02*
X348Y660D01*
X287Y659D02*
X294Y659D01*
X314Y659D02*
X321Y659D01*
X341Y659D02*
X348Y659D01*
X287Y658D02*
X294Y658D01*
X314Y658D02*
X321Y658D01*
X341Y658D02*
X348Y658D01*
X287Y657D02*
X294Y657D01*
X314Y657D02*
X321Y657D01*
X341Y657D02*
X348Y657D01*
X287Y656D02*
X294Y656D01*
X314Y656D02*
X321Y656D01*
X341Y656D02*
X348Y656D01*
X287Y655D02*
X294Y655D01*
X314Y655D02*
X321Y655D01*
X341Y655D02*
X348Y655D01*
X287Y654D02*
X294Y654D01*
X314Y654D02*
X321Y654D01*
X341Y654D02*
X348Y654D01*
X287Y653D02*
X294Y653D01*
X314Y653D02*
X321Y653D01*
X341Y653D02*
X348Y653D01*
X287Y652D02*
X294Y652D01*
X314Y652D02*
X321Y652D01*
X341Y652D02*
X348Y652D01*
X287Y651D02*
X294Y651D01*
X314Y651D02*
X321Y651D01*
X341Y651D02*
X348Y651D01*
X287Y650D02*
X294Y650D01*
X314Y650D02*
X321Y650D01*
X341Y650D02*
X348Y650D01*
X287Y649D02*
X294Y649D01*
X314Y649D02*
X321Y649D01*
X341Y649D02*
X348Y649D01*
X287Y648D02*
X294Y648D01*
X315Y648D02*
X320Y648D01*
X341Y648D02*
X348Y648D01*
X287Y647D02*
X294Y647D01*
X341Y647D02*
X348Y647D01*
X287Y646D02*
X294Y646D01*
X341Y646D02*
X348Y646D01*
X287Y645D02*
X294Y645D01*
X341Y645D02*
X348Y645D01*
X287Y644D02*
X294Y644D01*
X341Y644D02*
X348Y644D01*
X288Y643D02*
X294Y643D01*
X341Y643D02*
X347Y643D01*
X289Y642D02*
X293Y642D01*
X342Y642D02*
X346Y642D01*
X326Y619D02*
X336Y619D01*
X325Y618D02*
X337Y618D01*
X324Y617D02*
X338Y617D01*
X324Y616D02*
X338Y616D01*
X324Y615D02*
X338Y615D01*
X324Y614D02*
X338Y614D01*
X324Y613D02*
X338Y613D01*
X324Y612D02*
X338Y612D01*
X324Y611D02*
X338Y611D01*
X324Y610D02*
X337Y610D01*
X325Y609D02*
X337Y609D01*
X326Y608D02*
X335Y608D01*
X1122Y589D02*
X1125Y589D01*
X1121Y588D02*
X1126Y588D01*
X1120Y587D02*
X1126Y587D01*
X1120Y586D02*
X1127Y586D01*
X291Y585D02*
X314Y585D01*
X321Y585D02*
X344Y585D01*
X1120Y585D02*
X1127Y585D01*
X290Y584D02*
X316Y584D01*
X319Y584D02*
X345Y584D01*
X1120Y584D02*
X1127Y584D01*
X289Y583D02*
X346Y583D01*
X1017Y583D02*
X1022Y583D01*
X1120Y583D02*
X1127Y583D01*
X288Y582D02*
X347Y582D01*
X1014Y582D02*
X1023Y582D01*
X1120Y582D02*
X1127Y582D01*
X287Y581D02*
X347Y581D01*
X1010Y581D02*
X1023Y581D01*
X1120Y581D02*
X1127Y581D01*
X287Y580D02*
X348Y580D01*
X1007Y580D02*
X1024Y580D01*
X1120Y580D02*
X1127Y580D01*
X287Y579D02*
X294Y579D01*
X313Y579D02*
X322Y579D01*
X341Y579D02*
X348Y579D01*
X1003Y579D02*
X1024Y579D01*
X1120Y579D02*
X1127Y579D01*
X287Y578D02*
X294Y578D01*
X314Y578D02*
X321Y578D01*
X341Y578D02*
X348Y578D01*
X1000Y578D02*
X1023Y578D01*
X1120Y578D02*
X1127Y578D01*
X287Y577D02*
X294Y577D01*
X314Y577D02*
X321Y577D01*
X341Y577D02*
X348Y577D01*
X996Y577D02*
X1022Y577D01*
X1120Y577D02*
X1127Y577D01*
X287Y576D02*
X294Y576D01*
X314Y576D02*
X321Y576D01*
X341Y576D02*
X348Y576D01*
X993Y576D02*
X1020Y576D01*
X1120Y576D02*
X1127Y576D01*
X287Y575D02*
X294Y575D01*
X314Y575D02*
X321Y575D01*
X341Y575D02*
X348Y575D01*
X990Y575D02*
X1017Y575D01*
X1120Y575D02*
X1127Y575D01*
X287Y574D02*
X294Y574D01*
X314Y574D02*
X321Y574D01*
X341Y574D02*
X348Y574D01*
X986Y574D02*
X1013Y574D01*
X1120Y574D02*
X1127Y574D01*
X287Y573D02*
X294Y573D01*
X314Y573D02*
X321Y573D01*
X341Y573D02*
X348Y573D01*
X983Y573D02*
X1010Y573D01*
X1120Y573D02*
X1127Y573D01*
X287Y572D02*
X294Y572D01*
X314Y572D02*
X321Y572D01*
X341Y572D02*
X348Y572D01*
X979Y572D02*
X1010Y572D01*
X1120Y572D02*
X1127Y572D01*
X287Y571D02*
X294Y571D01*
X314Y571D02*
X321Y571D01*
X341Y571D02*
X348Y571D01*
X976Y571D02*
X1010Y571D01*
X1120Y571D02*
X1127Y571D01*
X287Y570D02*
X294Y570D01*
X314Y570D02*
X321Y570D01*
X341Y570D02*
X348Y570D01*
X972Y570D02*
X1000Y570D01*
X1003Y570D02*
X1010Y570D01*
X1120Y570D02*
X1127Y570D01*
X287Y569D02*
X294Y569D01*
X314Y569D02*
X321Y569D01*
X341Y569D02*
X348Y569D01*
X969Y569D02*
X996Y569D01*
X1003Y569D02*
X1010Y569D01*
X1120Y569D02*
X1127Y569D01*
X287Y568D02*
X294Y568D01*
X314Y568D02*
X321Y568D01*
X341Y568D02*
X348Y568D01*
X966Y568D02*
X993Y568D01*
X1003Y568D02*
X1010Y568D01*
X1120Y568D02*
X1127Y568D01*
X287Y567D02*
X294Y567D01*
X314Y567D02*
X321Y567D01*
X341Y567D02*
X348Y567D01*
X964Y567D02*
X990Y567D01*
X1003Y567D02*
X1010Y567D01*
X1120Y567D02*
X1127Y567D01*
X287Y566D02*
X294Y566D01*
X314Y566D02*
X321Y566D01*
X341Y566D02*
X348Y566D01*
X964Y566D02*
X986Y566D01*
X1003Y566D02*
X1010Y566D01*
X1120Y566D02*
X1127Y566D01*
X287Y565D02*
X294Y565D01*
X314Y565D02*
X321Y565D01*
X341Y565D02*
X348Y565D01*
X963Y565D02*
X983Y565D01*
X1003Y565D02*
X1010Y565D01*
X1120Y565D02*
X1127Y565D01*
X287Y564D02*
X294Y564D01*
X314Y564D02*
X321Y564D01*
X341Y564D02*
X348Y564D01*
X963Y564D02*
X981Y564D01*
X1003Y564D02*
X1010Y564D01*
X1120Y564D02*
X1127Y564D01*
X287Y563D02*
X294Y563D01*
X315Y563D02*
X320Y563D01*
X341Y563D02*
X348Y563D01*
X964Y563D02*
X985Y563D01*
X1003Y563D02*
X1010Y563D01*
X1120Y563D02*
X1127Y563D01*
X287Y562D02*
X294Y562D01*
X341Y562D02*
X348Y562D01*
X964Y562D02*
X988Y562D01*
X1003Y562D02*
X1010Y562D01*
X1120Y562D02*
X1127Y562D01*
X287Y561D02*
X294Y561D01*
X341Y561D02*
X348Y561D01*
X965Y561D02*
X992Y561D01*
X1003Y561D02*
X1010Y561D01*
X1120Y561D02*
X1127Y561D01*
X287Y560D02*
X294Y560D01*
X341Y560D02*
X348Y560D01*
X968Y560D02*
X995Y560D01*
X1003Y560D02*
X1010Y560D01*
X1120Y560D02*
X1127Y560D01*
X287Y559D02*
X294Y559D01*
X341Y559D02*
X348Y559D01*
X971Y559D02*
X999Y559D01*
X1003Y559D02*
X1010Y559D01*
X1120Y559D02*
X1127Y559D01*
X288Y558D02*
X294Y558D01*
X341Y558D02*
X347Y558D01*
X975Y558D02*
X1010Y558D01*
X1069Y558D02*
X1127Y558D01*
X289Y557D02*
X293Y557D01*
X342Y557D02*
X346Y557D01*
X978Y557D02*
X1010Y557D01*
X1068Y557D02*
X1127Y557D01*
X981Y556D02*
X1010Y556D01*
X1067Y556D02*
X1127Y556D01*
X985Y555D02*
X1012Y555D01*
X1067Y555D02*
X1127Y555D01*
X988Y554D02*
X1016Y554D01*
X1066Y554D02*
X1127Y554D01*
X992Y553D02*
X1019Y553D01*
X1067Y553D02*
X1127Y553D01*
X995Y552D02*
X1022Y552D01*
X1067Y552D02*
X1127Y552D01*
X999Y551D02*
X1023Y551D01*
X1068Y551D02*
X1127Y551D01*
X1002Y550D02*
X1023Y550D01*
X1005Y549D02*
X1024Y549D01*
X1009Y548D02*
X1024Y548D01*
X1012Y547D02*
X1023Y547D01*
X1016Y546D02*
X1023Y546D01*
X1019Y545D02*
X1021Y545D01*
X1068Y532D02*
X1072Y532D01*
X1122Y532D02*
X1125Y532D01*
X1067Y531D02*
X1073Y531D01*
X1121Y531D02*
X1126Y531D01*
X1067Y530D02*
X1073Y530D01*
X1120Y530D02*
X1127Y530D01*
X1066Y529D02*
X1073Y529D01*
X1120Y529D02*
X1127Y529D01*
X1066Y528D02*
X1073Y528D01*
X1120Y528D02*
X1127Y528D01*
X991Y527D02*
X996Y527D01*
X1066Y527D02*
X1073Y527D01*
X1120Y527D02*
X1127Y527D01*
X988Y526D02*
X999Y526D01*
X1066Y526D02*
X1073Y526D01*
X1120Y526D02*
X1127Y526D01*
X985Y525D02*
X1002Y525D01*
X1066Y525D02*
X1073Y525D01*
X1120Y525D02*
X1127Y525D01*
X983Y524D02*
X1004Y524D01*
X1066Y524D02*
X1073Y524D01*
X1120Y524D02*
X1127Y524D01*
X981Y523D02*
X1006Y523D01*
X1066Y523D02*
X1073Y523D01*
X1120Y523D02*
X1127Y523D01*
X979Y522D02*
X1008Y522D01*
X1066Y522D02*
X1073Y522D01*
X1120Y522D02*
X1127Y522D01*
X977Y521D02*
X1010Y521D01*
X1066Y521D02*
X1073Y521D01*
X1120Y521D02*
X1127Y521D01*
X975Y520D02*
X1012Y520D01*
X1066Y520D02*
X1073Y520D01*
X1120Y520D02*
X1127Y520D01*
X973Y519D02*
X991Y519D01*
X996Y519D02*
X1014Y519D01*
X1066Y519D02*
X1073Y519D01*
X1120Y519D02*
X1127Y519D01*
X971Y518D02*
X988Y518D01*
X999Y518D02*
X1016Y518D01*
X1066Y518D02*
X1073Y518D01*
X1120Y518D02*
X1127Y518D01*
X969Y517D02*
X986Y517D01*
X1001Y517D02*
X1018Y517D01*
X1066Y517D02*
X1073Y517D01*
X1120Y517D02*
X1127Y517D01*
X968Y516D02*
X984Y516D01*
X1003Y516D02*
X1019Y516D01*
X1066Y516D02*
X1073Y516D01*
X1120Y516D02*
X1127Y516D01*
X967Y515D02*
X982Y515D01*
X1005Y515D02*
X1020Y515D01*
X1066Y515D02*
X1073Y515D01*
X1120Y515D02*
X1127Y515D01*
X966Y514D02*
X980Y514D01*
X1007Y514D02*
X1021Y514D01*
X1066Y514D02*
X1073Y514D01*
X1120Y514D02*
X1127Y514D01*
X965Y513D02*
X978Y513D01*
X1009Y513D02*
X1022Y513D01*
X1066Y513D02*
X1074Y513D01*
X1120Y513D02*
X1127Y513D01*
X965Y512D02*
X976Y512D01*
X1011Y512D02*
X1022Y512D01*
X1067Y512D02*
X1074Y512D01*
X1119Y512D02*
X1127Y512D01*
X964Y511D02*
X974Y511D01*
X1013Y511D02*
X1023Y511D01*
X1067Y511D02*
X1075Y511D01*
X1118Y511D02*
X1126Y511D01*
X964Y510D02*
X972Y510D01*
X1015Y510D02*
X1023Y510D01*
X1067Y510D02*
X1077Y510D01*
X1116Y510D02*
X1126Y510D01*
X964Y509D02*
X971Y509D01*
X1016Y509D02*
X1023Y509D01*
X1068Y509D02*
X1079Y509D01*
X1114Y509D02*
X1125Y509D01*
X963Y508D02*
X970Y508D01*
X1016Y508D02*
X1024Y508D01*
X1068Y508D02*
X1081Y508D01*
X1112Y508D02*
X1125Y508D01*
X963Y507D02*
X970Y507D01*
X1017Y507D02*
X1024Y507D01*
X1069Y507D02*
X1083Y507D01*
X1110Y507D02*
X1124Y507D01*
X963Y506D02*
X970Y506D01*
X1017Y506D02*
X1024Y506D01*
X1070Y506D02*
X1085Y506D01*
X1108Y506D02*
X1123Y506D01*
X963Y505D02*
X970Y505D01*
X1017Y505D02*
X1024Y505D01*
X1071Y505D02*
X1087Y505D01*
X1106Y505D02*
X1122Y505D01*
X963Y504D02*
X970Y504D01*
X1016Y504D02*
X1024Y504D01*
X1072Y504D02*
X1089Y504D01*
X1104Y504D02*
X1121Y504D01*
X963Y503D02*
X1024Y503D01*
X1074Y503D02*
X1091Y503D01*
X1102Y503D02*
X1119Y503D01*
X963Y502D02*
X1024Y502D01*
X1076Y502D02*
X1093Y502D01*
X1100Y502D02*
X1117Y502D01*
X963Y501D02*
X1024Y501D01*
X1078Y501D02*
X1115Y501D01*
X963Y500D02*
X1024Y500D01*
X1080Y500D02*
X1113Y500D01*
X963Y499D02*
X1024Y499D01*
X1082Y499D02*
X1111Y499D01*
X963Y498D02*
X1024Y498D01*
X1084Y498D02*
X1109Y498D01*
X963Y497D02*
X1024Y497D01*
X1086Y497D02*
X1107Y497D01*
X963Y496D02*
X1024Y496D01*
X1088Y496D02*
X1105Y496D01*
X963Y495D02*
X970Y495D01*
X1017Y495D02*
X1024Y495D01*
X1090Y495D02*
X1103Y495D01*
X963Y494D02*
X970Y494D01*
X1017Y494D02*
X1024Y494D01*
X1094Y494D02*
X1100Y494D01*
X963Y493D02*
X970Y493D01*
X1017Y493D02*
X1024Y493D01*
X963Y492D02*
X970Y492D01*
X1017Y492D02*
X1024Y492D01*
X963Y491D02*
X970Y491D01*
X1017Y491D02*
X1023Y491D01*
X964Y490D02*
X970Y490D01*
X1017Y490D02*
X1023Y490D01*
X965Y489D02*
X969Y489D01*
X1018Y489D02*
X1022Y489D01*
X1075Y476D02*
X1077Y476D01*
X1117Y476D02*
X1119Y476D01*
X1072Y475D02*
X1079Y475D01*
X1114Y475D02*
X1122Y475D01*
X1071Y474D02*
X1080Y474D01*
X1113Y474D02*
X1124Y474D01*
X1070Y473D02*
X1080Y473D01*
X1112Y473D02*
X1125Y473D01*
X1069Y472D02*
X1080Y472D01*
X1110Y472D02*
X1125Y472D01*
X1068Y471D02*
X1080Y471D01*
X1109Y471D02*
X1126Y471D01*
X970Y470D02*
X975Y470D01*
X1012Y470D02*
X1018Y470D01*
X1067Y470D02*
X1079Y470D01*
X1108Y470D02*
X1126Y470D01*
X968Y469D02*
X976Y469D01*
X1011Y469D02*
X1020Y469D01*
X1067Y469D02*
X1078Y469D01*
X1107Y469D02*
X1127Y469D01*
X967Y468D02*
X977Y468D01*
X1009Y468D02*
X1021Y468D01*
X1067Y468D02*
X1075Y468D01*
X1105Y468D02*
X1127Y468D01*
X966Y467D02*
X977Y467D01*
X1008Y467D02*
X1022Y467D01*
X1067Y467D02*
X1074Y467D01*
X1104Y467D02*
X1116Y467D01*
X1120Y467D02*
X1127Y467D01*
X965Y466D02*
X977Y466D01*
X1007Y466D02*
X1022Y466D01*
X1066Y466D02*
X1073Y466D01*
X1103Y466D02*
X1115Y466D01*
X1120Y466D02*
X1127Y466D01*
X965Y465D02*
X977Y465D01*
X1005Y465D02*
X1023Y465D01*
X1066Y465D02*
X1073Y465D01*
X1101Y465D02*
X1114Y465D01*
X1120Y465D02*
X1127Y465D01*
X964Y464D02*
X976Y464D01*
X1004Y464D02*
X1023Y464D01*
X1066Y464D02*
X1073Y464D01*
X1100Y464D02*
X1112Y464D01*
X1120Y464D02*
X1127Y464D01*
X964Y463D02*
X974Y463D01*
X1003Y463D02*
X1024Y463D01*
X1066Y463D02*
X1073Y463D01*
X1099Y463D02*
X1111Y463D01*
X1120Y463D02*
X1127Y463D01*
X963Y462D02*
X971Y462D01*
X1002Y462D02*
X1014Y462D01*
X1017Y462D02*
X1024Y462D01*
X1066Y462D02*
X1073Y462D01*
X1098Y462D02*
X1110Y462D01*
X1120Y462D02*
X1127Y462D01*
X963Y461D02*
X971Y461D01*
X1000Y461D02*
X1013Y461D01*
X1017Y461D02*
X1024Y461D01*
X1066Y461D02*
X1073Y461D01*
X1096Y461D02*
X1109Y461D01*
X1120Y461D02*
X1127Y461D01*
X963Y460D02*
X970Y460D01*
X999Y460D02*
X1011Y460D01*
X1017Y460D02*
X1024Y460D01*
X1066Y460D02*
X1073Y460D01*
X1095Y460D02*
X1107Y460D01*
X1120Y460D02*
X1127Y460D01*
X963Y459D02*
X970Y459D01*
X998Y459D02*
X1010Y459D01*
X1017Y459D02*
X1024Y459D01*
X1066Y459D02*
X1073Y459D01*
X1094Y459D02*
X1106Y459D01*
X1120Y459D02*
X1127Y459D01*
X963Y458D02*
X970Y458D01*
X996Y458D02*
X1009Y458D01*
X1017Y458D02*
X1024Y458D01*
X1066Y458D02*
X1073Y458D01*
X1092Y458D02*
X1105Y458D01*
X1120Y458D02*
X1127Y458D01*
X963Y457D02*
X970Y457D01*
X995Y457D02*
X1007Y457D01*
X1017Y457D02*
X1024Y457D01*
X1066Y457D02*
X1073Y457D01*
X1091Y457D02*
X1103Y457D01*
X1120Y457D02*
X1127Y457D01*
X963Y456D02*
X970Y456D01*
X994Y456D02*
X1006Y456D01*
X1017Y456D02*
X1024Y456D01*
X1066Y456D02*
X1073Y456D01*
X1090Y456D02*
X1102Y456D01*
X1120Y456D02*
X1127Y456D01*
X963Y455D02*
X970Y455D01*
X993Y455D02*
X1005Y455D01*
X1017Y455D02*
X1024Y455D01*
X1066Y455D02*
X1073Y455D01*
X1089Y455D02*
X1101Y455D01*
X1120Y455D02*
X1127Y455D01*
X963Y454D02*
X970Y454D01*
X991Y454D02*
X1004Y454D01*
X1017Y454D02*
X1024Y454D01*
X1066Y454D02*
X1073Y454D01*
X1087Y454D02*
X1100Y454D01*
X1120Y454D02*
X1127Y454D01*
X963Y453D02*
X970Y453D01*
X990Y453D02*
X1002Y453D01*
X1017Y453D02*
X1024Y453D01*
X1066Y453D02*
X1073Y453D01*
X1086Y453D02*
X1098Y453D01*
X1120Y453D02*
X1127Y453D01*
X963Y452D02*
X970Y452D01*
X989Y452D02*
X1001Y452D01*
X1017Y452D02*
X1024Y452D01*
X1066Y452D02*
X1073Y452D01*
X1085Y452D02*
X1097Y452D01*
X1120Y452D02*
X1127Y452D01*
X963Y451D02*
X970Y451D01*
X987Y451D02*
X1000Y451D01*
X1017Y451D02*
X1024Y451D01*
X1066Y451D02*
X1073Y451D01*
X1084Y451D02*
X1096Y451D01*
X1120Y451D02*
X1127Y451D01*
X963Y450D02*
X970Y450D01*
X986Y450D02*
X998Y450D01*
X1017Y450D02*
X1024Y450D01*
X1066Y450D02*
X1073Y450D01*
X1082Y450D02*
X1094Y450D01*
X1120Y450D02*
X1127Y450D01*
X963Y449D02*
X970Y449D01*
X985Y449D02*
X997Y449D01*
X1017Y449D02*
X1024Y449D01*
X1066Y449D02*
X1073Y449D01*
X1081Y449D02*
X1093Y449D01*
X1120Y449D02*
X1127Y449D01*
X963Y448D02*
X970Y448D01*
X984Y448D02*
X996Y448D01*
X1017Y448D02*
X1024Y448D01*
X1066Y448D02*
X1073Y448D01*
X1080Y448D02*
X1092Y448D01*
X1120Y448D02*
X1127Y448D01*
X963Y447D02*
X970Y447D01*
X982Y447D02*
X994Y447D01*
X1017Y447D02*
X1024Y447D01*
X1066Y447D02*
X1073Y447D01*
X1078Y447D02*
X1090Y447D01*
X1120Y447D02*
X1127Y447D01*
X963Y446D02*
X970Y446D01*
X981Y446D02*
X993Y446D01*
X1017Y446D02*
X1024Y446D01*
X1066Y446D02*
X1073Y446D01*
X1077Y446D02*
X1089Y446D01*
X1119Y446D02*
X1127Y446D01*
X963Y445D02*
X970Y445D01*
X980Y445D02*
X992Y445D01*
X1017Y445D02*
X1024Y445D01*
X1066Y445D02*
X1074Y445D01*
X1076Y445D02*
X1088Y445D01*
X1118Y445D02*
X1126Y445D01*
X963Y444D02*
X970Y444D01*
X978Y444D02*
X991Y444D01*
X1017Y444D02*
X1024Y444D01*
X1067Y444D02*
X1087Y444D01*
X1115Y444D02*
X1126Y444D01*
X963Y443D02*
X970Y443D01*
X977Y443D02*
X989Y443D01*
X1017Y443D02*
X1024Y443D01*
X1067Y443D02*
X1085Y443D01*
X1114Y443D02*
X1126Y443D01*
X963Y442D02*
X970Y442D01*
X976Y442D02*
X988Y442D01*
X1017Y442D02*
X1024Y442D01*
X1067Y442D02*
X1084Y442D01*
X1113Y442D02*
X1125Y442D01*
X963Y441D02*
X970Y441D01*
X975Y441D02*
X987Y441D01*
X1016Y441D02*
X1024Y441D01*
X1068Y441D02*
X1083Y441D01*
X1113Y441D02*
X1124Y441D01*
X963Y440D02*
X970Y440D01*
X973Y440D02*
X985Y440D01*
X1016Y440D02*
X1023Y440D01*
X1069Y440D02*
X1081Y440D01*
X1113Y440D02*
X1124Y440D01*
X963Y439D02*
X984Y439D01*
X1012Y439D02*
X1023Y439D01*
X1070Y439D02*
X1080Y439D01*
X1114Y439D02*
X1122Y439D01*
X964Y438D02*
X983Y438D01*
X1011Y438D02*
X1023Y438D01*
X1071Y438D02*
X1078Y438D01*
X1115Y438D02*
X1121Y438D01*
X964Y437D02*
X982Y437D01*
X1010Y437D02*
X1022Y437D01*
X1075Y437D02*
X1075Y437D01*
X964Y436D02*
X980Y436D01*
X1010Y436D02*
X1022Y436D01*
X965Y435D02*
X979Y435D01*
X1010Y435D02*
X1021Y435D01*
X966Y434D02*
X978Y434D01*
X1010Y434D02*
X1020Y434D01*
X967Y433D02*
X976Y433D01*
X1011Y433D02*
X1019Y433D01*
X969Y432D02*
X974Y432D01*
X1012Y432D02*
X1016Y432D01*
D02*
G04 End of Copper1*
M02*